<svg id="Layer_1" data-name="Layer 1" xmlns="http://www.w3.org/2000/svg" viewBox="0 0 461 326.22"><defs><style>.cls-1{fill:#fff;}</style></defs><title>youtube-white</title><path class="cls-1" d="M365.26,67.39H95.74A95.75,95.75,0,0,0,0,163.14V297.86a95.75,95.75,0,0,0,95.74,95.75H365.26A95.74,95.74,0,0,0,461,297.86V163.14A95.74,95.74,0,0,0,365.26,67.39ZM300.51,237.06,174.45,297.18a5.06,5.06,0,0,1-7.24-4.57v-124a5.06,5.06,0,0,1,7.35-4.52L300.62,228A5.07,5.07,0,0,1,300.51,237.06Z" transform="translate(0 -67.39)"/></svg>