<svg xmlns="http://www.w3.org/2000/svg" viewBox="0 0 569 692">
  <defs>
    <style>
      .a, .b, .c, .d, .g {
        fill: none;
      }

      .a, .b, .c, .d {
        stroke: #000;
        stroke-width: 0.5px;
      }

      .a, .b {
        stroke-miterlimit: 10;
      }

      .b, .c, .f {
        opacity: 0.3;
      }

      .e {
        fill: #fff;
      }
    </style>
  </defs>
  <title>Element 1</title>
  <g>
    <g>
      <line class="a" x1="222.68" y1="420.18" x2="220.15" y2="417.65"/>
      <line class="a" x1="326.08" y1="397.55" x2="321.48" y2="402.04"/>
      <line class="a" x1="208.83" y1="406.33" x2="206.39" y2="403.9"/>
      <line class="b" x1="269.68" y1="402.04" x2="269.65" y2="382.08"/>
      <line class="b" x1="338.58" y1="340.23" x2="318.62" y2="340.26"/>
      <line class="b" x1="338.58" y1="343.08" x2="318.62" y2="343.11"/>
      <line class="b" x1="338.58" y1="341.65" x2="318.62" y2="341.68"/>
      <line class="b" x1="275.38" y1="402.04" x2="275.36" y2="382.08"/>
      <line class="b" x1="276.81" y1="402.04" x2="276.78" y2="382.08"/>
      <line class="b" x1="273.95" y1="402.04" x2="273.93" y2="382.08"/>
      <line class="b" x1="271.11" y1="402.04" x2="271.08" y2="382.08"/>
      <line class="b" x1="272.53" y1="402.04" x2="272.5" y2="382.08"/>
      <line class="b" x1="338.58" y1="334.53" x2="318.62" y2="334.55"/>
      <line class="b" x1="338.58" y1="333.1" x2="318.62" y2="333.13"/>
      <line class="b" x1="338.58" y1="335.95" x2="318.62" y2="335.98"/>
      <line class="b" x1="338.58" y1="338.81" x2="318.62" y2="338.83"/>
      <line class="b" x1="338.58" y1="337.38" x2="318.62" y2="337.4"/>
      <line class="b" x1="338.58" y1="345.93" x2="318.62" y2="345.96"/>
      <line class="b" x1="338.58" y1="344.51" x2="318.62" y2="344.54"/>
      <line class="b" x1="338.58" y1="347.36" x2="318.62" y2="347.39"/>
      <line class="b" x1="338.58" y1="331.68" x2="318.62" y2="331.7"/>
      <line class="b" x1="338.58" y1="348.78" x2="318.62" y2="348.81"/>
      <line class="b" x1="259.7" y1="402.04" x2="259.67" y2="382.08"/>
      <line class="b" x1="278.23" y1="402.04" x2="278.21" y2="382.08"/>
      <line class="b" x1="279.66" y1="402.04" x2="279.63" y2="382.08"/>
      <line class="b" x1="292.49" y1="402.04" x2="292.46" y2="382.08"/>
      <line class="b" x1="293.92" y1="402.04" x2="293.9" y2="382.08"/>
      <line class="b" x1="285.36" y1="402.04" x2="285.33" y2="382.08"/>
      <line class="b" x1="212.04" y1="431.22" x2="202.41" y2="421.63"/>
      <line class="b" x1="283.94" y1="402.04" x2="283.91" y2="382.08"/>
      <line class="b" x1="281.08" y1="402.04" x2="281.06" y2="382.08"/>
      <line class="b" x1="282.52" y1="402.04" x2="282.49" y2="382.08"/>
      <line class="b" x1="265.4" y1="402.04" x2="265.37" y2="382.08"/>
      <line class="b" x1="266.83" y1="402.04" x2="266.8" y2="382.08"/>
      <line class="b" x1="263.98" y1="402.04" x2="263.95" y2="382.08"/>
      <line class="b" x1="261.12" y1="402.04" x2="261.09" y2="382.08"/>
      <line class="b" x1="262.54" y1="402.04" x2="262.52" y2="382.08"/>
      <line class="b" x1="289.64" y1="402.04" x2="289.62" y2="382.08"/>
      <line class="b" x1="291.07" y1="402.04" x2="291.04" y2="382.08"/>
      <line class="b" x1="288.22" y1="402.04" x2="288.19" y2="382.08"/>
      <line class="b" x1="268.25" y1="402.04" x2="268.22" y2="382.08"/>
      <line class="b" x1="286.79" y1="402.04" x2="286.76" y2="382.08"/>
      <polyline class="b" points="121.35 326.46 113.75 326.46 113.75 318.85 121.35 318.85 121.35 326.46"/>
      <rect class="b" x="111.37" y="316.48" width="12.35" height="12.36"/>
      <line class="a" x1="243.32" y1="324.71" x2="262.4" y2="343.78"/>
      <line class="a" x1="302.46" y1="306.97" x2="307.43" y2="312.23"/>
      <line class="b" x1="111.37" y1="328.84" x2="113.75" y2="326.46"/>
      <line class="b" x1="111.37" y1="316.48" x2="113.75" y2="318.85"/>
      <line class="b" x1="123.73" y1="328.84" x2="121.35" y2="326.46"/>
      <line class="a" x1="242.56" y1="361.63" x2="249.09" y2="369.43"/>
      <line class="b" x1="121.35" y1="318.85" x2="123.73" y2="316.48"/>
      <line class="a" x1="378.51" y1="325.04" x2="384.22" y2="325.04"/>
      <line class="a" x1="405.17" y1="307.93" x2="428.93" y2="307.93"/>
      <line class="a" x1="378.44" y1="307.93" x2="395.69" y2="307.93"/>
      <path class="a" d="M352.57,399.67l-2.84-2.91m-2.08-2.12-4.15-4.26m-2.07-2.13-2.85-2.91"/>
      <path class="a" d="M335.45,416.36l4.3-4.19m2.13-2.08,4.25-4.15m2.13-2.07,4.31-4.2"/>
      <path class="a" d="M335.45,416.36l-2.84-2.9m-2.07-2.13-4.15-4.26M324.32,405,321.48,402"/>
      <line class="a" x1="200.8" y1="338.34" x2="200.8" y2="382.08"/>
      <polyline class="a" points="290.45 382.08 301.3 382.08 307.2 376.32"/>
      <line class="b" x1="213.08" y1="430.24" x2="203.42" y2="420.62"/>
      <line class="b" x1="338.58" y1="325.49" x2="318.62" y2="325.52"/>
      <line class="b" x1="338.58" y1="326.92" x2="318.62" y2="326.94"/>
      <line class="b" x1="338.58" y1="358.77" x2="318.62" y2="358.8"/>
      <line class="b" x1="338.58" y1="357.34" x2="318.62" y2="357.37"/>
      <line class="a" x1="210.1" y1="548.67" x2="210.1" y2="529.43"/>
      <line class="a" x1="226.72" y1="529.43" x2="226.72" y2="538.09"/>
      <line class="b" x1="338.58" y1="328.35" x2="318.62" y2="328.38"/>
      <line class="b" x1="338.58" y1="329.77" x2="318.62" y2="329.8"/>
      <line class="b" x1="338.58" y1="355.92" x2="318.62" y2="355.94"/>
      <line class="b" x1="338.58" y1="354.49" x2="318.62" y2="354.52"/>
      <line class="b" x1="338.58" y1="361.63" x2="318.62" y2="361.64"/>
      <line class="b" x1="338.58" y1="363.05" x2="318.62" y2="363.08"/>
      <line class="b" x1="338.58" y1="360.19" x2="318.62" y2="360.22"/>
      <line class="b" x1="338.58" y1="350.22" x2="318.62" y2="350.23"/>
      <line class="b" x1="338.58" y1="353.06" x2="318.62" y2="353.09"/>
      <line class="b" x1="338.58" y1="351.64" x2="318.62" y2="351.67"/>
      <line class="a" x1="241.64" y1="529.43" x2="241.64" y2="544.89"/>
      <line class="a" x1="226.73" y1="570.18" x2="226.73" y2="580.19"/>
      <line class="a" x1="240.64" y1="485.7" x2="286.3" y2="485.7"/>
      <line class="a" x1="172.21" y1="382.08" x2="210.24" y2="382.08"/>
      <line class="a" x1="183.62" y1="485.7" x2="227.35" y2="485.7"/>
      <line class="a" x1="240.64" y1="448.63" x2="286.3" y2="448.63"/>
      <line class="a" x1="384.22" y1="307.93" x2="384.22" y2="350.71"/>
      <polyline class="a" points="368.06 350.71 368.06 307.93 373.88 307.93"/>
      <line class="a" x1="425.1" y1="307.93" x2="425.1" y2="350.71"/>
      <polyline class="a" points="314.01 369.67 318.62 365.17 318.62 351.23"/>
      <polyline class="a" points="214.99 382.08 223.56 382.08 223.56 338.34"/>
      <line class="a" x1="242.56" y1="361.63" x2="242.56" y2="338.34"/>
      <line class="a" x1="234.01" y1="361.63" x2="242.56" y2="361.63"/>
      <polyline class="a" points="318.62 351.23 318.62 324.09 313.96 319.15"/>
      <line class="a" x1="338.58" y1="385.34" x2="332.89" y2="390.9"/>
      <polyline class="a" points="242.19 338.18 249.47 331.54 249.81 331.2"/>
      <line class="b" x1="295.82" y1="402.04" x2="295.79" y2="382.08"/>
      <line class="b" x1="300.1" y1="402.04" x2="300.07" y2="382.08"/>
      <polyline class="a" points="290.45 382.08 259.67 382.08 255.19 376.72"/>
      <polyline class="a" points="242.56 338.34 242.56 325.04 262.54 306.97 275.84 306.97"/>
      <line class="a" x1="223.55" y1="361.63" x2="229.26" y2="361.63"/>
      <line class="a" x1="78.1" y1="338.34" x2="242.56" y2="338.34"/>
      <line class="b" x1="297.25" y1="402.04" x2="297.23" y2="382.09"/>
      <line class="b" x1="298.69" y1="402.04" x2="298.66" y2="382.09"/>
      <g>
        <line class="a" x1="259.33" y1="320.38" x2="273.64" y2="334.78"/>
        <line class="b" x1="249.42" y1="330.29" x2="259.51" y2="321.07"/>
        <line class="b" x1="258.51" y1="339.64" x2="268.75" y2="330.3"/>
        <line class="b" x1="257.5" y1="338.6" x2="267.72" y2="329.27"/>
        <line class="b" x1="259.52" y1="340.68" x2="269.77" y2="331.33"/>
        <line class="b" x1="261.56" y1="342.74" x2="271.82" y2="333.37"/>
        <line class="b" x1="260.54" y1="341.71" x2="270.79" y2="332.36"/>
        <line class="b" x1="251.39" y1="332.4" x2="261.56" y2="323.12"/>
        <line class="b" x1="250.39" y1="331.36" x2="260.53" y2="322.1"/>
        <line class="b" x1="253.41" y1="334.48" x2="263.62" y2="325.17"/>
        <line class="b" x1="255.46" y1="336.54" x2="265.66" y2="327.23"/>
        <line class="b" x1="254.43" y1="335.52" x2="264.64" y2="326.2"/>
        <line class="b" x1="256.49" y1="337.56" x2="266.69" y2="328.25"/>
        <line class="b" x1="262.59" y1="343.77" x2="272.85" y2="334.4"/>
        <line class="b" x1="252.4" y1="333.45" x2="262.59" y2="324.15"/>
      </g>
      <line class="a" x1="205.21" y1="402.72" x2="174.92" y2="430.99"/>
      <line class="a" x1="284.67" y1="568.46" x2="241.64" y2="568.46"/>
      <line class="b" x1="234.94" y1="588.95" x2="234.94" y2="604.86"/>
      <line class="b" x1="234.91" y1="596.58" x2="243.64" y2="596.58"/>
      <line class="b" x1="234.91" y1="595.08" x2="243.64" y2="595.08"/>
      <line class="b" x1="234.91" y1="598.08" x2="243.64" y2="598.08"/>
      <line class="b" x1="234.91" y1="601.07" x2="243.64" y2="601.07"/>
      <line class="b" x1="234.91" y1="599.58" x2="243.64" y2="599.58"/>
      <line class="b" x1="234.91" y1="589.09" x2="243.64" y2="589.09"/>
      <line class="b" x1="234.91" y1="590.59" x2="243.64" y2="590.59"/>
      <line class="b" x1="234.91" y1="593.58" x2="243.64" y2="593.58"/>
      <line class="b" x1="234.91" y1="592.09" x2="243.64" y2="592.09"/>
      <line class="b" x1="234.91" y1="604.07" x2="243.64" y2="604.07"/>
      <line class="b" x1="234.91" y1="602.57" x2="243.64" y2="602.57"/>
      <polyline class="a" points="240.64 439.12 240.64 402.04 321.48 402.04"/>
      <line class="a" x1="100.92" y1="382.08" x2="139.89" y2="382.08"/>
      <line class="a" x1="144.65" y1="382.08" x2="167.46" y2="382.08"/>
      <line class="a" x1="78.1" y1="382.08" x2="96.17" y2="382.08"/>
      <line class="a" x1="152.25" y1="338.34" x2="152.25" y2="382.08"/>
      <line class="a" x1="116.13" y1="338.34" x2="116.13" y2="382.08"/>
      <line class="a" x1="210.1" y1="555.5" x2="210.1" y2="552.77"/>
      <polyline class="a" points="226.72 542.19 226.72 548.11 210.1 548.11"/>
      <polyline class="a" points="241.64 549.94 241.64 555.5 241.64 557.64 241.64 569.64"/>
      <line class="b" x1="192.94" y1="414.16" x2="201.69" y2="422.92"/>
      <line class="b" x1="186.68" y1="420.01" x2="195.46" y2="428.78"/>
      <line class="b" x1="185.64" y1="420.98" x2="194.41" y2="429.76"/>
      <line class="b" x1="188.77" y1="418.06" x2="197.53" y2="426.83"/>
      <line class="b" x1="189.81" y1="417.09" x2="198.57" y2="425.85"/>
      <line class="b" x1="191.9" y1="415.15" x2="200.65" y2="423.9"/>
      <line class="b" x1="190.85" y1="416.12" x2="199.61" y2="424.87"/>
      <line class="b" x1="184.59" y1="421.95" x2="193.37" y2="430.73"/>
      <line class="b" x1="193.98" y1="413.19" x2="202.73" y2="421.93"/>
      <line class="b" x1="196.06" y1="411.24" x2="204.81" y2="419.98"/>
      <line class="b" x1="195.02" y1="412.22" x2="203.77" y2="420.96"/>
      <line class="b" x1="187.72" y1="419.04" x2="196.49" y2="427.8"/>
      <line class="b" x1="183.56" y1="422.93" x2="192.33" y2="431.71"/>
      <line class="a" x1="78.1" y1="397.29" x2="96.17" y2="397.29"/>
      <line class="a" x1="128.49" y1="397.29" x2="128.49" y2="441.97"/>
      <line class="b" x1="234.96" y1="589.09" x2="224.72" y2="589.09"/>
      <line class="a" x1="240.64" y1="443.87" x2="240.64" y2="472.39"/>
      <line class="a" x1="227.35" y1="468.59" x2="227.35" y2="505.68"/>
      <line class="b" x1="207.89" y1="435.14" x2="198.39" y2="425.66"/>
      <line class="a" x1="240.64" y1="477.13" x2="240.64" y2="511.37"/>
      <line class="b" x1="209.97" y1="433.18" x2="200.4" y2="423.64"/>
      <line class="b" x1="211" y1="432.2" x2="201.41" y2="422.63"/>
      <line class="b" x1="208.93" y1="434.16" x2="199.4" y2="424.65"/>
      <line class="b" x1="200.65" y1="442.02" x2="191.33" y2="432.72"/>
      <line class="b" x1="201.66" y1="441.01" x2="192.33" y2="431.71"/>
      <line class="b" x1="205.82" y1="437.11" x2="196.37" y2="427.68"/>
      <line class="b" x1="206.86" y1="436.13" x2="197.38" y2="426.67"/>
      <line class="b" x1="204.78" y1="438.09" x2="195.35" y2="428.69"/>
      <line class="b" x1="202.67" y1="440" x2="193.34" y2="430.7"/>
      <line class="b" x1="203.68" y1="438.99" x2="194.34" y2="429.69"/>
      <line class="b" x1="191.02" y1="432.94" x2="204.81" y2="419.98"/>
      <polyline class="a" points="192.64 449.57 213.41 429.92 215.57 432.06 225.39 422.9"/>
      <line class="a" x1="183.28" y1="449.57" x2="227.35" y2="449.57"/>
      <line class="a" x1="128.49" y1="397.29" x2="137.04" y2="397.29"/>
      <polyline class="a" points="227.35 463.84 227.35 447.68 227.35 432.47 227.35 424.86 222.68 420.18"/>
      <polyline class="a" points="78.1 338.34 78.1 441.97 174.92 441.97 177.48 444.31 174.92 441.97 174.92 397.29"/>
      <line class="a" x1="100.91" y1="397.29" x2="128.49" y2="397.29"/>
      <polyline class="a" points="141.79 397.29 178.88 397.29 198.75 397.29 199.78 397.29 206.39 403.9"/>
      <line class="a" x1="185.84" y1="555.5" x2="183.7" y2="555.5"/>
      <line class="a" x1="338.58" y1="324.09" x2="338.58" y2="385.34"/>
      <line class="a" x1="368.06" y1="325.04" x2="373.76" y2="325.04"/>
      <polyline class="a" points="338.58 350.71 466.92 350.71 466.92 307.93 433.51 307.93"/>
      <polyline class="a" points="185.84 555.5 226.73 555.71 226.73 565.91"/>
      <polyline class="a" points="243.64 604.86 243.64 580.2 242.69 580.2 241.4 580.2 237.99 580.2 241.64 580.2 241.64 574.69"/>
      <polyline class="a" points="230.37 580.2 226.97 580.2 222.83 580.2 222.83 586.85 224.72 586.85 224.72 604.86 183.7 604.86 183.7 602.6 183.7 593.8 183.62 529.43 183.62 449.88 181 447.5"/>
      <polyline class="a" points="286.3 402.04 286.3 529.43 240.64 529.43 240.64 516.11"/>
      <polyline class="a" points="183.62 529.43 227.35 529.43 227.35 510.42"/>
      <polyline class="a" points="284.68 529.43 284.68 534.33 284.68 602.71 284.68 604.86 243.64 604.86"/>
      <rect class="c" x="111.2" y="210.74" width="12.29" height="12.29"/>
      <line class="c" x1="121.12" y1="213.11" x2="123.49" y2="210.74"/>
      <line class="c" x1="111.2" y1="210.74" x2="113.56" y2="213.11"/>
      <polyline class="c" points="121.12 220.67 113.56 220.67 113.56 213.11 121.12 213.11 121.12 220.67"/>
      <line class="c" x1="123.49" y1="223.03" x2="121.12" y2="220.67"/>
      <line class="c" x1="111.2" y1="223.03" x2="113.56" y2="220.67"/>
      <line class="c" x1="218.99" y1="138.87" x2="221.37" y2="141.24"/>
      <polyline class="c" points="228.93 148.81 221.37 148.81 221.37 141.24 228.93 141.24 228.93 148.81"/>
      <line class="c" x1="231.29" y1="151.17" x2="228.93" y2="148.8"/>
      <line class="c" x1="218.99" y1="151.17" x2="221.37" y2="148.8"/>
      <rect class="c" x="218.99" y="138.87" width="12.3" height="12.3"/>
      <line class="c" x1="123.49" y1="187.1" x2="121.12" y2="184.74"/>
      <line class="c" x1="111.2" y1="187.1" x2="113.56" y2="184.74"/>
      <line class="c" x1="121.12" y1="177.17" x2="123.49" y2="174.8"/>
      <rect class="c" x="111.2" y="174.8" width="12.29" height="12.3"/>
      <line class="c" x1="228.93" y1="141.24" x2="231.29" y2="138.87"/>
      <line class="c" x1="250.9" y1="138.87" x2="253.27" y2="141.24"/>
      <polyline class="c" points="260.83 148.81 253.27 148.81 253.27 141.24 260.83 141.24 260.83 148.81"/>
      <line class="c" x1="263.19" y1="151.17" x2="260.83" y2="148.8"/>
      <line class="c" x1="250.9" y1="151.17" x2="253.27" y2="148.8"/>
      <rect class="c" x="250.9" y="138.87" width="12.3" height="12.3"/>
      <line class="c" x1="260.83" y1="141.24" x2="263.19" y2="138.87"/>
      <line class="c" x1="111.2" y1="174.8" x2="113.56" y2="177.17"/>
      <polyline class="c" points="121.12 184.74 113.56 184.74 113.56 177.17 121.12 177.17 121.12 184.74"/>
      <line class="c" x1="124" y1="259.13" x2="121.64" y2="256.77"/>
      <line class="c" x1="111.75" y1="259.13" x2="114.11" y2="256.77"/>
      <rect class="c" x="183.06" y="138.87" width="12.3" height="12.3"/>
      <line class="c" x1="121.64" y1="249.23" x2="124" y2="246.87"/>
      <rect class="c" x="111.75" y="246.87" width="12.25" height="12.25"/>
      <line class="c" x1="111.75" y1="246.87" x2="114.11" y2="249.23"/>
      <polyline class="c" points="121.64 256.77 114.11 256.77 114.11 249.23 121.64 249.23 121.64 256.77"/>
      <line class="c" x1="124" y1="295.02" x2="121.64" y2="292.66"/>
      <line class="c" x1="111.75" y1="295.02" x2="114.11" y2="292.66"/>
      <line class="c" x1="121.64" y1="285.12" x2="124" y2="282.76"/>
      <rect class="c" x="111.75" y="282.76" width="12.25" height="12.25"/>
      <line class="c" x1="111.75" y1="282.76" x2="114.11" y2="285.12"/>
      <polyline class="c" points="121.64 292.66 114.11 292.66 114.11 285.12 121.64 285.12 121.64 292.66"/>
      <line class="c" x1="192.99" y1="141.24" x2="195.36" y2="138.87"/>
      <line class="c" x1="183.06" y1="138.87" x2="185.43" y2="141.24"/>
      <polyline class="c" points="192.99 148.81 185.43 148.81 185.43 141.24 192.99 141.24 192.99 148.81"/>
      <line class="c" x1="195.36" y1="151.17" x2="192.99" y2="148.8"/>
      <line class="c" x1="183.06" y1="151.17" x2="185.43" y2="148.8"/>
      <rect class="c" x="111.2" y="138.87" width="12.29" height="12.3"/>
      <line class="c" x1="157.06" y1="141.24" x2="159.43" y2="138.87"/>
      <line class="c" x1="159.43" y1="151.17" x2="157.06" y2="148.8"/>
      <rect class="c" x="147.13" y="174.8" width="12.3" height="12.3"/>
      <line class="c" x1="121.12" y1="141.24" x2="123.49" y2="138.87"/>
      <line class="c" x1="147.13" y1="174.8" x2="149.49" y2="177.17"/>
      <polyline class="c" points="157.06 184.74 149.49 184.74 149.49 177.17 157.06 177.17 157.06 184.74"/>
      <line class="c" x1="111.2" y1="138.87" x2="113.56" y2="141.24"/>
      <polyline class="c" points="121.12 148.81 113.56 148.81 113.56 141.24 121.12 141.24 121.12 148.81"/>
      <line class="c" x1="123.49" y1="151.17" x2="121.12" y2="148.8"/>
      <line class="c" x1="111.2" y1="151.17" x2="113.56" y2="148.8"/>
      <line class="c" x1="147.13" y1="187.1" x2="149.49" y2="184.74"/>
      <polyline class="c" points="157.06 148.81 149.49 148.81 149.49 141.24 157.06 141.24 157.06 148.81"/>
      <rect class="c" x="147.13" y="138.87" width="12.3" height="12.3"/>
      <line class="c" x1="147.13" y1="151.17" x2="149.49" y2="148.8"/>
      <line class="c" x1="147.13" y1="138.87" x2="149.49" y2="141.24"/>
      <line class="c" x1="159.43" y1="187.1" x2="157.06" y2="184.74"/>
      <line class="c" x1="157.06" y1="177.17" x2="159.43" y2="174.8"/>
      <polyline class="a" points="167.46 338.34 166.99 198.45 275.5 198.45 275.83 198.47 275.83 306.47 275.58 307.29 268.65 314.24 262.4 307.29"/>
      <polyline class="a" points="302.42 292.18 302.42 306.81 302.46 306.97 275.84 306.97"/>
      <line class="a" x1="302.42" y1="292.18" x2="275.84" y2="292.18"/>
      <rect class="a" x="275.84" y="260.28" width="42.54" height="31.9"/>
      <rect class="a" x="275.84" y="228.38" width="42.54" height="31.9"/>
      <line class="a" x1="345.2" y1="267.47" x2="347.73" y2="270"/>
      <line class="a" x1="359.06" y1="281.32" x2="361.49" y2="283.75"/>
      <line class="b" x1="355.84" y1="256.43" x2="365.47" y2="266.02"/>
      <line class="b" x1="354.8" y1="257.41" x2="364.46" y2="267.02"/>
      <line class="a" x1="362.67" y1="284.93" x2="392.96" y2="256.66"/>
      <line class="b" x1="374.94" y1="273.48" x2="366.19" y2="264.73"/>
      <line class="b" x1="381.2" y1="267.64" x2="372.43" y2="258.87"/>
      <line class="b" x1="382.24" y1="266.67" x2="373.47" y2="257.89"/>
      <line class="b" x1="379.11" y1="269.59" x2="370.35" y2="260.82"/>
      <line class="b" x1="378.07" y1="270.56" x2="369.31" y2="261.8"/>
      <line class="b" x1="375.98" y1="272.5" x2="367.23" y2="263.75"/>
      <line class="b" x1="377.03" y1="271.53" x2="368.27" y2="262.78"/>
      <line class="b" x1="383.29" y1="265.7" x2="374.51" y2="256.92"/>
      <line class="b" x1="373.9" y1="274.46" x2="365.16" y2="265.71"/>
      <line class="b" x1="371.82" y1="276.41" x2="363.07" y2="267.67"/>
      <line class="b" x1="372.86" y1="275.43" x2="364.11" y2="266.69"/>
      <polyline class="a" points="392.96 290.36 392.96 245.68 390.4 243.34"/>
      <line class="b" x1="380.16" y1="268.61" x2="371.39" y2="259.85"/>
      <line class="b" x1="384.33" y1="264.71" x2="375.55" y2="255.94"/>
      <line class="b" x1="359.99" y1="252.5" x2="369.49" y2="261.99"/>
      <line class="b" x1="357.91" y1="254.47" x2="367.48" y2="264.01"/>
      <line class="b" x1="356.88" y1="255.45" x2="366.48" y2="265.02"/>
      <line class="b" x1="358.95" y1="253.48" x2="368.48" y2="263"/>
      <line class="b" x1="367.23" y1="245.63" x2="376.56" y2="254.93"/>
      <line class="b" x1="366.22" y1="246.64" x2="375.55" y2="255.94"/>
      <line class="b" x1="362.06" y1="250.54" x2="371.51" y2="259.97"/>
      <line class="b" x1="361.03" y1="251.52" x2="370.5" y2="260.98"/>
      <line class="b" x1="363.1" y1="249.56" x2="372.53" y2="258.96"/>
      <line class="b" x1="365.21" y1="247.65" x2="374.54" y2="256.94"/>
      <line class="b" x1="364.2" y1="248.66" x2="373.54" y2="257.95"/>
      <line class="b" x1="376.86" y1="254.71" x2="363.07" y2="267.67"/>
      <polyline class="a" points="375.25 238.08 354.47 257.73 352.31 255.59 342.49 264.75"/>
      <polyline class="a" points="417.07 290.36 385.75 290.36 368.97 290.36 368.1 290.36 361.49 283.75"/>
      <polyline class="a" points="425.05 290.36 425.8 290.36 440.07 290.36 466.72 290.36 466.93 290.36"/>
      <polyline class="a" points="345.2 267.47 340.53 262.79 340.53 238.08 384.6 238.08 387.92 241.19 385.3 238.81 384.84 238.34 384.84 110.73 340.53 110.64 274.79 110.5 78.1 110.5 78.1 338.34"/>
      <polyline class="d" points="275.83 113.39 80.93 113.34 80.95 338.34"/>
      <polyline class="d" points="275.83 110.73 275.83 111.06 276.17 196.75 164.62 196.75 164.97 338.34"/>
      <line class="a" x1="318.37" y1="238.34" x2="327.01" y2="238.34"/>
      <line class="a" x1="332" y1="238.34" x2="340.64" y2="238.34"/>
      <line class="b" x1="282.15" y1="149.61" x2="315.06" y2="116.7"/>
      <line class="b" x1="360.25" y1="231.7" x2="378.86" y2="213.09"/>
      <line class="b" x1="285.47" y1="172.88" x2="341.64" y2="116.71"/>
      <line class="b" x1="282.48" y1="202.45" x2="368.22" y2="116.71"/>
      <line class="b" x1="291.12" y1="220.4" x2="378.53" y2="133"/>
      <line class="b" x1="317.71" y1="220.4" x2="378.86" y2="159.25"/>
      <line class="b" x1="333" y1="231.7" x2="379.19" y2="185.5"/>
      <polyline class="a" points="392.96 246.08 466.93 245.99 466.86 292.73 474.24 292.73"/>
      <g>
        <path class="e" d="M440.93,333.25h-1.84v1.5h2.14v.46h-2.7V331h2.67v.46h-2.11v1.37h1.84Z"/>
        <path class="e" d="M442,333.08l.21-2.12h2.18v.5h-1.72l-.13,1.16a1.33,1.33,0,0,1,.71-.19,1.14,1.14,0,0,1,.92.39,1.49,1.49,0,0,1,.35,1,1.44,1.44,0,0,1-.36,1,1.31,1.31,0,0,1-1,.38,1.33,1.33,0,0,1-.92-.31,1.28,1.28,0,0,1-.41-.87h.51a.87.87,0,0,0,.26.55.79.79,0,0,0,.56.19.73.73,0,0,0,.59-.26,1.09,1.09,0,0,0,.22-.71,1,1,0,0,0-.24-.68.75.75,0,0,0-.61-.26.93.93,0,0,0-.56.15l-.14.12Z"/>
        <path class="e" d="M447.73,332.07a1,1,0,0,1-.17.56,1.1,1.1,0,0,1-.46.39,1.24,1.24,0,0,1,.53.42,1,1,0,0,1,.19.62,1.11,1.11,0,0,1-.37.88,1.62,1.62,0,0,1-2,0,1.11,1.11,0,0,1-.37-.88,1.06,1.06,0,0,1,.19-.62,1.21,1.21,0,0,1,.52-.42,1.07,1.07,0,0,1-.45-.39,1,1,0,0,1-.16-.56,1.12,1.12,0,0,1,.34-.86,1.31,1.31,0,0,1,.91-.31,1.29,1.29,0,0,1,.91.31A1.13,1.13,0,0,1,447.73,332.07Zm-.45,2a.78.78,0,0,0-.22-.58.8.8,0,0,0-.59-.22.78.78,0,0,0-.59.22.78.78,0,0,0-.22.58.74.74,0,0,0,.22.57.8.8,0,0,0,.59.21.83.83,0,0,0,.6-.21A.77.77,0,0,0,447.28,334.05Zm-.81-2.71a.69.69,0,0,0-.51.2.73.73,0,0,0-.2.54.67.67,0,0,0,.71.72.7.7,0,0,0,.52-.2.71.71,0,0,0,.19-.52.69.69,0,0,0-.2-.53A.66.66,0,0,0,446.47,331.34Z"/>
        <path class="e" d="M448.65,335.21V331H450a1.63,1.63,0,0,1,1,.28,1.06,1.06,0,0,1,.35.85.88.88,0,0,1-.17.53,1.12,1.12,0,0,1-.47.35,1,1,0,0,1,.55.37,1.08,1.08,0,0,1,.2.64,1.11,1.11,0,0,1-.37.9,1.54,1.54,0,0,1-1.05.33Zm.56-2.44h.84a.9.9,0,0,0,.59-.18.62.62,0,0,0,.22-.5.61.61,0,0,0-.2-.51,1,1,0,0,0-.62-.16h-.83Zm0,.45v1.53h.92a.92.92,0,0,0,.62-.2A.72.72,0,0,0,451,334c0-.51-.28-.77-.84-.77Z"/>
      </g>
      <g>
        <path class="e" d="M400.39,333.25h-1.85v1.5h2.15v.46H398V331h2.68v.46h-2.12v1.37h1.85Z"/>
        <path class="e" d="M401.49,333.08l.22-2.12h2.18v.5h-1.72l-.13,1.16a1.3,1.3,0,0,1,.71-.19,1.17,1.17,0,0,1,.92.39,1.72,1.72,0,0,1,0,2.07,1.5,1.5,0,0,1-1.91.07,1.24,1.24,0,0,1-.41-.87h.51a.82.82,0,0,0,.26.55.79.79,0,0,0,.56.19.74.74,0,0,0,.59-.26,1.09,1.09,0,0,0,.21-.71,1,1,0,0,0-.23-.68.77.77,0,0,0-.62-.26.9.9,0,0,0-.55.15l-.15.12Z"/>
        <path class="e" d="M407.18,332.07a.91.91,0,0,1-.17.56,1.07,1.07,0,0,1-.45.39,1.31,1.31,0,0,1,.53.42,1,1,0,0,1,.19.62,1.11,1.11,0,0,1-.37.88,1.43,1.43,0,0,1-1,.33,1.4,1.4,0,0,1-1-.33,1.11,1.11,0,0,1-.37-.88,1.12,1.12,0,0,1,.18-.62,1.24,1.24,0,0,1,.53-.42,1.07,1.07,0,0,1-.45-.39,1,1,0,0,1-.17-.56,1.13,1.13,0,0,1,.35-.86,1.48,1.48,0,0,1,1.81,0A1.1,1.1,0,0,1,407.18,332.07Zm-.44,2a.75.75,0,0,0-.23-.58.78.78,0,0,0-.59-.22.76.76,0,0,0-.58.22.88.88,0,0,0,0,1.15.81.81,0,0,0,.6.21.8.8,0,0,0,.59-.21A.74.74,0,0,0,406.74,334.05Zm-.81-2.71a.72.72,0,0,0-.52.2.73.73,0,0,0-.19.54.71.71,0,0,0,.19.52.7.7,0,0,0,.52.2.67.67,0,0,0,.71-.72.72.72,0,0,0-.2-.53A.69.69,0,0,0,405.93,331.34Z"/>
        <path class="e" d="M410.45,334.1h-1.78l-.4,1.11h-.58l1.62-4.25h.49l1.63,4.25h-.57Zm-1.61-.46h1.44l-.72-2Z"/>
      </g>
      <g>
        <path class="e" d="M261.47,431.62h-1.84v1.5h2.14v.46h-2.7v-4.25h2.67v.46h-2.11v1.37h1.84Z"/>
        <path class="e" d="M265.12,433.58h-2.79v-.39l1.47-1.63a3.17,3.17,0,0,0,.45-.61,1,1,0,0,0,.13-.48.73.73,0,0,0-.21-.54.7.7,0,0,0-.53-.22.85.85,0,0,0-.63.23.89.89,0,0,0-.22.64h-.54a1.23,1.23,0,0,1,.38-.95,1.39,1.39,0,0,1,1-.36,1.35,1.35,0,0,1,.94.31,1.09,1.09,0,0,1,.34.83,2.42,2.42,0,0,1-.8,1.49L263,433.14h2.14Z"/>
        <path class="e" d="M267.81,429.33v.45h-.1a1.42,1.42,0,0,0-1,.38,1.56,1.56,0,0,0-.44,1,1.16,1.16,0,0,1,.92-.39,1.12,1.12,0,0,1,.89.39,1.73,1.73,0,0,1,0,2.07,1.24,1.24,0,0,1-1,.39,1.21,1.21,0,0,1-1-.47,1.86,1.86,0,0,1-.38-1.21v-.2a2.82,2.82,0,0,1,.5-1.8,1.81,1.81,0,0,1,1.49-.63Zm-.71,1.91a.93.93,0,0,0-.84.59V432a1.36,1.36,0,0,0,.24.85.69.69,0,0,0,.59.32.68.68,0,0,0,.57-.27,1.08,1.08,0,0,0,.21-.7,1.13,1.13,0,0,0-.21-.71A.68.68,0,0,0,267.1,431.24Z"/>
      </g>
      <g>
        <path class="e" d="M261.47,470.83h-1.84v1.51h2.14v.45h-2.7v-4.25h2.67V469h-2.11v1.37h1.84Z"/>
        <path class="e" d="M265.12,472.79h-2.79v-.38l1.47-1.64a3.52,3.52,0,0,0,.45-.6,1.08,1.08,0,0,0,.13-.48.74.74,0,0,0-.21-.55.69.69,0,0,0-.53-.21.82.82,0,0,0-.63.23.85.85,0,0,0-.22.63h-.54a1.21,1.21,0,0,1,.38-.94,1.35,1.35,0,0,1,1-.37,1.4,1.4,0,0,1,.94.31,1.11,1.11,0,0,1,.34.83,2.46,2.46,0,0,1-.8,1.5L263,472.35h2.14Z"/>
        <path class="e" d="M265.94,470.66l.21-2.12h2.18v.5h-1.72l-.13,1.16a1.41,1.41,0,0,1,.71-.18,1.21,1.21,0,0,1,.93.38,1.55,1.55,0,0,1,.34,1,1.42,1.42,0,0,1-.36,1,1.25,1.25,0,0,1-1,.38,1.33,1.33,0,0,1-.92-.31,1.28,1.28,0,0,1-.41-.86h.52a.87.87,0,0,0,.26.55.81.81,0,0,0,.55.18.72.72,0,0,0,.59-.25,1.11,1.11,0,0,0,.22-.71,1,1,0,0,0-.24-.69.79.79,0,0,0-.61-.26.87.87,0,0,0-.56.16l-.14.11Z"/>
      </g>
      <g>
        <path class="e" d="M261.47,512h-1.84v1.5h2.14V514h-2.7v-4.25h2.67v.46h-2.11v1.37h1.84Z"/>
        <path class="e" d="M265.12,514h-2.79v-.38L263.8,512a3.52,3.52,0,0,0,.45-.6,1.08,1.08,0,0,0,.13-.48.74.74,0,0,0-.21-.55.69.69,0,0,0-.53-.21.82.82,0,0,0-.63.23.85.85,0,0,0-.22.63h-.54a1.24,1.24,0,0,1,.38-.95,1.59,1.59,0,0,1,1.95-.05,1.11,1.11,0,0,1,.34.83,2.46,2.46,0,0,1-.8,1.5L263,513.56h2.14Z"/>
        <path class="e" d="M268,512.58h.59V513H268v1h-.54v-1h-1.94v-.32l1.9-3H268Zm-1.87,0h1.33v-2.09l-.07.12Z"/>
      </g>
      <g>
        <path class="e" d="M261.47,553.25h-1.84v1.5h2.14v.46h-2.7V551h2.67v.46h-2.11v1.37h1.84Z"/>
        <path class="e" d="M265.08,551.26l-1.77,4h-.56l1.75-3.8h-2.3V551h2.88Z"/>
        <path class="e" d="M267.46,555.21h-.54v-3.6l-1.09.4v-.49l1.55-.58h.08Z"/>
      </g>
      <g>
        <path class="e" d="M261.47,590.47h-1.84V592h2.14v.46h-2.7v-4.25h2.67v.46h-2.11V590h1.84Z"/>
        <path class="e" d="M265.08,588.48l-1.77,3.95h-.56l1.75-3.81h-2.3v-.44h2.88Z"/>
        <path class="e" d="M268.47,592.43h-2.78V592l1.47-1.63a3.52,3.52,0,0,0,.45-.6,1.08,1.08,0,0,0,.13-.48.74.74,0,0,0-.21-.55.69.69,0,0,0-.53-.21.85.85,0,0,0-.63.22.89.89,0,0,0-.22.64h-.54a1.26,1.26,0,0,1,.37-.95,1.43,1.43,0,0,1,1-.36,1.37,1.37,0,0,1,.93.31,1.08,1.08,0,0,1,.35.83,2.46,2.46,0,0,1-.8,1.5L266.34,592h2.13Z"/>
      </g>
      <g>
        <path class="e" d="M201,583.16h-1.84v1.5h2.14v.46h-2.71v-4.25h2.68v.46h-2.11v1.37H201Z"/>
        <path class="e" d="M204.59,581.17l-1.76,4h-.57l1.76-3.81h-2.3v-.44h2.87Z"/>
        <path class="e" d="M206,582.73h.4a.9.9,0,0,0,.61-.2.68.68,0,0,0,.22-.53.66.66,0,0,0-.75-.74.76.76,0,0,0-.56.2.69.69,0,0,0-.21.53h-.54a1.1,1.1,0,0,1,.37-.84,1.5,1.5,0,0,1,1.88,0,1.15,1.15,0,0,1,.35.89.91.91,0,0,1-.18.53,1,1,0,0,1-.49.39,1.12,1.12,0,0,1,.54.37,1,1,0,0,1,.19.63,1.17,1.17,0,0,1-.37.91,1.43,1.43,0,0,1-1,.33,1.45,1.45,0,0,1-1-.32,1.09,1.09,0,0,1-.38-.86h.55a.69.69,0,0,0,.22.54.83.83,0,0,0,.58.2.85.85,0,0,0,.6-.2.8.8,0,0,0,.21-.59.72.72,0,0,0-.23-.57,1,1,0,0,0-.66-.21H206Z"/>
      </g>
      <g>
        <path class="e" d="M202.32,512h-1.84v1.5h2.14V514h-2.71v-4.25h2.68v.46h-2.11v1.37h1.84Z"/>
        <path class="e" d="M206,514h-2.79v-.38l1.48-1.64a5.1,5.1,0,0,0,.45-.6,1.07,1.07,0,0,0,.12-.48.77.77,0,0,0-.2-.55.7.7,0,0,0-.54-.21.79.79,0,0,0-.62.23.85.85,0,0,0-.23.63h-.54a1.28,1.28,0,0,1,.38-.95,1.4,1.4,0,0,1,1-.36,1.38,1.38,0,0,1,.94.31,1.08,1.08,0,0,1,.35.83,2.43,2.43,0,0,1-.81,1.5l-1.13,1.23H206Z"/>
        <path class="e" d="M207.32,511.61h.4a.9.9,0,0,0,.61-.2.68.68,0,0,0,.22-.53.66.66,0,0,0-.75-.74.76.76,0,0,0-.56.2.69.69,0,0,0-.21.53h-.54a1.1,1.1,0,0,1,.37-.84,1.5,1.5,0,0,1,1.88,0,1.15,1.15,0,0,1,.35.89.91.91,0,0,1-.18.53,1,1,0,0,1-.49.39,1.12,1.12,0,0,1,.54.37,1,1,0,0,1,.19.63,1.17,1.17,0,0,1-.37.91,1.43,1.43,0,0,1-1,.33,1.45,1.45,0,0,1-1-.32,1.09,1.09,0,0,1-.38-.86H207a.67.67,0,0,0,.22.54.83.83,0,0,0,.58.2.85.85,0,0,0,.6-.2.8.8,0,0,0,.21-.59.72.72,0,0,0-.23-.57,1,1,0,0,0-.66-.2h-.4Z"/>
      </g>
      <g>
        <path class="e" d="M202.32,470.83h-1.84v1.51h2.14v.45h-2.71v-4.25h2.68V469h-2.11v1.37h1.84Z"/>
        <path class="e" d="M206,472.79h-2.79v-.38l1.48-1.64a5.1,5.1,0,0,0,.45-.6,1.07,1.07,0,0,0,.12-.48.77.77,0,0,0-.2-.55.7.7,0,0,0-.54-.21.79.79,0,0,0-.62.23.85.85,0,0,0-.23.63h-.54a1.24,1.24,0,0,1,.38-.94,1.37,1.37,0,0,1,1-.37,1.38,1.38,0,0,1,.94.31,1.08,1.08,0,0,1,.35.83,2.43,2.43,0,0,1-.81,1.5l-1.13,1.23H206Z"/>
        <path class="e" d="M209.32,472.79h-2.79v-.38l1.48-1.64a5.1,5.1,0,0,0,.45-.6,1.07,1.07,0,0,0,.12-.48.77.77,0,0,0-.2-.55.7.7,0,0,0-.54-.21.78.78,0,0,0-.62.23.85.85,0,0,0-.23.63h-.54a1.24,1.24,0,0,1,.38-.94,1.37,1.37,0,0,1,1-.37,1.38,1.38,0,0,1,.94.31,1.07,1.07,0,0,1,.34.83,2.41,2.41,0,0,1-.8,1.5l-1.14,1.23h2.14Z"/>
      </g>
      <g>
        <path class="e" d="M149.81,424.3H148v1.51h2.14v.46h-2.7V422h2.67v.45H148v1.37h1.84Z"/>
        <path class="e" d="M152.44,426.27h-.54v-3.6l-1.09.4v-.49l1.55-.58h.08Z"/>
        <path class="e" d="M155.8,426.27h-.54v-3.6l-1.09.4v-.49l1.55-.58h.08Z"/>
      </g>
      <g>
        <path class="e" d="M100.63,424.3H98.78v1.51h2.14v.46h-2.7V422h2.67v.45H98.78v1.37h1.85Z"/>
        <path class="e" d="M103.26,426.27h-.55v-3.6l-1.08.4v-.49l1.54-.58h.09Z"/>
        <path class="e" d="M107.51,424.46a2.45,2.45,0,0,1-.33,1.41,1.16,1.16,0,0,1-1,.46,1.17,1.17,0,0,1-1-.45,2.35,2.35,0,0,1-.34-1.35v-.72a2.41,2.41,0,0,1,.33-1.4,1.37,1.37,0,0,1,2,0,2.3,2.3,0,0,1,.34,1.35Zm-.54-.74a2,2,0,0,0-.2-1,.75.75,0,0,0-1.21,0,2,2,0,0,0-.2,1v.87a2.06,2.06,0,0,0,.2,1,.68.68,0,0,0,.61.33.66.66,0,0,0,.59-.31,2,2,0,0,0,.21-1Z"/>
      </g>
      <g>
        <path class="e" d="M95,358.08H93.13v1.51h2.15v.46H92.57v-4.26h2.68v.46H93.13v1.37H95Z"/>
        <path class="e" d="M98.5,358.23a2.49,2.49,0,0,1-.32,1.41,1.35,1.35,0,0,1-2,0,2.38,2.38,0,0,1-.33-1.35v-.72a2.42,2.42,0,0,1,.32-1.4,1.38,1.38,0,0,1,2,0,2.39,2.39,0,0,1,.33,1.35ZM98,357.5a2,2,0,0,0-.19-1,.76.76,0,0,0-1.22,0,2,2,0,0,0-.19,1v.87a2,2,0,0,0,.2,1,.65.65,0,0,0,.6.33.67.67,0,0,0,.6-.31,2,2,0,0,0,.2-1Z"/>
        <path class="e" d="M101.26,358.18a1.26,1.26,0,0,1-.4.32,1.14,1.14,0,0,1-.52.13,1.07,1.07,0,0,1-.64-.19,1.18,1.18,0,0,1-.42-.51,1.69,1.69,0,0,1-.15-.72,1.89,1.89,0,0,1,.16-.77,1.17,1.17,0,0,1,.46-.52,1.33,1.33,0,0,1,.7-.18,1.16,1.16,0,0,1,1,.47,2,2,0,0,1,.37,1.29v.15a2.78,2.78,0,0,1-.49,1.81,1.87,1.87,0,0,1-1.49.59h-.1v-.46h.11a1.29,1.29,0,0,0,1.42-1.41Zm-.83,0a.84.84,0,0,0,.5-.17,1,1,0,0,0,.34-.41v-.22a1.51,1.51,0,0,0-.23-.86.7.7,0,0,0-.59-.33.68.68,0,0,0-.57.27,1.09,1.09,0,0,0-.22.72,1.18,1.18,0,0,0,.21.72A.69.69,0,0,0,100.43,358.18Z"/>
      </g>
      <g>
        <path class="e" d="M131.54,358.08h-1.85v1.51h2.14v.46h-2.7v-4.26h2.67v.46h-2.11v1.37h1.85Z"/>
        <path class="e" d="M135.06,358.23a2.4,2.4,0,0,1-.33,1.41,1.14,1.14,0,0,1-1,.47,1.17,1.17,0,0,1-1-.45,2.37,2.37,0,0,1-.34-1.35v-.72a2.41,2.41,0,0,1,.33-1.4,1.37,1.37,0,0,1,2,0,2.3,2.3,0,0,1,.34,1.35Zm-.54-.73a2,2,0,0,0-.2-1,.75.75,0,0,0-1.21,0,2,2,0,0,0-.2,1v.87a2.06,2.06,0,0,0,.2,1,.68.68,0,0,0,.61.33.65.65,0,0,0,.59-.31,2,2,0,0,0,.21-1Z"/>
        <path class="e" d="M138.33,356.91a1,1,0,0,1-.17.56,1.07,1.07,0,0,1-.45.39,1.2,1.2,0,0,1,.52.42,1,1,0,0,1,.2.62,1.14,1.14,0,0,1-.37.88,1.64,1.64,0,0,1-2,0,1.14,1.14,0,0,1-.37-.88,1.11,1.11,0,0,1,.19-.62,1.13,1.13,0,0,1,.52-.42,1.19,1.19,0,0,1-.44-.39,1,1,0,0,1-.17-.56,1.11,1.11,0,0,1,.35-.86,1.48,1.48,0,0,1,1.81,0A1.11,1.11,0,0,1,138.33,356.91Zm-.44,2a.78.78,0,0,0-.23-.58.81.81,0,0,0-.59-.23.76.76,0,0,0-.81.81.78.78,0,0,0,.22.57.81.81,0,0,0,.6.21.8.8,0,0,0,.59-.21A.74.74,0,0,0,137.89,358.89Zm-.81-2.71a.7.7,0,0,0-.52.2.72.72,0,0,0-.2.53.74.74,0,0,0,.2.53.7.7,0,0,0,.52.2.69.69,0,0,0,.51-.2.74.74,0,0,0,.2-.53.76.76,0,0,0-.2-.53A.73.73,0,0,0,137.08,356.18Z"/>
      </g>
      <g>
        <path class="e" d="M175.4,358.08h-1.84v1.51h2.14v.46H173v-4.26h2.67v.46h-2.11v1.37h1.84Z"/>
        <path class="e" d="M178.93,358.23a2.4,2.4,0,0,1-.33,1.41,1.14,1.14,0,0,1-1,.47,1.16,1.16,0,0,1-1-.45,2.37,2.37,0,0,1-.34-1.35v-.72a2.41,2.41,0,0,1,.33-1.4,1.37,1.37,0,0,1,2,0,2.3,2.3,0,0,1,.34,1.35Zm-.54-.73a2,2,0,0,0-.2-1,.68.68,0,0,0-.61-.31.66.66,0,0,0-.6.31,2,2,0,0,0-.2,1v.87a2.06,2.06,0,0,0,.2,1,.68.68,0,0,0,.61.33.67.67,0,0,0,.59-.31,2,2,0,0,0,.21-1Z"/>
        <path class="e" d="M182.36,356.1l-1.76,3.95H180l1.75-3.81h-2.3v-.45h2.87Z"/>
      </g>
      <g>
        <path class="e" d="M210,358.08h-1.85v1.51h2.14v.46h-2.7v-4.26h2.67v.46h-2.11v1.37H210Z"/>
        <path class="e" d="M213.49,358.23a2.4,2.4,0,0,1-.33,1.41,1.14,1.14,0,0,1-1,.47,1.17,1.17,0,0,1-1-.45,2.37,2.37,0,0,1-.34-1.35v-.72a2.41,2.41,0,0,1,.33-1.4,1.15,1.15,0,0,1,1-.45,1.18,1.18,0,0,1,1,.44,2.39,2.39,0,0,1,.33,1.35Zm-.54-.73a2,2,0,0,0-.2-1,.75.75,0,0,0-1.21,0,2,2,0,0,0-.2,1v.87a2.06,2.06,0,0,0,.2,1,.73.73,0,0,0,1.21,0,2.15,2.15,0,0,0,.2-1Z"/>
        <path class="e" d="M216.3,355.79v.46h-.1a1.39,1.39,0,0,0-1,.38,1.55,1.55,0,0,0-.44,1,1.18,1.18,0,0,1,.92-.38,1.11,1.11,0,0,1,.89.39,1.52,1.52,0,0,1,.33,1,1.49,1.49,0,0,1-.36,1,1.31,1.31,0,0,1-1.95-.07,1.88,1.88,0,0,1-.38-1.21v-.21a2.81,2.81,0,0,1,.5-1.79,1.83,1.83,0,0,1,1.49-.64Zm-.71,1.92a.82.82,0,0,0-.51.17.84.84,0,0,0-.32.41v.2a1.4,1.4,0,0,0,.23.85.73.73,0,0,0,.59.32.69.69,0,0,0,.58-.27,1.1,1.1,0,0,0,.21-.7,1.11,1.11,0,0,0-.22-.71A.67.67,0,0,0,215.59,357.71Z"/>
      </g>
      <g>
        <path class="e" d="M230.57,350.77h-1.84v1.51h2.14v.46h-2.7v-4.26h2.67v.46h-2.11v1.37h1.84Z"/>
        <path class="e" d="M234.09,350.92a2.49,2.49,0,0,1-.32,1.41,1.17,1.17,0,0,1-1,.47,1.13,1.13,0,0,1-1-.46,2.33,2.33,0,0,1-.34-1.34v-.72a2.42,2.42,0,0,1,.32-1.4,1.18,1.18,0,0,1,1-.45,1.16,1.16,0,0,1,1,.44,2.39,2.39,0,0,1,.33,1.35Zm-.54-.74a2,2,0,0,0-.19-1,.76.76,0,0,0-1.22,0,2,2,0,0,0-.19,1V351a2,2,0,0,0,.2,1,.64.64,0,0,0,.6.32.65.65,0,0,0,.6-.31,2,2,0,0,0,.2-1Z"/>
        <path class="e" d="M235,350.61l.22-2.13h2.18v.5h-1.72l-.13,1.16a1.39,1.39,0,0,1,.71-.18,1.2,1.2,0,0,1,.92.38,1.52,1.52,0,0,1,.34,1,1.49,1.49,0,0,1-.35,1,1.48,1.48,0,0,1-1.91.06,1.22,1.22,0,0,1-.41-.86h.51a.75.75,0,0,0,.82.73.74.74,0,0,0,.59-.25,1.09,1.09,0,0,0,.21-.71,1,1,0,0,0-.23-.69.79.79,0,0,0-.62-.26.9.9,0,0,0-.55.16l-.15.12Z"/>
      </g>
      <g class="f">
        <line class="a" x1="277.83" y1="240.34" x2="287.47" y2="230.7"/>
      </g>
      <g class="f">
        <line class="a" x1="281.15" y1="257.62" x2="307.74" y2="231.03"/>
      </g>
      <g class="f">
        <line class="a" x1="301.09" y1="258.28" x2="316.38" y2="243"/>
      </g>
      <g class="f">
        <line class="a" x1="279.16" y1="280.22" x2="295.78" y2="263.6"/>
      </g>
      <g class="f">
        <line class="a" x1="291.12" y1="288.86" x2="316.38" y2="263.6"/>
      </g>
      <g class="f">
        <line class="a" x1="310.4" y1="290.19" x2="316.38" y2="284.21"/>
      </g>
      <g>
        <path class="e" d="M417.14,266.45H420V267h-2.2v1.79h2v.57h-2v2.43h-.7Z"/>
        <path class="e" d="M421.15,270a1.23,1.23,0,0,0,1.32,1.34,2.57,2.57,0,0,0,1.07-.2l.12.51a3.19,3.19,0,0,1-1.28.23,1.79,1.79,0,0,1-1.9-1.94,1.87,1.87,0,0,1,1.81-2.09,1.63,1.63,0,0,1,1.59,1.82,2.38,2.38,0,0,1,0,.33Zm2.06-.5a1,1,0,0,0-1-1.14,1.15,1.15,0,0,0-1.07,1.14Z"/>
        <path class="e" d="M424.66,271.11a1.85,1.85,0,0,0,.92.28c.51,0,.75-.26.75-.58s-.2-.52-.72-.71c-.69-.25-1-.63-1-1.09a1.19,1.19,0,0,1,1.33-1.14,2,2,0,0,1,1,.24l-.18.51a1.55,1.55,0,0,0-.79-.22c-.42,0-.65.24-.65.53s.23.46.74.65c.67.26,1,.59,1,1.17s-.53,1.15-1.44,1.15a2.19,2.19,0,0,1-1.09-.26Z"/>
        <path class="e" d="M428.76,266.85V268h1v.54h-1v2.08c0,.48.13.75.52.75a1.33,1.33,0,0,0,.41-.05l0,.53a1.85,1.85,0,0,1-.62.09,1,1,0,0,1-.76-.29,1.44,1.44,0,0,1-.27-1v-2.1h-.6V268h.6V267Z"/>
        <path class="e" d="M430.45,271.11a1.93,1.93,0,0,0,.93.28c.51,0,.75-.26.75-.58s-.2-.52-.72-.71c-.69-.25-1-.63-1-1.09a1.19,1.19,0,0,1,1.33-1.14,2,2,0,0,1,.95.24l-.17.51a1.55,1.55,0,0,0-.79-.22c-.42,0-.65.24-.65.53s.23.46.73.65c.68.26,1,.59,1,1.17s-.53,1.15-1.45,1.15a2.18,2.18,0,0,1-1.08-.26Z"/>
        <path class="e" d="M435.85,271.82l-.06-.48h0a1.45,1.45,0,0,1-1.18.57,1.09,1.09,0,0,1-1.18-1.11c0-.93.83-1.44,2.32-1.43v-.08a.8.8,0,0,0-.88-.9,1.92,1.92,0,0,0-1,.29l-.16-.46a2.4,2.4,0,0,1,1.27-.35c1.18,0,1.47.81,1.47,1.58v1.45a5.14,5.14,0,0,0,.07.92Zm-.11-2c-.76,0-1.63.12-1.63.87a.62.62,0,0,0,.66.67,1,1,0,0,0,.93-.64.62.62,0,0,0,0-.23Z"/>
        <path class="e" d="M439.69,271.82l-.05-.48h0a1.44,1.44,0,0,1-1.18.57,1.1,1.1,0,0,1-1.18-1.11c0-.93.83-1.44,2.32-1.43v-.08a.8.8,0,0,0-.88-.9,1.86,1.86,0,0,0-1,.29l-.16-.46a2.37,2.37,0,0,1,1.27-.35c1.18,0,1.47.81,1.47,1.58v1.45a5.2,5.2,0,0,0,.06.92Zm-.1-2c-.77,0-1.64.12-1.64.87a.62.62,0,0,0,.66.67,1,1,0,0,0,.94-.64.93.93,0,0,0,0-.23Z"/>
        <path class="e" d="M441.4,266.16h.7v5.66h-.7Z"/>
      </g>
      <polyline class="a" points="474.9 305.63 466.95 305.63 466.95 308.58"/>
      <rect class="g" x="393.15" y="245.99" width="73.78" height="44.53"/>
      <rect class="g" x="425.05" y="307.8" width="41.87" height="42.54"/>
      <rect class="g" x="384.51" y="307.8" width="40.54" height="42.54"/>
      <rect class="g" x="240.94" y="402.18" width="45.2" height="46.53"/>
      <rect class="g" x="240.94" y="448.71" width="45.2" height="37.22"/>
      <rect class="g" x="240.94" y="485.93" width="45.2" height="43.2"/>
      <rect class="g" x="241.21" y="529.13" width="43.2" height="39.21"/>
      <rect class="g" x="183.78" y="485.27" width="43.2" height="43.87"/>
      <rect class="g" x="183.78" y="449.37" width="43.2" height="35.89"/>
      <rect class="g" x="128.61" y="397.53" width="46.53" height="44.53"/>
      <rect class="g" x="78.1" y="397.53" width="50.51" height="44.53"/>
      <rect class="g" x="78.1" y="338.38" width="37.89" height="43.87"/>
      <rect class="g" x="115.98" y="338.38" width="35.89" height="43.87"/>
      <rect class="g" x="151.88" y="338.38" width="48.52" height="43.87"/>
      <rect class="g" x="201.06" y="338.38" width="22.6" height="43.87"/>
      <rect class="g" x="223.66" y="338.38" width="18.61" height="23.26"/>
      <polygon class="g" points="284.85 568.61 284.85 604.5 243.64 604.5 243.64 580.57 241.64 580.57 241.64 568.61 284.85 568.61"/>
      <polygon class="g" points="224.04 579.27 224.04 585.91 226.03 585.91 226.03 603.86 184.82 603.86 184.82 554.68 227.36 554.68 227.36 579.27 224.04 579.27"/>
    </g>
    <line class="a" x1="268.46" y1="314.38" x2="260.54" y2="322.01"/>
    <rect class="g" width="569" height="692"/>
  </g>
</svg>
