<?xml version="1.0" encoding="utf-8"?>
<!-- Generator: Adobe Illustrator 22.1.0, SVG Export Plug-In . SVG Version: 6.00 Build 0)  -->
<svg version="1.1" id="Ebene_1" xmlns="http://www.w3.org/2000/svg" xmlns:xlink="http://www.w3.org/1999/xlink" x="0px" y="0px"
	 viewBox="0 0 569 692" style="enable-background:new 0 0 569 692;" xml:space="preserve">
<style type="text/css">
	.st0{fill:none;stroke:#000000;stroke-width:0.5;stroke-miterlimit:10;}
	.st1{opacity:0.3;fill:none;stroke:#000000;stroke-width:0.5;stroke-miterlimit:10;enable-background:new    ;}
	.st2{opacity:0.31;fill:none;stroke:#000000;stroke-width:0.5;stroke-miterlimit:10;enable-background:new    ;}
	.st3{fill:#FFFFFF;}
	.st4{fill:none;}
</style>
<title>secondfloor</title>
<polyline class="st0" points="165.9,338.7 165.9,228.1 278.5,228.1 "/>
<line class="st1" x1="213.6" y1="433" x2="203.9" y2="423.3"/>
<line class="st1" x1="214.7" y1="432.1" x2="204.9" y2="422.3"/>
<line class="st0" x1="224.4" y1="421.8" x2="221.9" y2="419.3"/>
<line class="st1" x1="210.5" y1="436" x2="200.8" y2="426.4"/>
<line class="st1" x1="211.5" y1="435" x2="201.8" y2="425.4"/>
<line class="st1" x1="202.1" y1="444" x2="192.6" y2="434.6"/>
<line class="st1" x1="203.1" y1="443" x2="193.6" y2="433.5"/>
<line class="st0" x1="451" y1="290.4" x2="472.6" y2="290.4"/>
<line class="st0" x1="332.5" y1="324.2" x2="342.2" y2="324.2"/>
<line class="st0" x1="398" y1="307.8" x2="435.6" y2="307.8"/>
<line class="st0" x1="440.4" y1="307.8" x2="472.6" y2="307.8"/>
<line class="st0" x1="210.4" y1="407.8" x2="207.9" y2="405.3"/>
<line class="st0" x1="262" y1="390.4" x2="262" y2="383.1"/>
<line class="st1" x1="212.6" y1="434" x2="202.8" y2="424.3"/>
<polyline class="st0" points="175.9,444 184.6,451.9 185,452.2 "/>
<line class="st1" x1="206.3" y1="440" x2="196.7" y2="430.5"/>
<line class="st1" x1="207.3" y1="439" x2="197.7" y2="429.5"/>
<line class="st1" x1="204.1" y1="442" x2="194.6" y2="432.5"/>
<line class="st1" x1="205.1" y1="441" x2="195.6" y2="431.5"/>
<line class="st1" x1="209.4" y1="437" x2="199.8" y2="427.4"/>
<line class="st1" x1="208.4" y1="438" x2="198.7" y2="428.4"/>
<line class="st0" x1="305.5" y1="294" x2="305.5" y2="287.2"/>
<line class="st0" x1="305.5" y1="306.8" x2="305.5" y2="298.8"/>
<line class="st0" x1="352.7" y1="307.8" x2="393.2" y2="307.8"/>
<line class="st0" x1="321.8" y1="204.2" x2="321.8" y2="223.5"/>
<line class="st0" x1="337.3" y1="212.8" x2="337.3" y2="226.6"/>
<line class="st0" x1="321.8" y1="164" x2="321.8" y2="199.4"/>
<line class="st0" x1="321.8" y1="228.3" x2="321.8" y2="267.9"/>
<line class="st0" x1="152.6" y1="405.5" x2="152.6" y2="444"/>
<line class="st0" x1="152.6" y1="398.6" x2="152.6" y2="401.3"/>
<line class="st0" x1="242.7" y1="421.1" x2="289.1" y2="421.1"/>
<line class="st1" x1="360.8" y1="267.9" x2="351.8" y2="259"/>
<line class="st1" x1="376.9" y1="269.7" x2="359" y2="251.8"/>
<line class="st1" x1="373.8" y1="272.8" x2="355.9" y2="254.9"/>
<line class="st1" x1="372.8" y1="273.8" x2="354.9" y2="255.9"/>
<line class="st1" x1="375.9" y1="270.7" x2="358" y2="252.8"/>
<line class="st1" x1="374.9" y1="271.7" x2="356.9" y2="253.9"/>
<line class="st1" x1="383" y1="263.5" x2="374.2" y2="254.7"/>
<line class="st1" x1="382" y1="264.5" x2="373" y2="255.6"/>
<line class="st0" x1="382.8" y1="239.2" x2="337.3" y2="239.2"/>
<line class="st1" x1="379" y1="267.6" x2="361" y2="249.7"/>
<line class="st1" x1="377.9" y1="268.7" x2="360" y2="250.8"/>
<line class="st1" x1="381" y1="265.6" x2="363.1" y2="247.7"/>
<line class="st1" x1="380" y1="266.6" x2="362" y2="248.7"/>
<line class="st1" x1="371.8" y1="274.8" x2="353.9" y2="256.9"/>
<line class="st1" x1="370.8" y1="275.8" x2="352.8" y2="258"/>
<line class="st0" x1="342.9" y1="267.9" x2="371.6" y2="239.2"/>
<polyline class="st0" points="342.9,267.9 337.3,262.3 337.3,251.5 337.3,241 337.3,231.3 "/>
<line class="st1" x1="373" y1="255.6" x2="364.1" y2="246.7"/>
<line class="st1" x1="260.1" y1="321" x2="274.6" y2="335.6"/>
<rect x="111.3" y="243.1" class="st1" width="12.6" height="12.6"/>
<line class="st1" x1="360.8" y1="267.9" x2="374.5" y2="254.3"/>
<polyline class="st1" points="111.3,329 123.9,329 123.9,316.5 111.3,316.5 111.3,329 "/>
<line class="st1" x1="121.5" y1="245.5" x2="123.9" y2="243.1"/>
<line class="st1" x1="111.3" y1="316.5" x2="113.8" y2="318.9"/>
<polyline class="st1" points="121.5,326.6 113.8,326.6 113.8,318.9 121.5,318.9 121.5,326.6 "/>
<line class="st1" x1="111.3" y1="243.1" x2="113.8" y2="245.5"/>
<polyline class="st1" points="121.5,253.2 113.8,253.2 113.8,245.5 121.5,245.5 121.5,253.2 "/>
<line class="st1" x1="123.9" y1="255.6" x2="121.5" y2="253.2"/>
<line class="st1" x1="111.3" y1="255.6" x2="113.8" y2="253.2"/>
<line class="st2" x1="261.1" y1="322" x2="271.4" y2="312.6"/>
<line class="st2" x1="250.9" y1="331.4" x2="261.1" y2="322"/>
<line class="st2" x1="254" y1="334.5" x2="274.5" y2="315.8"/>
<line class="st2" x1="251.9" y1="332.4" x2="272.4" y2="313.7"/>
<line class="st2" x1="260.1" y1="321" x2="270.3" y2="311.6"/>
<line class="st2" x1="261.3" y1="341.8" x2="281.8" y2="323"/>
<line class="st2" x1="260.2" y1="340.7" x2="280.8" y2="322"/>
<line class="st2" x1="264.4" y1="344.9" x2="274.6" y2="335.6"/>
<line class="st2" x1="262.3" y1="342.8" x2="282.9" y2="324.1"/>
<line class="st2" x1="256.1" y1="336.6" x2="276.6" y2="317.8"/>
<line class="st2" x1="255" y1="335.5" x2="275.6" y2="316.8"/>
<line class="st2" x1="259.2" y1="339.7" x2="279.7" y2="321"/>
<line class="st2" x1="258.2" y1="338.6" x2="278.7" y2="319.9"/>
<line class="st0" x1="278.5" y1="215.9" x2="321.8" y2="215.9"/>
<line class="st0" x1="278.5" y1="179.2" x2="321.8" y2="179.2"/>
<line class="st0" x1="382.6" y1="307.8" x2="382.6" y2="351.2"/>
<line class="st0" x1="337.3" y1="221.6" x2="382.8" y2="221.6"/>
<line class="st0" x1="337.3" y1="140.6" x2="337.3" y2="208.1"/>
<line class="st0" x1="321.8" y1="140.6" x2="321.8" y2="159.2"/>
<line class="st0" x1="424" y1="307.8" x2="424" y2="351.2"/>
<line class="st0" x1="278.5" y1="249.6" x2="321.8" y2="249.6"/>
<polyline class="st0" points="278.5,287.2 321.8,287.2 321.8,272.7 "/>
<polyline class="st0" points="278.7,306.8 271.8,313.1 265.6,306.8 284.9,326.2 "/>
<polyline class="st0" points="80.4,338.7 80.4,143.6 278.5,143.6 "/>
<polyline class="st0" points="168.3,338.7 168.3,230.5 278.5,230.5 "/>
<line class="st0" x1="321.9" y1="324.2" x2="327.6" y2="324.2"/>
<polyline class="st0" points="77.5,338.7 77.5,140.6 278.5,140.6 "/>
<polyline class="st0" points="446.2,290.4 389,290.4 374.3,290.4 365.4,290.4 360.8,285.8 "/>
<polyline class="st0" points="390.5,246.9 472.6,246.9 472.6,290.4 472.6,307.8 472.6,351.2 321.9,351.2 "/>
<line class="st0" x1="244.6" y1="362.3" x2="244.6" y2="338.7"/>
<line class="st0" x1="278.5" y1="306.8" x2="278.5" y2="140.6"/>
<line class="st0" x1="390.5" y1="246.9" x2="390.5" y2="290.4"/>
<line class="st0" x1="360.8" y1="285.8" x2="390.5" y2="256.1"/>
<line class="st2" x1="257.1" y1="337.6" x2="277.6" y2="318.9"/>
<line class="st2" x1="263.4" y1="343.9" x2="283.9" y2="325.1"/>
<line class="st2" x1="252.9" y1="333.5" x2="273.5" y2="314.7"/>
<line class="st1" x1="111.3" y1="329" x2="113.8" y2="326.6"/>
<line class="st0" x1="77.5" y1="398.6" x2="95.9" y2="398.6"/>
<line class="st0" x1="128.7" y1="398.6" x2="128.7" y2="444"/>
<line class="st0" x1="128.7" y1="398.6" x2="137.4" y2="398.6"/>
<line class="st0" x1="173.2" y1="383.1" x2="211.8" y2="383.1"/>
<line class="st0" x1="188.6" y1="338.7" x2="188.6" y2="383.1"/>
<polyline class="st0" points="225.3,338.7 225.3,383.1 216.6,383.1 "/>
<line class="st0" x1="100.7" y1="398.6" x2="128.7" y2="398.6"/>
<line class="st0" x1="77.5" y1="338.7" x2="244.6" y2="338.7"/>
<line class="st0" x1="152.9" y1="338.7" x2="152.9" y2="383.1"/>
<line class="st0" x1="116.2" y1="338.7" x2="116.2" y2="383.1"/>
<line class="st0" x1="225.3" y1="362.3" x2="231.1" y2="362.3"/>
<line class="st0" x1="236" y1="362.3" x2="244.6" y2="362.3"/>
<line class="st0" x1="145.1" y1="383.1" x2="168.3" y2="383.1"/>
<polyline class="st0" points="77.5,338.7 77.5,444 175.9,444 "/>
<line class="st0" x1="77.5" y1="383.1" x2="95.9" y2="383.1"/>
<line class="st0" x1="100.7" y1="383.1" x2="140.3" y2="383.1"/>
<line class="st0" x1="175.9" y1="398.6" x2="175.9" y2="444"/>
<line class="st1" x1="188.9" y1="420.7" x2="197.8" y2="429.6"/>
<line class="st1" x1="185.7" y1="423.6" x2="194.7" y2="432.6"/>
<line class="st1" x1="184.7" y1="424.6" x2="193.6" y2="433.5"/>
<line class="st1" x1="187.9" y1="421.7" x2="196.8" y2="430.6"/>
<line class="st1" x1="186.8" y1="422.6" x2="195.7" y2="431.6"/>
<line class="st1" x1="192.3" y1="434.8" x2="206.3" y2="421.6"/>
<line class="st1" x1="195.3" y1="414.7" x2="204.2" y2="423.6"/>
<line class="st1" x1="197.4" y1="412.8" x2="206.3" y2="421.6"/>
<line class="st1" x1="196.3" y1="413.8" x2="205.2" y2="422.6"/>
<line class="st1" x1="194.2" y1="415.7" x2="203.1" y2="424.6"/>
<line class="st0" x1="242.7" y1="416.5" x2="242.7" y2="441.1"/>
<polyline class="st0" points="227.2,424.6 217.2,433.9 215,431.7 194.9,450.7 "/>
<polyline class="st0" points="207.9,405.3 201.2,398.6 200.1,398.6 179.9,398.6 142.3,398.6 "/>
<line class="st0" x1="206.7" y1="404.1" x2="175.9" y2="432.9"/>
<line class="st1" x1="191" y1="418.7" x2="199.9" y2="427.6"/>
<line class="st1" x1="190" y1="419.7" x2="198.9" y2="428.6"/>
<line class="st1" x1="193.2" y1="416.7" x2="202.1" y2="425.6"/>
<line class="st1" x1="192.1" y1="417.7" x2="201" y2="426.6"/>
<polyline class="st0" points="289.1,449.3 289.1,383.1 289.1,403.4 268.8,403.4 271.6,403.4 271.6,395.2 "/>
<line class="st1" x1="221.5" y1="169.6" x2="223.9" y2="172"/>
<polyline class="st1" points="231.6,179.8 223.9,179.8 223.9,172 231.6,172 231.6,179.8 "/>
<line class="st1" x1="234" y1="182.2" x2="231.6" y2="179.8"/>
<line class="st1" x1="221.5" y1="182.2" x2="223.9" y2="179.8"/>
<line class="st1" x1="270.7" y1="182.2" x2="268.3" y2="179.8"/>
<line class="st1" x1="258.2" y1="182.2" x2="260.6" y2="179.8"/>
<rect x="221.5" y="169.6" class="st1" width="12.6" height="12.6"/>
<line class="st1" x1="268.3" y1="172" x2="270.7" y2="169.6"/>
<line class="st1" x1="123.9" y1="218.9" x2="121.5" y2="216.5"/>
<line class="st1" x1="111.3" y1="218.9" x2="113.8" y2="216.5"/>
<line class="st1" x1="123.9" y1="329" x2="121.5" y2="326.6"/>
<line class="st1" x1="121.5" y1="208.8" x2="123.9" y2="206.3"/>
<rect x="111.3" y="206.3" class="st1" width="12.6" height="12.6"/>
<line class="st1" x1="231.6" y1="172" x2="234" y2="169.6"/>
<line class="st1" x1="111.3" y1="206.3" x2="113.8" y2="208.8"/>
<polyline class="st1" points="121.5,216.5 113.8,216.5 113.8,208.8 121.5,208.8 121.5,216.5 "/>
<line class="st1" x1="123.9" y1="292.3" x2="121.5" y2="289.9"/>
<line class="st1" x1="111.3" y1="292.3" x2="113.8" y2="289.9"/>
<rect x="184.8" y="169.6" class="st1" width="12.6" height="12.6"/>
<line class="st1" x1="121.5" y1="282.2" x2="123.9" y2="279.8"/>
<rect x="111.3" y="279.8" class="st1" width="12.6" height="12.6"/>
<line class="st1" x1="121.5" y1="318.9" x2="123.9" y2="316.5"/>
<line class="st1" x1="111.3" y1="279.8" x2="113.8" y2="282.2"/>
<polyline class="st1" points="121.5,289.9 113.8,289.9 113.8,282.2 121.5,282.2 121.5,289.9 "/>
<rect x="258.2" y="169.6" class="st1" width="12.5" height="12.6"/>
<line class="st1" x1="194.9" y1="172" x2="197.3" y2="169.6"/>
<line class="st1" x1="258.2" y1="169.6" x2="260.6" y2="172"/>
<polyline class="st1" points="268.3,179.8 260.6,179.8 260.6,172 268.3,172 268.3,179.8 "/>
<line class="st1" x1="184.8" y1="169.6" x2="187.2" y2="172"/>
<polyline class="st1" points="194.9,179.8 187.2,179.8 187.2,172 194.9,172 194.9,179.8 "/>
<line class="st1" x1="197.3" y1="182.2" x2="194.9" y2="179.8"/>
<line class="st1" x1="184.8" y1="182.2" x2="187.2" y2="179.8"/>
<rect x="111.3" y="169.6" class="st1" width="12.6" height="12.6"/>
<line class="st0" x1="244.6" y1="362.3" x2="251.3" y2="370.3"/>
<polyline class="st0" points="278.5,140.6 382.8,140.6 382.8,239.2 "/>
<polyline class="st0" points="271.6,390.4 271.6,383.1 289.1,383.1 262,383.1 257.9,378.2 258.9,379.4 242.7,389 242.7,403.4 
	242.7,408.7 242.7,403.4 264,403.4 262.1,403.4 262,395.2 "/>
<polyline class="st1" points="321.9,351.2 321.9,365.9 304.3,383.1 289.1,383.1 "/>
<polyline class="st0" points="319.1,321.2 321.9,324.2 321.9,351.2 "/>
<polyline class="st0" points="308.6,310.1 305.5,306.8 278.5,306.8 264.9,306.8 244.6,325.2 244.6,338.7 244.6,338.6 251.7,332.1 
	244.6,325.2 264.4,344.9 "/>
<line class="st1" x1="158.2" y1="172" x2="160.6" y2="169.6"/>
<line class="st1" x1="160.6" y1="182.2" x2="158.2" y2="179.8"/>
<line class="st0" x1="382.8" y1="239.2" x2="390.5" y2="246.9"/>
<line class="st0" x1="360.8" y1="285.8" x2="358.1" y2="283.1"/>
<line class="st0" x1="346.6" y1="271.5" x2="342.9" y2="267.9"/>
<rect x="148.1" y="206.3" class="st1" width="12.6" height="12.6"/>
<line class="st1" x1="121.5" y1="172" x2="123.9" y2="169.6"/>
<line class="st1" x1="148.1" y1="206.3" x2="150.5" y2="208.8"/>
<polyline class="st1" points="158.2,216.5 150.5,216.5 150.5,208.8 158.2,208.8 158.2,216.5 "/>
<line class="st1" x1="111.3" y1="169.6" x2="113.8" y2="172"/>
<polyline class="st1" points="121.5,179.8 113.8,179.8 113.8,172 121.5,172 121.5,179.8 "/>
<line class="st1" x1="123.9" y1="182.2" x2="121.5" y2="179.8"/>
<line class="st1" x1="111.3" y1="182.2" x2="113.8" y2="179.8"/>
<line class="st1" x1="148.1" y1="218.9" x2="150.5" y2="216.5"/>
<polyline class="st1" points="158.2,179.8 150.5,179.8 150.5,172 158.2,172 158.2,179.8 "/>
<rect x="148.1" y="169.6" class="st1" width="12.6" height="12.6"/>
<line class="st1" x1="148.1" y1="182.2" x2="150.5" y2="179.8"/>
<line class="st1" x1="148.1" y1="169.6" x2="150.5" y2="172"/>
<line class="st1" x1="160.6" y1="218.9" x2="158.2" y2="216.5"/>
<line class="st1" x1="158.2" y1="208.8" x2="160.6" y2="206.3"/>
<polyline class="st0" points="229.4,464.9 229.4,448.5 229.2,434.3 229.2,426.6 224.4,421.8 "/>
<line class="st0" x1="242.8" y1="464.3" x2="242.8" y2="508.5"/>
<line class="st0" x1="242.8" y1="444.7" x2="242.8" y2="459.5"/>
<line class="st0" x1="229.4" y1="469.7" x2="229.4" y2="499.9"/>
<line class="st0" x1="228.7" y1="570.9" x2="185.1" y2="570.9"/>
<line class="st0" x1="253.5" y1="449.5" x2="289.1" y2="449.5"/>
<line class="st1" x1="236.9" y1="593.3" x2="245.8" y2="593.3"/>
<line class="st1" x1="236.9" y1="591.8" x2="245.8" y2="591.8"/>
<polyline class="st0" points="228.7,544.3 228.7,557.8 228.7,559.9 228.7,570.9 "/>
<line class="st1" x1="236.9" y1="602.4" x2="245.8" y2="602.4"/>
<line class="st1" x1="236.9" y1="600.9" x2="245.8" y2="600.9"/>
<line class="st1" x1="236.9" y1="605.5" x2="245.8" y2="605.5"/>
<line class="st1" x1="236.9" y1="603.9" x2="245.8" y2="603.9"/>
<line class="st1" x1="236.9" y1="596.4" x2="245.8" y2="596.4"/>
<line class="st1" x1="236.9" y1="594.8" x2="245.8" y2="594.8"/>
<line class="st1" x1="236.9" y1="599.4" x2="245.8" y2="599.4"/>
<line class="st1" x1="236.9" y1="597.9" x2="245.8" y2="597.9"/>
<polyline class="st0" points="243.8,572.1 243.8,559.9 243.8,557.8 243.8,552.1 "/>
<line class="st0" x1="287.4" y1="570.9" x2="243.8" y2="570.9"/>
<line class="st1" x1="236.9" y1="607" x2="245.8" y2="607"/>
<polyline class="st0" points="289.1,449.7 289.1,531.3 242.8,531.3 242.8,513.3 "/>
<polyline class="st0" points="185.1,531.3 229.4,531.3 229.4,504.6 "/>
<line class="st0" x1="243.5" y1="582.8" x2="243.8" y2="582.8"/>
<line class="st0" x1="287.4" y1="535.8" x2="287.4" y2="533.7"/>
<line class="st1" x1="235.5" y1="591.8" x2="226.6" y2="591.8"/>
<line class="st1" x1="226.6" y1="593.3" x2="235.5" y2="593.3"/>
<line class="st1" x1="226.6" y1="607" x2="235.5" y2="607"/>
<line class="st1" x1="235.5" y1="591.8" x2="236.9" y2="591.8"/>
<line class="st1" x1="226.6" y1="602.4" x2="235.5" y2="602.4"/>
<line class="st1" x1="226.6" y1="600.9" x2="235.5" y2="600.9"/>
<line class="st1" x1="226.6" y1="605.5" x2="235.5" y2="605.5"/>
<line class="st1" x1="226.6" y1="603.9" x2="235.5" y2="603.9"/>
<line class="st0" x1="243.8" y1="531.3" x2="243.8" y2="547"/>
<line class="st0" x1="228.7" y1="531.3" x2="228.7" y2="540.1"/>
<line class="st0" x1="228.7" y1="570.9" x2="228.7" y2="572.1"/>
<line class="st1" x1="236.9" y1="591.8" x2="236.9" y2="608.5"/>
<line class="st1" x1="235.5" y1="591.8" x2="235.5" y2="608.5"/>
<line class="st1" x1="226.6" y1="596.4" x2="235.5" y2="596.4"/>
<line class="st1" x1="226.6" y1="594.8" x2="235.5" y2="594.8"/>
<line class="st1" x1="226.6" y1="599.4" x2="235.5" y2="599.4"/>
<line class="st1" x1="226.6" y1="597.9" x2="235.5" y2="597.9"/>
<polyline class="st0" points="229.4,450.4 185.1,450.8 185.1,531.3 185.1,605.6 185.1,607.8 226.6,607.8 226.6,589.5 224.7,589.5 
	224.7,582.8 228.9,582.8 232.4,582.8 228.7,582.8 228.7,577.2 "/>
<polyline class="st0" points="243.8,577.2 243.8,582.8 240.1,582.8 243.5,582.8 245.8,582.8 243.8,582.8 245.8,582.8 245.8,607.8 
	287.4,607.8 287.4,605.6 287.4,605.5 287.4,607.8 287.4,601.3 287.4,531.3 "/>
<line class="st0" x1="242.8" y1="487" x2="289.1" y2="487"/>
<line class="st0" x1="242.8" y1="449.5" x2="248.7" y2="449.5"/>
<line class="st0" x1="185.1" y1="487" x2="229.4" y2="487"/>
<g>
	<path class="st3" d="M359.5,337.5H359v-3.2l-1,0.4v-0.4l1.4-0.5h0.1L359.5,337.5z"/>
	<path class="st3" d="M361.6,335.3h0.4c0.2,0,0.4-0.1,0.5-0.2c0.1-0.1,0.2-0.3,0.2-0.5c0.1-0.3-0.1-0.6-0.5-0.7c0,0,0,0,0,0
		c-0.1,0-0.2,0-0.3,0c-0.2,0-0.4,0.1-0.5,0.2c-0.1,0.1-0.2,0.3-0.2,0.5h-0.5c0-0.3,0.1-0.6,0.3-0.7c0.2-0.2,0.5-0.3,0.8-0.3
		c0.3,0,0.6,0.1,0.8,0.3c0.2,0.2,0.3,0.5,0.3,0.8c0,0.2-0.1,0.3-0.1,0.5c-0.1,0.2-0.3,0.3-0.4,0.3c0.2,0.1,0.4,0.2,0.5,0.3
		c0.1,0.2,0.2,0.4,0.2,0.5c0,0.3-0.1,0.6-0.3,0.8c-0.2,0.2-0.5,0.3-0.9,0.3c-0.3,0-0.6-0.1-0.9-0.3c-0.2-0.2-0.3-0.5-0.3-0.8h0.5
		c0,0.2,0.1,0.4,0.2,0.5c0.3,0.2,0.7,0.2,1,0c0.1-0.1,0.2-0.3,0.2-0.5c0-0.2-0.1-0.4-0.2-0.5c-0.2-0.1-0.4-0.2-0.6-0.2h-0.4
		L361.6,335.3z"/>
	<path class="st3" d="M366.4,337.5h-2.5v-0.4l1.3-1.5c0.1-0.2,0.3-0.3,0.4-0.5c0.1-0.1,0.1-0.3,0.1-0.4c0-0.2-0.1-0.4-0.2-0.5
		c-0.1-0.1-0.3-0.2-0.5-0.2c-0.2,0-0.4,0.1-0.6,0.2c-0.1,0.2-0.2,0.4-0.2,0.6h-0.5c0-0.3,0.1-0.6,0.3-0.9c0.2-0.2,0.6-0.3,0.9-0.3
		c0.3,0,0.6,0.1,0.8,0.3c0.2,0.2,0.3,0.5,0.3,0.7c-0.1,0.5-0.3,1-0.7,1.3l-1,1.1h1.9L366.4,337.5z"/>
</g>
<g>
	<path class="st3" d="M400.8,337.5h-0.5v-3.2l-1,0.4v-0.4l1.4-0.5h0.1L400.8,337.5z"/>
	<path class="st3" d="M402.9,335.3h0.4c0.2,0,0.4-0.1,0.5-0.2c0.1-0.1,0.2-0.3,0.2-0.5c0-0.3-0.2-0.6-0.5-0.7c0,0,0,0,0,0h-0.2
		c-0.2,0-0.4,0.1-0.5,0.2c-0.1,0.1-0.2,0.3-0.2,0.5h-0.5c0-0.3,0.1-0.6,0.3-0.7c0.2-0.2,0.5-0.3,0.8-0.3c0.3,0,0.6,0.1,0.8,0.3
		c0.2,0.2,0.3,0.5,0.3,0.8c0,0.2-0.1,0.3-0.2,0.5c-0.1,0.2-0.3,0.3-0.4,0.3c0.2,0.1,0.4,0.2,0.5,0.3c0.1,0.2,0.2,0.4,0.2,0.5
		c0,0.3-0.1,0.6-0.3,0.8c-0.2,0.2-0.5,0.3-0.9,0.3c-0.3,0-0.6-0.1-0.9-0.3c-0.2-0.2-0.4-0.5-0.3-0.8h0.5c0,0.2,0.1,0.4,0.2,0.5
		c0.3,0.2,0.7,0.2,1,0c0.1-0.1,0.2-0.3,0.2-0.5c0-0.2-0.1-0.4-0.2-0.5c-0.2-0.1-0.4-0.2-0.6-0.2h-0.4L402.9,335.3z"/>
	<path class="st3" d="M405.9,335.3h0.4c0.2,0,0.4-0.1,0.5-0.2c0.1-0.1,0.2-0.3,0.2-0.5c0-0.3-0.2-0.6-0.5-0.7c0,0,0,0,0,0h-0.2
		c-0.2,0-0.4,0.1-0.5,0.2c-0.1,0.1-0.2,0.3-0.2,0.5h-0.5c0-0.3,0.1-0.6,0.3-0.7c0.2-0.2,0.5-0.3,0.8-0.3c0.3,0,0.6,0.1,0.8,0.3
		c0.2,0.2,0.3,0.5,0.3,0.8c0,0.2-0.1,0.3-0.2,0.5c-0.1,0.2-0.3,0.3-0.4,0.3c0.2,0.1,0.4,0.2,0.5,0.3c0.1,0.2,0.2,0.4,0.2,0.5
		c0,0.3-0.1,0.6-0.3,0.8c-0.2,0.2-0.5,0.3-0.9,0.3c-0.3,0-0.6-0.1-0.9-0.3c-0.2-0.2-0.4-0.5-0.3-0.8h0.5c0,0.2,0.1,0.4,0.2,0.5
		c0.3,0.2,0.7,0.2,1,0c0.1-0.1,0.2-0.3,0.2-0.5c0-0.2-0.1-0.4-0.2-0.5c-0.2-0.1-0.4-0.2-0.6-0.2h-0.4L405.9,335.3z"/>
</g>
<g>
	<path class="st3" d="M444.5,337.5H444v-3.2l-1,0.4v-0.4l1.4-0.5h0.1L444.5,337.5z"/>
	<path class="st3" d="M446.5,335.3h0.4c0.2,0,0.4-0.1,0.5-0.2c0.1-0.1,0.2-0.3,0.2-0.5c0.1-0.3-0.1-0.6-0.5-0.7c0,0,0,0,0,0
		c-0.1,0-0.1,0-0.2,0c-0.2,0-0.4,0.1-0.5,0.2c-0.1,0.1-0.2,0.3-0.2,0.5h-0.5c0-0.3,0.1-0.5,0.3-0.7c0.5-0.4,1.2-0.4,1.7,0
		c0.2,0.2,0.3,0.5,0.3,0.8c0,0.2-0.1,0.3-0.2,0.5c-0.2-0.1-0.4,0-0.4,0.2c0,0,0,0,0,0c-0.1,0.2,0.1,0.4,0.2,0.4c0.1,0,0.1,0,0.2,0
		c0.1,0.2,0.2,0.4,0.2,0.5c0,0.3-0.1,0.6-0.3,0.8c-0.2,0.2-0.5,0.3-0.9,0.3c-0.3,0-0.6-0.1-0.9-0.3c-0.2-0.2-0.4-0.5-0.3-0.8h0.5
		c0,0.2,0.1,0.4,0.2,0.5c0.3,0.2,0.7,0.2,1,0c0.1-0.1,0.2-0.3,0.2-0.5c0-0.2-0.1-0.4-0.2-0.5c-0.2-0.1-0.4-0.2-0.6-0.2h-0.4
		L446.5,335.3z"/>
	<path class="st3" d="M450.9,336.2h0.5v0.4h-0.5v0.9h-0.5v-0.9h-1.7v-0.3l1.7-2.6h0.5L450.9,336.2z M449.2,336.2h1.2v-1.9l0,0.1
		L449.2,336.2z"/>
</g>
<g>
	<path class="st3" d="M429,270.7h-0.5v-3.2l-1,0.4v-0.4l1.4-0.5h0.1V270.7z"/>
	<path class="st3" d="M431.1,268.6h0.4c0.2,0,0.4-0.1,0.5-0.2c0.1-0.1,0.2-0.3,0.2-0.5c0-0.3-0.2-0.6-0.5-0.7c0,0,0,0,0,0
		c-0.1,0-0.1,0-0.2,0c-0.2,0-0.4,0.1-0.5,0.2c-0.1,0.1-0.2,0.3-0.2,0.5h-0.5c0-0.3,0.1-0.6,0.3-0.8c0.2-0.2,0.5-0.3,0.8-0.3
		c0.3,0,0.6,0.1,0.8,0.3c0.2,0.2,0.3,0.5,0.3,0.8c0,0.2-0.1,0.3-0.2,0.5c-0.1,0.2-0.3,0.3-0.4,0.4c0.2,0,0.4,0.2,0.5,0.3
		c0.1,0.2,0.2,0.4,0.2,0.6c0,0.3-0.1,0.6-0.3,0.8c-0.2,0.2-0.5,0.3-0.9,0.3c-0.3,0-0.6-0.1-0.9-0.3c-0.2-0.2-0.3-0.5-0.3-0.8h0.5
		c0,0.2,0.1,0.4,0.2,0.5c0.3,0.2,0.7,0.2,1,0c0.1-0.1,0.2-0.3,0.2-0.5c0-0.2-0.1-0.4-0.2-0.5c-0.2-0.1-0.4-0.2-0.6-0.2h-0.4
		L431.1,268.6z"/>
	<path class="st3" d="M433.6,268.8l0.2-1.9h1.9v0.4h-1.5l-0.1,1c0.2-0.1,0.4-0.2,0.6-0.2c0.3,0,0.6,0.1,0.8,0.3
		c0.2,0.3,0.3,0.6,0.3,0.9c0,0.3-0.1,0.7-0.3,0.9c-0.2,0.2-0.6,0.4-0.9,0.3c-0.3,0-0.6-0.1-0.8-0.3c-0.2-0.2-0.3-0.5-0.4-0.8h0.5
		c0,0.2,0.1,0.4,0.2,0.5c0.1,0.1,0.3,0.2,0.5,0.2c0.2,0,0.4-0.1,0.5-0.2c0.1-0.2,0.2-0.4,0.2-0.6c0-0.2-0.1-0.4-0.2-0.6
		c-0.1-0.2-0.3-0.2-0.5-0.2c-0.2,0-0.4,0-0.5,0.1l-0.1,0.1L433.6,268.8z"/>
</g>
<g>
	<path class="st3" d="M356.8,232.3h-0.5v-3.2l-1,0.4v-0.4l1.4-0.5h0.1L356.8,232.3z"/>
	<path class="st3" d="M360.2,231.1h0.5v0.4h-0.5v0.9h-0.5v-0.9H358v-0.3l1.7-2.6h0.5L360.2,231.1z M358.6,231.1h1.2v-1.9l-0.1,0.1
		L358.6,231.1z"/>
	<path class="st3" d="M363.7,232.3h-2.5V232l1.3-1.4c0.2-0.2,0.3-0.3,0.4-0.5c0.1-0.1,0.1-0.3,0.1-0.4c0-0.2-0.1-0.3-0.2-0.5
		c-0.1-0.1-0.3-0.2-0.5-0.2c-0.2,0-0.4,0.1-0.6,0.2c-0.1,0.2-0.2,0.4-0.2,0.6h-0.5c0-0.3,0.1-0.6,0.3-0.8c0.2-0.2,0.6-0.3,0.9-0.3
		c0.3,0,0.6,0.1,0.8,0.3c0.2,0.2,0.3,0.5,0.3,0.7c-0.1,0.5-0.3,1-0.7,1.3l-1,1.1h1.9L363.7,232.3z"/>
</g>
<g>
	<path class="st3" d="M357.8,175.6h-0.5v-3.2l-1,0.4v-0.4l1.4-0.5h0.1L357.8,175.6z"/>
	<path class="st3" d="M361.2,174.3h0.5v0.4h-0.5v0.9h-0.5v-0.9H359v-0.3l1.7-2.6h0.5L361.2,174.3z M359.6,174.3h1.2v-1.9l-0.1,0.1
		L359.6,174.3z"/>
	<path class="st3" d="M362.9,173.5h0.4c0.2,0,0.4-0.1,0.5-0.2c0.3-0.3,0.3-0.7,0-0.9c-0.3-0.3-0.7-0.3-1,0c-0.1,0.1-0.2,0.3-0.2,0.5
		h-0.5c0-0.3,0.1-0.6,0.3-0.8c0.2-0.2,0.5-0.3,0.8-0.3c0.3,0,0.6,0.1,0.8,0.3c0.2,0.2,0.3,0.5,0.3,0.8c0,0.2-0.1,0.3-0.2,0.5
		c-0.2,0-0.4,0.1-0.4,0.3s0.1,0.4,0.3,0.4c0.1,0,0.1,0,0.2,0c0.1,0.2,0.2,0.4,0.2,0.6c0,0.3-0.1,0.6-0.3,0.8
		c-0.2,0.2-0.5,0.3-0.9,0.3c-0.3,0-0.6-0.1-0.9-0.3c-0.2-0.2-0.3-0.5-0.3-0.8h0.5c0,0.2,0.1,0.3,0.2,0.5c0.3,0.2,0.7,0.2,1.1,0
		c0.1-0.1,0.2-0.3,0.2-0.5c0-0.2-0.1-0.4-0.2-0.5c-0.2-0.1-0.4-0.2-0.6-0.2h-0.4L362.9,173.5z"/>
</g>
<g>
	<path class="st3" d="M297,160.2h-0.5V157l-1,0.4v-0.4l1.4-0.5h0.1V160.2z"/>
	<path class="st3" d="M300.4,158.9h0.5v0.4h-0.5v0.9h-0.5v-0.9h-1.7V159l1.7-2.6h0.5V158.9z M298.7,158.9h1.2v-1.9l-0.1,0.1
		L298.7,158.9z"/>
	<path class="st3" d="M303.4,158.9h0.5v0.4h-0.5v0.9h-0.5v-0.9h-1.7V159l1.7-2.6h0.5V158.9z M301.7,158.9h1.2v-1.9l-0.1,0.1
		L301.7,158.9z"/>
</g>
<g>
	<path class="st3" d="M297,195.6h-0.5v-3.2l-1,0.4v-0.4l1.4-0.5h0.1V195.6z"/>
	<path class="st3" d="M300.4,194.3h0.5v0.4h-0.5v0.9h-0.5v-0.9h-1.7v-0.3l1.7-2.6h0.5V194.3z M298.7,194.3h1.2v-1.9l-0.1,0.1
		L298.7,194.3z"/>
	<path class="st3" d="M301.6,193.7l0.2-1.9h1.9v0.4h-1.5l-0.1,1c0.2-0.1,0.4-0.2,0.6-0.2c0.3,0,0.6,0.1,0.8,0.3
		c0.4,0.5,0.4,1.3,0,1.8c-0.2,0.2-0.6,0.4-0.9,0.3c-0.3,0-0.6-0.1-0.8-0.3c-0.2-0.2-0.4-0.5-0.4-0.8h0.5c0,0.2,0.1,0.4,0.2,0.5
		c0.1,0.1,0.3,0.2,0.5,0.2c0.2,0,0.4-0.1,0.5-0.2c0.1-0.2,0.2-0.4,0.2-0.6c0-0.2-0.1-0.4-0.2-0.6c-0.1-0.2-0.3-0.2-0.5-0.2
		c-0.2,0-0.3,0-0.5,0.1l-0.1,0.1L301.6,193.7z"/>
</g>
<g>
	<path class="st3" d="M297,232.1h-0.5V229l-1,0.4v-0.4l1.4-0.5h0.1V232.1z"/>
	<path class="st3" d="M300.4,230.9h0.5v0.4h-0.5v0.9h-0.5v-0.9h-1.7V231l1.7-2.6h0.5V230.9z M298.7,230.9h1.2V229l-0.1,0.1
		L298.7,230.9z"/>
	<path class="st3" d="M303.2,228.4v0.4h-0.1c-0.3,0-0.7,0.1-0.9,0.3c-0.2,0.2-0.4,0.6-0.4,0.9c0.2-0.2,0.5-0.4,0.8-0.3
		c0.3,0,0.6,0.1,0.8,0.4c0.2,0.3,0.3,0.6,0.3,0.9c0,0.3-0.1,0.7-0.3,0.9c-0.5,0.5-1.2,0.5-1.6,0c0,0,0,0,0,0l-0.1-0.1
		c-0.2-0.3-0.3-0.7-0.3-1.1v-0.2c0-0.6,0.1-1.1,0.4-1.6C302.1,228.5,302.6,228.3,303.2,228.4L303.2,228.4z M302.6,230.1
		c-0.2,0-0.3,0-0.5,0.1c-0.1,0.1-0.2,0.2-0.3,0.4v0.2c0,0.3,0.1,0.5,0.2,0.8c0.1,0.2,0.3,0.3,0.5,0.3c0.2,0,0.4-0.1,0.5-0.2
		c0.3-0.4,0.3-0.9,0-1.3C303,230.2,302.8,230.1,302.6,230.1z"/>
</g>
<g>
	<path class="st3" d="M297,265.8h-0.5v-3.2l-1,0.4v-0.4l1.4-0.5h0.1V265.8z"/>
	<path class="st3" d="M300.4,264.5h0.5v0.4h-0.5v0.9h-0.5v-0.9h-1.7v-0.3l1.7-2.6h0.5V264.5z M298.7,264.5h1.2v-1.9l-0.1,0.1
		L298.7,264.5z"/>
	<path class="st3" d="M303.8,262.3l-1.6,3.5h-0.5l1.6-3.4h-2V262h2.6L303.8,262.3z"/>
</g>
<g>
	<path class="st3" d="M288.8,298.6h-0.5v-3.2l-1,0.4v-0.4l1.4-0.5h0.1L288.8,298.6z"/>
	<path class="st3" d="M292.2,297.3h0.5v0.4h-0.5v0.9h-0.5v-0.9H290v-0.3l1.7-2.6h0.5L292.2,297.3z M290.6,297.3h1.2v-1.9l-0.1,0.1
		L290.6,297.3z"/>
	<path class="st3" d="M295.5,295.8c0,0.2-0.1,0.4-0.1,0.5c-0.1,0.1-0.2,0.3-0.4,0.4c0.2,0.1,0.4,0.2,0.5,0.4
		c0.1,0.2,0.2,0.4,0.2,0.5c0,0.3-0.1,0.6-0.3,0.8c-0.5,0.4-1.2,0.4-1.7,0c-0.2-0.2-0.3-0.5-0.3-0.8c0-0.2,0.1-0.4,0.2-0.5
		c0.1-0.2,0.3-0.3,0.5-0.4c-0.2-0.1-0.3-0.2-0.4-0.3c-0.1-0.1-0.2-0.3-0.1-0.5c0-0.3,0.1-0.6,0.3-0.8c0.5-0.4,1.1-0.4,1.6,0
		C295.4,295.2,295.5,295.5,295.5,295.8z M295.1,297.6c0-0.2-0.1-0.4-0.2-0.5c-0.3-0.3-0.7-0.3-1,0c-0.1,0.1-0.2,0.3-0.2,0.5
		c0,0.2,0.1,0.4,0.2,0.5c0.1,0.1,0.3,0.2,0.5,0.2c0.2,0,0.4-0.1,0.5-0.2C295,297.9,295.1,297.8,295.1,297.6z M294.3,295.2
		c-0.2,0-0.3,0.1-0.5,0.2c-0.2,0.3-0.2,0.7,0,0.9c0.2,0.3,0.7,0.3,0.9,0c0.1-0.1,0.2-0.3,0.2-0.5c0-0.2-0.1-0.3-0.2-0.5
		C294.7,295.2,294.5,295.2,294.3,295.2L294.3,295.2z"/>
</g>
<g>
	<path class="st3" d="M330.4,337.5H330v-3.2l-1,0.4v-0.4l1.4-0.5h0.1V337.5z"/>
	<path class="st3" d="M332.5,335.3h0.4c0.2,0,0.4-0.1,0.5-0.2c0.3-0.3,0.2-0.7,0-1c-0.1-0.1-0.1-0.1-0.2-0.1H333
		c-0.2,0-0.4,0.1-0.5,0.2c-0.1,0.1-0.2,0.3-0.2,0.5h-0.5c0-0.3,0.1-0.6,0.3-0.8c0.2-0.2,0.5-0.3,0.8-0.3c0.3,0,0.6,0.1,0.8,0.3
		c0.2,0.2,0.3,0.5,0.3,0.8c0,0.2-0.1,0.3-0.1,0.5c-0.1,0.2-0.3,0.3-0.4,0.4c0.2,0,0.4,0.2,0.5,0.3c0.1,0.2,0.2,0.4,0.2,0.6
		c0,0.3-0.1,0.6-0.3,0.8c-0.2,0.2-0.5,0.3-0.9,0.3c-0.3,0-0.6-0.1-0.9-0.3c-0.2-0.2-0.3-0.5-0.3-0.8h0.5c0,0.2,0.1,0.4,0.2,0.5
		c0.1,0.1,0.3,0.2,0.5,0.2c0.2,0,0.4-0.1,0.5-0.2c0.1-0.1,0.2-0.3,0.2-0.5c0-0.2-0.1-0.4-0.2-0.5c-0.2-0.1-0.4-0.2-0.6-0.2h-0.4
		L332.5,335.3z"/>
	<path class="st3" d="M336.4,337.5h-0.5v-3.2l-1,0.4v-0.4l1.4-0.5h0.1L336.4,337.5z"/>
</g>
<g>
	<path class="st3" d="M232.4,352.5h-0.5v-3.2l-1,0.4v-0.4l1.4-0.5h0.1L232.4,352.5z"/>
	<path class="st3" d="M236.1,350.9c0,0.4-0.1,0.9-0.3,1.3c-0.4,0.5-1.2,0.5-1.7,0.1c0,0-0.1-0.1-0.1-0.1c-0.2-0.4-0.3-0.8-0.3-1.2
		v-0.6c0-0.4,0.1-0.9,0.3-1.2c0.2-0.3,0.5-0.4,0.9-0.4c0.3,0,0.7,0.1,0.9,0.4c0.2,0.4,0.3,0.8,0.3,1.2L236.1,350.9z M235.7,350.3
		c0-0.3,0-0.6-0.2-0.9c-0.1-0.2-0.3-0.3-0.5-0.3c-0.2,0-0.4,0.1-0.5,0.3c-0.1,0.3-0.2,0.6-0.2,0.9v0.8c0,0.3,0,0.6,0.2,0.9
		c0.1,0.2,0.3,0.3,0.5,0.3c0.2,0,0.4-0.1,0.5-0.3c0.1-0.3,0.2-0.6,0.2-0.9V350.3z"/>
	<path class="st3" d="M237.5,350.4h0.4c0.2,0,0.4-0.1,0.5-0.2c0.1-0.1,0.2-0.3,0.2-0.5c0-0.3-0.2-0.6-0.5-0.7c0,0,0,0,0,0h-0.2
		c-0.2,0-0.4,0.1-0.5,0.2c-0.1,0.1-0.2,0.3-0.2,0.5h-0.5c0-0.3,0.1-0.6,0.3-0.7c0.2-0.2,0.5-0.3,0.8-0.3c0.3,0,0.6,0.1,0.8,0.3
		c0.2,0.2,0.3,0.5,0.3,0.8c0,0.2-0.1,0.3-0.2,0.5c-0.1,0.2-0.3,0.3-0.4,0.3c0.2,0.1,0.4,0.2,0.5,0.3c0.1,0.2,0.2,0.4,0.2,0.6
		c0,0.3-0.1,0.6-0.3,0.8c-0.2,0.2-0.5,0.3-0.9,0.3c-0.3,0-0.6-0.1-0.9-0.3c-0.2-0.2-0.3-0.5-0.3-0.8h0.5c0,0.2,0.1,0.4,0.2,0.5
		c0.3,0.2,0.7,0.2,1,0c0.1-0.1,0.2-0.3,0.2-0.5c0-0.2-0.1-0.4-0.2-0.5c-0.2-0.1-0.4-0.2-0.6-0.2h-0.4L237.5,350.4z"/>
</g>
<g>
	<path class="st3" d="M204.7,352.5h-0.5v-3.2l-1,0.4v-0.4l1.4-0.5h0.1L204.7,352.5z"/>
	<path class="st3" d="M208.4,350.9c0,0.4-0.1,0.9-0.3,1.3c-0.4,0.5-1.2,0.5-1.7,0.1c0,0-0.1-0.1-0.1-0.1c-0.2-0.4-0.3-0.8-0.3-1.2
		v-0.6c0-0.4,0.1-0.9,0.3-1.2c0.2-0.3,0.6-0.4,0.9-0.4c0.3,0,0.7,0.1,0.9,0.4c0.2,0.4,0.3,0.8,0.3,1.2L208.4,350.9z M207.9,350.3
		c0-0.3,0-0.6-0.2-0.9c-0.2-0.3-0.6-0.4-0.9-0.1c-0.1,0-0.1,0.1-0.1,0.1c-0.1,0.3-0.2,0.6-0.2,0.9v0.8c0,0.3,0,0.6,0.2,0.9
		c0.1,0.2,0.3,0.3,0.5,0.3c0.2,0,0.4-0.1,0.5-0.3c0.2-0.3,0.2-0.6,0.2-0.9L207.9,350.3z"/>
	<path class="st3" d="M211.1,351.3h0.5v0.4h-0.5v0.9h-0.5v-0.9h-1.7v-0.3l1.7-2.6h0.5L211.1,351.3z M209.4,351.3h1.2v-1.9l-0.1,0.1
		L209.4,351.3z"/>
</g>
<g>
	<path class="st3" d="M168.1,352.5h-0.5v-3.2l-1,0.4v-0.4l1.4-0.5h0.1L168.1,352.5z"/>
	<path class="st3" d="M171.9,350.9c0,0.4-0.1,0.9-0.3,1.3c-0.4,0.5-1.2,0.5-1.7,0.1c0,0-0.1-0.1-0.1-0.1c-0.2-0.4-0.3-0.8-0.3-1.2
		v-0.6c0-0.4,0.1-0.9,0.3-1.2c0.2-0.3,0.5-0.4,0.9-0.4c0.3,0,0.7,0.1,0.9,0.4c0.2,0.4,0.3,0.8,0.3,1.2L171.9,350.9z M171.4,350.3
		c0-0.3,0-0.6-0.2-0.9c-0.1-0.2-0.3-0.3-0.5-0.3c-0.2,0-0.4,0.1-0.5,0.3c-0.1,0.3-0.2,0.6-0.2,0.9v0.8c0,0.3,0,0.6,0.2,0.9
		c0.1,0.2,0.3,0.3,0.5,0.3c0.2,0,0.4-0.1,0.5-0.3c0.1-0.3,0.2-0.6,0.2-0.9V350.3z"/>
	<path class="st3" d="M172.7,350.6l0.2-1.9h1.9v0.4h-1.5l-0.1,1c0.2-0.1,0.4-0.2,0.6-0.2c0.3,0,0.6,0.1,0.8,0.3
		c0.2,0.3,0.3,0.6,0.3,0.9c0,0.3-0.1,0.7-0.3,0.9c-0.2,0.2-0.6,0.4-0.9,0.3c-0.3,0-0.6-0.1-0.8-0.3c-0.2-0.2-0.3-0.5-0.4-0.8h0.4
		c0,0.2,0.1,0.4,0.2,0.5c0.1,0.1,0.3,0.2,0.5,0.2c0.2,0,0.4-0.1,0.5-0.2c0.3-0.4,0.3-0.9,0-1.2c-0.1-0.2-0.3-0.2-0.6-0.2
		c-0.2,0-0.3,0-0.5,0.1l-0.1,0.1L172.7,350.6z"/>
</g>
<g>
	<path class="st3" d="M131.5,352.5H131v-3.2l-1,0.4v-0.4l1.4-0.5h0.1L131.5,352.5z"/>
	<path class="st3" d="M135.3,350.9c0,0.4-0.1,0.9-0.3,1.3c-0.2,0.3-0.5,0.4-0.9,0.4c-0.3,0-0.7-0.1-0.9-0.4
		c-0.2-0.4-0.3-0.8-0.3-1.2v-0.6c0-0.4,0.1-0.9,0.3-1.2c0.2-0.3,0.5-0.4,0.9-0.4c0.3,0,0.7,0.1,0.9,0.4c0.2,0.4,0.3,0.8,0.3,1.2
		V350.9z M134.8,350.3c0-0.3,0-0.6-0.2-0.9c-0.1-0.2-0.3-0.3-0.5-0.3c-0.2,0-0.4,0.1-0.5,0.3c-0.1,0.3-0.2,0.6-0.2,0.9v0.8
		c0,0.3,0,0.6,0.2,0.9c0.1,0.2,0.3,0.3,0.5,0.3c0.2,0,0.4-0.1,0.5-0.3c0.1-0.3,0.2-0.6,0.2-0.9V350.3z"/>
	<path class="st3" d="M137.8,348.7v0.4h-0.1c-0.3,0-0.6,0.1-0.9,0.3c-0.2,0.2-0.4,0.6-0.4,0.9c0.2-0.2,0.5-0.4,0.8-0.4
		c0.3,0,0.6,0.1,0.8,0.4c0.2,0.3,0.3,0.6,0.3,0.9c0,0.3-0.1,0.7-0.3,0.9c-0.2,0.2-0.5,0.4-0.9,0.4c-0.3,0-0.7-0.1-0.9-0.4
		c-0.2-0.3-0.4-0.7-0.3-1.1v-0.2c0-0.6,0.1-1.1,0.4-1.6C136.7,348.9,137.2,348.7,137.8,348.7L137.8,348.7z M137.2,350.4
		c-0.2,0-0.3,0.1-0.4,0.1c-0.1,0.1-0.2,0.2-0.3,0.4v0.2c0,0.3,0.1,0.5,0.2,0.8c0.2,0.3,0.6,0.3,0.9,0.1c0,0,0,0,0,0l0.1-0.1
		c0.3-0.4,0.3-0.9,0-1.3C137.5,350.5,137.3,350.4,137.2,350.4L137.2,350.4z"/>
</g>
<g>
	<path class="st3" d="M95,352.5h-0.5v-3.2l-1,0.4v-0.4l1.4-0.5H95V352.5z"/>
	<path class="st3" d="M98.7,350.9c0,0.4-0.1,0.9-0.3,1.3c-0.4,0.5-1.2,0.5-1.7,0.1c0,0-0.1-0.1-0.1-0.1c-0.2-0.4-0.3-0.8-0.3-1.2
		v-0.6c0-0.4,0.1-0.9,0.3-1.2c0.4-0.5,1.2-0.5,1.7-0.1c0,0,0.1,0.1,0.1,0.1c0.2,0.4,0.3,0.8,0.3,1.2V350.9z M98.3,350.3
		c0-0.3,0-0.6-0.2-0.9c-0.2-0.3-0.6-0.4-0.9-0.1c-0.1,0-0.1,0.1-0.1,0.1c-0.1,0.3-0.2,0.6-0.2,0.9v0.8c0,0.3,0,0.6,0.2,0.9
		c0.1,0.2,0.3,0.3,0.5,0.3c0.2,0,0.4-0.1,0.5-0.3c0.1-0.3,0.2-0.6,0.2-0.9V350.3z"/>
	<path class="st3" d="M101.8,349l-1.6,3.5h-0.5l1.6-3.4h-2v-0.4h2.6L101.8,349z"/>
</g>
<g>
	<path class="st3" d="M100.4,425.1h-0.5V422l-1,0.4v-0.4l1.4-0.5h0.1L100.4,425.1z"/>
	<path class="st3" d="M104.2,423.5c0,0.4-0.1,0.9-0.3,1.3c-0.4,0.5-1.2,0.5-1.7,0.1l-0.1-0.1c-0.2-0.4-0.3-0.8-0.3-1.2V423
		c0-0.4,0.1-0.9,0.3-1.2c0.2-0.3,0.6-0.4,0.9-0.4c0.3,0,0.7,0.1,0.9,0.4c0.2,0.4,0.3,0.8,0.3,1.2V423.5z M103.7,422.9
		c0-0.3,0-0.6-0.2-0.9c-0.2-0.3-0.6-0.4-0.9-0.2c0,0,0,0,0,0c-0.1,0-0.1,0.1-0.2,0.2c-0.1,0.3-0.2,0.6-0.2,0.9v0.8
		c0,0.3,0,0.6,0.2,0.9c0.1,0.2,0.3,0.3,0.5,0.3c0.2,0,0.4-0.1,0.5-0.3c0.1-0.3,0.2-0.6,0.2-0.9V422.9z"/>
	<path class="st3" d="M107.1,422.4c0,0.2-0.1,0.4-0.2,0.5c-0.1,0.1-0.2,0.3-0.4,0.3c0.2,0.1,0.3,0.2,0.5,0.4
		c0.1,0.2,0.2,0.4,0.2,0.5c0,0.3-0.1,0.6-0.3,0.8c-0.5,0.4-1.2,0.4-1.7,0c-0.2-0.2-0.3-0.5-0.3-0.8c0-0.4,0.3-0.8,0.6-0.9
		c-0.3-0.2-0.5-0.5-0.5-0.9c0-0.3,0.1-0.6,0.3-0.8c0.2-0.2,0.5-0.3,0.8-0.3c0.3,0,0.6,0.1,0.8,0.3
		C107,421.8,107.1,422.1,107.1,422.4z M106.7,424.1c0-0.2-0.1-0.4-0.2-0.5c-0.3-0.2-0.7-0.2-1,0c-0.3,0.3-0.3,0.7,0,1
		c0.3,0.2,0.7,0.2,1.1,0C106.6,424.5,106.7,424.3,106.7,424.1L106.7,424.1z M105.9,421.7c-0.2,0-0.3,0.1-0.5,0.2
		c-0.1,0.1-0.2,0.3-0.2,0.5c0,0.2,0.1,0.3,0.2,0.5c0.3,0.2,0.7,0.2,0.9,0c0.1-0.1,0.2-0.3,0.2-0.5c0-0.2-0.1-0.3-0.2-0.5
		C106.3,421.8,106.1,421.7,105.9,421.7z"/>
</g>
<g>
	<path class="st3" d="M138.1,425.1h-0.5V422l-1,0.4v-0.4l1.4-0.5h0.1L138.1,425.1z"/>
	<path class="st3" d="M141.9,423.5c0,0.4-0.1,0.9-0.3,1.3c-0.4,0.5-1.2,0.5-1.7,0.1l-0.1-0.1c-0.2-0.4-0.3-0.8-0.3-1.2V423
		c0-0.4,0.1-0.9,0.3-1.2c0.2-0.3,0.6-0.4,0.9-0.4c0.3,0,0.7,0.1,0.9,0.4c0.2,0.4,0.3,0.8,0.3,1.2L141.9,423.5z M141.4,422.9
		c0-0.3,0-0.6-0.2-0.9c-0.2-0.3-0.6-0.4-0.9-0.2c-0.1,0-0.1,0.1-0.2,0.2c-0.1,0.3-0.2,0.6-0.2,0.9v0.8c0,0.3,0,0.6,0.2,0.9
		c0.1,0.2,0.3,0.3,0.5,0.3c0.2,0,0.4-0.1,0.5-0.3c0.1-0.3,0.2-0.6,0.2-0.9L141.4,422.9z"/>
	<path class="st3" d="M144.3,423.5c-0.1,0.1-0.2,0.2-0.4,0.3c-0.1,0.1-0.3,0.1-0.5,0.1c-0.2,0-0.4-0.1-0.6-0.2
		c-0.2-0.1-0.3-0.3-0.4-0.5c-0.1-0.2-0.1-0.4-0.1-0.6c0-0.2,0-0.5,0.1-0.7c0.1-0.2,0.2-0.4,0.4-0.5c0.2-0.1,0.4-0.2,0.6-0.2
		c0.3,0,0.7,0.1,0.9,0.4c0.2,0.3,0.4,0.7,0.3,1.1v0.1c0,0.6-0.1,1.1-0.4,1.6c-0.3,0.4-0.8,0.5-1.3,0.5H143v-0.4h0.1
		c0.3,0,0.7-0.1,0.9-0.3C144.2,424.2,144.4,423.8,144.3,423.5z M143.6,423.5c0.2,0,0.3,0,0.4-0.1c0.1-0.1,0.2-0.2,0.3-0.4v-0.2
		c0-0.3-0.1-0.5-0.2-0.8c-0.2-0.3-0.6-0.4-0.9-0.2c0,0,0,0,0,0c-0.1,0-0.1,0.1-0.1,0.1c-0.1,0.2-0.2,0.4-0.2,0.6
		c0,0.2,0.1,0.4,0.2,0.6C143.2,423.4,143.4,423.5,143.6,423.5z"/>
</g>
<g>
	<path class="st3" d="M203.9,469.6h-0.5v-3.2l-1,0.4v-0.4l1.4-0.5h0.1L203.9,469.6z"/>
	<path class="st3" d="M206.9,469.6h-0.5v-3.2l-1,0.4v-0.4l1.4-0.5h0.1L206.9,469.6z"/>
	<path class="st3" d="M210.1,467.9c-0.1,0.1-0.2,0.2-0.4,0.3c-0.1,0.1-0.3,0.1-0.5,0.1c-0.2,0-0.4-0.1-0.6-0.2
		c-0.2-0.1-0.3-0.3-0.4-0.5c-0.1-0.2-0.1-0.4-0.1-0.6c0-0.2,0-0.5,0.1-0.7c0.1-0.2,0.2-0.4,0.4-0.5c0.2-0.1,0.4-0.2,0.6-0.2
		c0.3,0,0.7,0.1,0.9,0.4c0.2,0.3,0.3,0.7,0.3,1.1v0.1c0.1,0.6-0.1,1.1-0.4,1.6c-0.3,0.4-0.8,0.6-1.3,0.5h-0.1v-0.4h0.1
		c0.6,0.1,1.2-0.4,1.3-1C210.1,468.1,210.1,468,210.1,467.9z M209.4,467.9c0.2,0,0.3,0,0.4-0.1c0.1-0.1,0.2-0.2,0.3-0.4v-0.2
		c0-0.3-0.1-0.5-0.2-0.8c-0.1-0.2-0.3-0.3-0.5-0.3c-0.2,0-0.4,0.1-0.5,0.2c-0.1,0.2-0.2,0.4-0.2,0.6c0,0.2,0.1,0.4,0.2,0.6
		C209,467.8,209.2,467.9,209.4,467.9z"/>
</g>
<g>
	<path class="st3" d="M203.9,504.4h-0.5v-3.2l-1,0.4v-0.4l1.4-0.5h0.1L203.9,504.4z"/>
	<path class="st3" d="M207.8,504.4h-2.5V504l1.3-1.5c0.1-0.2,0.3-0.3,0.4-0.5c0.1-0.1,0.1-0.3,0.1-0.4c0-0.2-0.1-0.3-0.2-0.5
		c-0.1-0.1-0.3-0.2-0.5-0.2c-0.2,0-0.4,0.1-0.6,0.2c-0.1,0.2-0.2,0.4-0.2,0.6h-0.5c0-0.3,0.1-0.6,0.3-0.8c0.2-0.2,0.6-0.3,0.9-0.3
		c0.3,0,0.6,0.1,0.8,0.3c0.2,0.2,0.3,0.5,0.3,0.7c-0.1,0.5-0.3,1-0.7,1.3l-1,1.1h1.9L207.8,504.4z"/>
	<path class="st3" d="M210.6,502.8c0,0.4-0.1,0.9-0.3,1.3c-0.4,0.5-1.2,0.5-1.7,0.1c0,0-0.1-0.1-0.1-0.1c-0.2-0.4-0.3-0.8-0.3-1.2
		v-0.6c0-0.4,0.1-0.9,0.3-1.2c0.5-0.5,1.2-0.5,1.7-0.1l0.1,0.1c0.2,0.4,0.3,0.8,0.3,1.2L210.6,502.8z M210.2,502.1
		c0-0.3,0-0.6-0.2-0.9c-0.1-0.2-0.3-0.3-0.5-0.3c-0.2,0-0.4,0.1-0.5,0.3c-0.1,0.3-0.2,0.6-0.2,0.9v0.8c0,0.3,0,0.6,0.2,0.9
		c0.1,0.2,0.3,0.3,0.5,0.3c0.2,0,0.4-0.1,0.5-0.3c0.1-0.3,0.2-0.6,0.2-0.9V502.1z"/>
</g>
<g>
	<path class="st3" d="M262.3,435.9h-0.5v-3.2l-1,0.4v-0.4l1.4-0.5h0.1L262.3,435.9z"/>
	<path class="st3" d="M266.1,435.9h-2.5v-0.3l1.3-1.5c0.1-0.2,0.3-0.3,0.4-0.5c0.1-0.1,0.1-0.3,0.1-0.4c0-0.2-0.1-0.4-0.2-0.5
		c-0.1-0.1-0.3-0.2-0.5-0.2c-0.2,0-0.4,0.1-0.5,0.2c-0.1,0.1-0.2,0.4-0.2,0.6h-0.5c0-0.3,0.1-0.6,0.3-0.8c0.2-0.2,0.6-0.3,0.9-0.3
		c0.3,0,0.6,0.1,0.8,0.3c0.2,0.2,0.3,0.5,0.3,0.7c-0.1,0.5-0.3,1-0.7,1.3l-1,1.1h1.9L266.1,435.9z"/>
	<path class="st3" d="M267.3,433.8h0.4c0.2,0,0.4-0.1,0.5-0.2c0.1-0.1,0.2-0.3,0.2-0.5c0-0.3-0.2-0.6-0.5-0.7c0,0,0,0,0,0h-0.2
		c-0.2,0-0.4,0.1-0.5,0.2c-0.1,0.1-0.2,0.3-0.2,0.5h-0.5c0-0.3,0.1-0.6,0.3-0.8c0.2-0.2,0.5-0.3,0.8-0.3c0.3,0,0.6,0.1,0.8,0.3
		c0.2,0.2,0.3,0.5,0.3,0.8c0,0.2-0.1,0.3-0.2,0.5c-0.1,0.2-0.3,0.3-0.4,0.4c0.2,0,0.4,0.2,0.5,0.3c0.1,0.2,0.2,0.4,0.2,0.6
		c0,0.3-0.1,0.6-0.3,0.8c-0.2,0.2-0.5,0.3-0.9,0.3c-0.3,0-0.6-0.1-0.9-0.3c-0.2-0.2-0.4-0.5-0.3-0.8h0.5c0,0.2,0.1,0.4,0.2,0.5
		c0.1,0.1,0.3,0.2,0.5,0.2c0.2,0,0.4-0.1,0.5-0.2c0.1-0.1,0.2-0.3,0.2-0.5c0-0.2-0.1-0.4-0.2-0.5c-0.2-0.1-0.4-0.2-0.6-0.2h-0.4
		L267.3,433.8z"/>
</g>
<g>
	<path class="st3" d="M262.8,469h-0.5v-3.2l-1,0.4v-0.4l1.4-0.5h0.1L262.8,469z"/>
	<path class="st3" d="M266.7,469h-2.5v-0.4l1.3-1.5c0.1-0.2,0.3-0.3,0.4-0.5c0.1-0.1,0.1-0.3,0.1-0.4c0-0.2-0.1-0.4-0.2-0.5
		c-0.1-0.1-0.3-0.2-0.5-0.2c-0.2,0-0.4,0.1-0.5,0.2c-0.1,0.2-0.2,0.4-0.2,0.6h-0.5c0-0.3,0.1-0.6,0.3-0.8c0.2-0.2,0.6-0.3,0.9-0.3
		c0.3,0,0.6,0.1,0.8,0.3c0.2,0.2,0.3,0.5,0.3,0.7c-0.1,0.5-0.3,1-0.7,1.3l-1,1.1h1.9L266.7,469z"/>
	<path class="st3" d="M269.7,469h-2.5v-0.4l1.3-1.5c0.1-0.2,0.3-0.3,0.4-0.5c0.1-0.1,0.1-0.3,0.1-0.4c0-0.2-0.1-0.4-0.2-0.5
		c-0.1-0.1-0.3-0.2-0.5-0.2c-0.2,0-0.4,0.1-0.6,0.2c-0.1,0.2-0.2,0.4-0.2,0.6h-0.5c0-0.3,0.1-0.6,0.3-0.8c0.2-0.2,0.6-0.3,0.9-0.3
		c0.3,0,0.6,0.1,0.8,0.3c0.2,0.2,0.3,0.5,0.3,0.7c-0.1,0.5-0.3,1-0.7,1.3l-1,1.1h1.9L269.7,469z"/>
</g>
<g>
	<path class="st3" d="M262.6,504.4h-0.4v-3.2l-0.9,0.4v-0.4l1.2-0.5h0.1V504.4z"/>
	<path class="st3" d="M266.2,504.4h-2.2V504l1.2-1.5c0.1-0.2,0.3-0.3,0.4-0.5c0.1-0.1,0.1-0.3,0.1-0.4c0-0.2-0.1-0.3-0.2-0.5
		c-0.1-0.1-0.3-0.1-0.4-0.1c-0.2,0-0.4,0.1-0.5,0.2c-0.1,0.2-0.2,0.4-0.2,0.6h-0.4c0-0.3,0.1-0.6,0.3-0.8c0.2-0.2,0.5-0.3,0.8-0.3
		c0.3,0,0.6,0.1,0.8,0.3c0.2,0.2,0.3,0.5,0.3,0.7c-0.1,0.5-0.3,1-0.6,1.3l-0.9,1.1h1.7L266.2,504.4z"/>
	<path class="st3" d="M268,504.4h-0.4v-3.2l-0.9,0.4v-0.4l1.3-0.5h0.1V504.4z"/>
</g>
<g>
	<path class="st3" d="M202.6,548h-0.5v-3.2l-1,0.3v-0.4l1.4-0.5h0.1L202.6,548z"/>
	<path class="st3" d="M204.2,546.1l0.2-1.9h1.9v0.4h-1.5l-0.1,1c0.2-0.1,0.4-0.2,0.6-0.2c0.3,0,0.6,0.1,0.8,0.3
		c0.2,0.3,0.3,0.6,0.3,0.9c0,0.3-0.1,0.7-0.3,0.9c-0.2,0.2-0.6,0.4-0.9,0.3c-0.3,0-0.6-0.1-0.8-0.3c-0.2-0.2-0.3-0.5-0.4-0.8h0.5
		c0,0.2,0.1,0.4,0.2,0.5c0.1,0.1,0.3,0.2,0.5,0.2c0.2,0,0.4-0.1,0.5-0.2c0.1-0.2,0.2-0.4,0.2-0.6c0-0.2-0.1-0.4-0.2-0.6
		c-0.1-0.2-0.3-0.2-0.6-0.2c-0.2,0-0.3,0-0.5,0.1l-0.1,0.1L204.2,546.1z"/>
	<path class="st3" d="M209,546.7h0.5v0.4H209v0.9h-0.5v-0.9h-1.7v-0.3l1.7-2.6h0.5V546.7z M207.4,546.7h1.2v-1.8l-0.1,0.1
		L207.4,546.7z"/>
</g>
<g>
	<path class="st3" d="M262.7,548h-0.5v-3.2l-1,0.3v-0.4l1.4-0.5h0.1L262.7,548z"/>
	<path class="st3" d="M264.4,546.1l0.2-1.9h1.9v0.4H265l-0.1,1c0.2-0.1,0.4-0.2,0.6-0.2c0.3,0,0.6,0.1,0.8,0.3
		c0.2,0.3,0.3,0.6,0.3,0.9c0,0.3-0.1,0.7-0.3,0.9c-0.2,0.2-0.6,0.4-0.9,0.3c-0.3,0-0.6-0.1-0.8-0.3c-0.2-0.2-0.3-0.5-0.4-0.8h0.5
		c0,0.2,0.1,0.4,0.2,0.5c0.1,0.1,0.3,0.2,0.5,0.2c0.2,0,0.4-0.1,0.5-0.2c0.1-0.2,0.2-0.4,0.2-0.6c0-0.2-0.1-0.4-0.2-0.6
		c-0.1-0.2-0.3-0.2-0.5-0.2c-0.2,0-0.3,0-0.5,0.1l-0.1,0.1L264.4,546.1z"/>
	<path class="st3" d="M268.7,548h-0.5v-3.2l-1,0.3v-0.4l1.4-0.5h0.1L268.7,548z"/>
</g>
<g>
	<path class="st3" d="M262.7,586.3h-0.5v-3.2l-1,0.4V583l1.4-0.5h0.1L262.7,586.3z"/>
	<path class="st3" d="M264.4,584.4l0.2-1.9h1.9v0.5H265l-0.1,1c0.2-0.1,0.4-0.2,0.6-0.2c0.3,0,0.6,0.1,0.8,0.3
		c0.2,0.3,0.3,0.6,0.3,0.9c0,0.3-0.1,0.7-0.3,0.9c-0.2,0.2-0.6,0.4-0.9,0.3c-0.3,0-0.6-0.1-0.8-0.3c-0.2-0.2-0.3-0.5-0.4-0.8h0.5
		c0,0.2,0.1,0.4,0.2,0.5c0.1,0.1,0.3,0.2,0.5,0.2c0.2,0,0.4-0.1,0.5-0.2c0.3-0.4,0.3-0.9,0-1.2c-0.1-0.2-0.3-0.2-0.5-0.2
		c-0.2,0-0.3,0-0.5,0.1l-0.1,0.1L264.4,584.4z"/>
	<path class="st3" d="M269.6,586.3h-2.5V586l1.3-1.5c0.2-0.2,0.3-0.3,0.4-0.5c0.1-0.1,0.1-0.3,0.1-0.4c0-0.2-0.1-0.4-0.2-0.5
		c-0.1-0.1-0.3-0.2-0.5-0.2c-0.2,0-0.4,0.1-0.6,0.2c-0.1,0.2-0.2,0.4-0.2,0.6H267c0-0.3,0.1-0.6,0.3-0.8c0.5-0.4,1.2-0.4,1.7,0
		c0.2,0.2,0.3,0.5,0.3,0.7c-0.1,0.5-0.3,1-0.7,1.3l-1,1.1h1.9L269.6,586.3z"/>
</g>
<g>
	<path class="st3" d="M202.6,586.3h-0.5v-3.2l-1,0.4V583l1.4-0.5h0.1L202.6,586.3z"/>
	<path class="st3" d="M204.2,584.4l0.2-1.9h1.9v0.5h-1.5l-0.1,1c0.2-0.1,0.4-0.2,0.6-0.2c0.3,0,0.6,0.1,0.8,0.3
		c0.2,0.3,0.3,0.6,0.3,0.9c0,0.3-0.1,0.7-0.3,0.9c-0.2,0.2-0.6,0.4-0.9,0.3c-0.3,0-0.6-0.1-0.8-0.3c-0.2-0.2-0.3-0.5-0.4-0.8h0.5
		c0,0.2,0.1,0.4,0.2,0.5c0.1,0.1,0.3,0.2,0.5,0.2c0.2,0,0.4-0.1,0.5-0.2c0.1-0.2,0.2-0.4,0.2-0.6c0-0.2-0.1-0.4-0.2-0.6
		c-0.1-0.2-0.3-0.2-0.6-0.2c-0.2,0-0.3,0-0.5,0.1l-0.1,0.1L204.2,584.4z"/>
	<path class="st3" d="M207.2,584.4l0.2-1.9h1.9v0.5h-1.5l-0.1,1c0.2-0.1,0.4-0.2,0.6-0.2c0.3,0,0.6,0.1,0.8,0.3
		c0.2,0.3,0.3,0.6,0.3,0.9c0,0.3-0.1,0.7-0.3,0.9c-0.2,0.2-0.6,0.4-0.9,0.3c-0.3,0-0.6-0.1-0.8-0.3c-0.2-0.2-0.3-0.5-0.4-0.8h0.5
		c0,0.2,0.1,0.4,0.2,0.5c0.1,0.1,0.3,0.2,0.5,0.2c0.2,0,0.4-0.1,0.5-0.2c0.1-0.2,0.2-0.4,0.2-0.6c0-0.2-0.1-0.4-0.2-0.6
		c-0.1-0.2-0.3-0.2-0.6-0.2c-0.2,0-0.3,0-0.5,0.1l-0.1,0.1L207.2,584.4z"/>
</g>
<rect x="424.1" y="308" class="st4" width="48.4" height="43.1"/>
<rect x="382.9" y="308" class="st4" width="41.3" height="43.1"/>
<rect x="342.2" y="308" class="st4" width="40.7" height="43.1"/>
<rect x="390.5" y="246.7" class="st4" width="82" height="43.6"/>
<rect x="337.5" y="221.9" class="st4" width="45.4" height="17.1"/>
<rect x="337.5" y="140.5" class="st4" width="45.4" height="81.4"/>
<rect x="278.5" y="140.5" class="st4" width="43.6" height="38.9"/>
<rect x="278.5" y="179.4" class="st4" width="43.6" height="36.6"/>
<rect x="278.5" y="216" class="st4" width="43.6" height="33.6"/>
<rect x="278.5" y="249.6" class="st4" width="43.6" height="37.7"/>
<rect x="278.5" y="287.4" class="st4" width="27.1" height="19.5"/>
<rect x="322.1" y="323.9" class="st4" width="20" height="27.1"/>
<rect x="225.4" y="338.7" class="st4" width="19.5" height="23.6"/>
<rect x="188.8" y="338.7" class="st4" width="36.6" height="44.2"/>
<rect x="152.8" y="338.7" class="st4" width="36" height="44.2"/>
<rect x="116.3" y="338.7" class="st4" width="36.6" height="44.2"/>
<rect x="77.3" y="338.7" class="st4" width="38.9" height="44.2"/>
<rect x="77.3" y="398.8" class="st4" width="51.3" height="45.4"/>
<rect x="128.7" y="398.8" class="st4" width="47.2" height="45.4"/>
<rect x="152.8" y="398.8" class="st4" width="23" height="44.2"/>
<rect x="185.3" y="450.7" class="st4" width="44.2" height="36.6"/>
<rect x="185.3" y="487.3" class="st4" width="44.2" height="44.2"/>
<rect x="185.3" y="531.5" class="st4" width="43.6" height="39.5"/>
<rect x="243.7" y="531.5" class="st4" width="43.7" height="39.5"/>
<rect x="243.1" y="487.3" class="st4" width="46" height="44.2"/>
<rect x="243.1" y="449.5" class="st4" width="46" height="37.8"/>
<rect x="242.5" y="421.2" class="st4" width="46.6" height="28.3"/>
<polygon class="st4" points="224.8,582.8 224.8,589.3 226.6,589.3 226.6,607.6 185.3,607.6 185.3,571 228.9,571 228.9,582.8 "/>
<polygon class="st4" points="287.3,571 287.3,607.6 246,607.6 246,582.8 243.7,582.8 243.7,571 "/>
<rect class="st4" width="569" height="692"/>
<polyline class="st0" points="347.9,307.8 342.2,307.8 342.2,351.2 342.2,354.5 342.2,386.8 336.5,392.4 329.7,399 325.1,403.4 
	295,403.4 289.1,403.4 "/>
<polygon class="st4" points="342.3,351.4 342.3,354.7 342.3,387 336.6,392.6 329.8,399.2 325.2,403.6 295.1,403.6 289.1,403.6 
	289.1,383.3 304.4,383.3 322,366.1 322,351.4 "/>
</svg>
