    <!--Secondfloor-->
    <svg *ngSwitchCase="'secondfloor'" id="secondfloor" xmlns="http://www.w3.org/2000/svg" viewBox="0 0 569 692">
      <!--Layout Paths (bindings below because of render order)-->
      <g>
        <polyline class="a" points="347.89 307.77 342.21 307.77 342.21 351.24 342.24 354.52 342.24 386.83 336.55 392.39 329.74 399.04 325.14 403.41 295 403.41 289.08 403.41" />
        <polyline class="b" points="321.93 351.17 321.93 365.94 304.33 383.12 289.06 383.12" />
        <polyline class="a" points="165.92 338.68 165.92 228.07 278.46 228.07" />
        <line class="b" x1="213.63" y1="433.05" x2="203.85" y2="423.31" />
        <line class="b" x1="214.68" y1="432.06" x2="204.87" y2="422.29" />
        <line class="a" x1="224.44" y1="421.84" x2="221.87" y2="419.27" />
        <line class="b" x1="210.47" y1="436.04" x2="200.77" y2="426.38" />
        <line class="b" x1="211.52" y1="435.05" x2="201.8" y2="425.35" />
        <line class="b" x1="202.06" y1="444.03" x2="192.58" y2="434.58" />
        <line class="b" x1="203.08" y1="443" x2="193.61" y2="433.55" />
        <line class="a" x1="451.04" y1="290.38" x2="472.62" y2="290.38" />
        <line class="a" x1="332.45" y1="324.19" x2="342.21" y2="324.19" />
        <line class="a" x1="397.99" y1="307.77" x2="435.58" y2="307.77" />
        <line class="a" x1="440.39" y1="307.77" x2="472.62" y2="307.77" />
        <line class="a" x1="210.36" y1="407.76" x2="207.89" y2="405.29" />
        <line class="a" x1="262.04" y1="390.36" x2="262.03" y2="383.12" />
        <line class="a" x1="271.62" y1="390.36" x2="271.62" y2="383.12" />
        <line class="b" x1="212.58" y1="434.05" x2="202.82" y2="424.33" />
        <polyline class="a" points="175.91 443.98 184.64 451.91 184.99 452.21" />
        <line class="b" x1="206.25" y1="440.03" x2="196.67" y2="430.48" />
        <line class="b" x1="207.31" y1="439.03" x2="197.71" y2="429.45" />
        <line class="b" x1="204.11" y1="441.97" x2="194.63" y2="432.53" />
        <line class="b" x1="205.12" y1="440.95" x2="195.65" y2="431.5" />
        <line class="b" x1="209.42" y1="437.04" x2="199.76" y2="427.4" />
        <line class="b" x1="208.36" y1="438.04" x2="198.73" y2="428.43" />
        <line class="a" x1="257.9" y1="378.18" x2="262.03" y2="383.12" />
        <line class="a" x1="305.51" y1="293.98" x2="305.51" y2="287.2" />
        <line class="a" x1="305.51" y1="306.8" x2="305.51" y2="298.77" />
        <line class="a" x1="352.71" y1="307.77" x2="393.18" y2="307.77" />
        <line class="a" x1="268.78" y1="403.4" x2="289.08" y2="403.4" />
        <line class="a" x1="321.84" y1="204.2" x2="321.84" y2="223.53" />
        <line class="a" x1="337.27" y1="212.84" x2="337.27" y2="226.56" />
        <line class="a" x1="321.84" y1="163.96" x2="321.84" y2="199.42" />
        <line class="a" x1="321.84" y1="228.31" x2="321.84" y2="267.89" />
        <line class="a" x1="152.65" y1="405.52" x2="152.65" y2="443.98" />
        <line class="a" x1="152.65" y1="398.57" x2="152.65" y2="401.28" />
        <line class="a" x1="242.69" y1="421.08" x2="289.08" y2="421.08" />
        <polyline class="a" points="258.92 379.41 242.69 389.03 242.69 403.4" />
        <line class="b" x1="360.77" y1="267.92" x2="351.8" y2="258.97" />
        <line class="b" x1="376.91" y1="269.68" x2="358.97" y2="251.79" />
        <line class="b" x1="373.84" y1="272.76" x2="355.89" y2="254.87" />
        <line class="b" x1="372.82" y1="273.79" x2="354.88" y2="255.9" />
        <line class="b" x1="375.88" y1="270.71" x2="357.95" y2="252.82" />
        <line class="b" x1="374.87" y1="271.73" x2="356.92" y2="253.85" />
        <line class="b" x1="383.05" y1="263.52" x2="374.17" y2="254.67" />
        <line class="b" x1="382.02" y1="264.55" x2="373.05" y2="255.61" />
        <line class="a" x1="382.79" y1="239.18" x2="337.27" y2="239.18" />
        <line class="b" x1="378.96" y1="267.63" x2="361.01" y2="249.74" />
        <line class="b" x1="377.93" y1="268.66" x2="360" y2="250.76" />
        <line class="b" x1="381" y1="265.58" x2="363.06" y2="247.69" />
        <line class="b" x1="379.98" y1="266.61" x2="362.04" y2="248.71" />
        <line class="b" x1="371.79" y1="274.81" x2="353.85" y2="256.92" />
        <line class="b" x1="370.76" y1="275.84" x2="352.83" y2="257.95" />
        <line class="a" x1="342.9" y1="267.88" x2="371.6" y2="239.18" />
        <polyline class="a" points="342.9 267.88 337.27 262.25 337.27 251.53 337.27 241 337.27 231.34" />
        <line class="b" x1="373.05" y1="255.61" x2="364.09" y2="246.66" />
        <line class="b" x1="260.08" y1="320.95" x2="274.63" y2="335.58" />
        <rect class="b" x="111.34" y="243.05" width="12.55" height="12.55" />
        <line class="b" x1="360.77" y1="267.92" x2="374.49" y2="254.34" />
        <polyline class="b" points="111.34 329.02 123.89 329.02 123.89 316.46 111.34 316.46 111.34 329.02" />
        <line class="b" x1="121.48" y1="245.46" x2="123.89" y2="243.05" />
        <line class="b" x1="111.34" y1="316.46" x2="113.76" y2="318.87" />
        <polyline class="b" points="121.48 326.61 113.76 326.61 113.76 318.88 121.48 318.88 121.48 326.61" />
        <line class="b" x1="111.34" y1="243.05" x2="113.76" y2="245.46" />
        <polyline class="b" points="121.48 253.19 113.76 253.19 113.76 245.46 121.48 245.46 121.48 253.19" />
        <line class="b" x1="123.89" y1="255.6" x2="121.48" y2="253.19" />
        <line class="b" x1="111.34" y1="255.6" x2="113.76" y2="253.19" />
        <line class="b" x1="261.08" y1="322.04" x2="271.39" y2="312.63" />
        <line class="b" x1="250.86" y1="331.36" x2="261.08" y2="322.04" />
        <line class="b" x1="253.99" y1="334.48" x2="274.51" y2="315.75" />
        <line class="b" x1="251.91" y1="332.4" x2="272.43" y2="313.67" />
        <line class="b" x1="260.08" y1="320.95" x2="270.34" y2="311.58" />
        <line class="a" x1="262.06" y1="403.4" x2="262.05" y2="395.17" />
        <line class="b" x1="261.29" y1="341.77" x2="281.81" y2="323.05" />
        <line class="b" x1="260.24" y1="340.74" x2="280.77" y2="322.01" />
        <line class="b" x1="264.42" y1="344.91" x2="274.63" y2="335.58" />
        <line class="b" x1="262.33" y1="342.82" x2="282.86" y2="324.09" />
        <line class="b" x1="256.08" y1="336.57" x2="276.6" y2="317.84" />
        <line class="b" x1="255.03" y1="335.53" x2="275.56" y2="316.8" />
        <line class="b" x1="259.21" y1="339.69" x2="279.72" y2="320.96" />
        <line class="b" x1="258.17" y1="338.65" x2="278.69" y2="319.92" />
        <line class="a" x1="278.46" y1="215.85" x2="321.84" y2="215.85" />
        <line class="a" x1="278.46" y1="179.22" x2="321.84" y2="179.22" />
        <line class="a" x1="382.59" y1="307.77" x2="382.59" y2="351.24" />
        <line class="a" x1="337.27" y1="221.63" x2="382.79" y2="221.63" />
        <line class="a" x1="337.27" y1="140.64" x2="337.27" y2="208.06" />
        <line class="a" x1="321.84" y1="140.64" x2="321.84" y2="159.16" />
        <line class="a" x1="424.05" y1="307.77" x2="424.05" y2="351.24" />
        <line class="a" x1="271.62" y1="403.4" x2="271.62" y2="395.18" />
        <line class="a" x1="278.46" y1="249.59" x2="321.84" y2="249.59" />
        <polyline class="a" points="278.46 287.2 321.84 287.2 321.84 272.67" />
        <polyline class="a" points="278.7 306.8 271.83 313.07 265.56 306.8 284.94 326.18" />
        <polyline class="a" points="80.42 338.68 80.42 143.55 278.46 143.55" />
        <polyline class="a" points="168.33 338.68 168.33 230.49 278.46 230.49" />
        <line class="a" x1="321.93" y1="324.19" x2="327.64" y2="324.19" />
        <polyline class="a" points="77.53 338.68 77.53 140.64 278.46 140.64" />
        <polyline class="a" points="446.23 290.38 388.99 290.38 374.25 290.38 365.4 290.38 360.82 285.8" />
        <line class="a" x1="242.69" y1="403.4" x2="263.96" y2="403.4" />
        <polyline class="a" points="347.89 307.77 342.21 307.77 342.21 351.24" />
        <polyline class="a" points="390.51 246.91 472.62 246.91 472.62 290.38 472.62 307.77 472.62 351.24 321.93 351.24" />
        <line class="a" x1="244.65" y1="362.34" x2="244.65" y2="338.68" />
        <line class="a" x1="278.46" y1="306.8" x2="278.46" y2="140.64" />
        <line class="a" x1="390.51" y1="246.91" x2="390.51" y2="290.38" />
        <line class="a" x1="360.82" y1="285.8" x2="390.51" y2="256.1" />
        <line class="b" x1="257.12" y1="337.62" x2="277.64" y2="318.88" />
        <line class="b" x1="263.38" y1="343.86" x2="283.9" y2="325.13" />
        <line class="b" x1="252.94" y1="333.45" x2="273.48" y2="314.72" />
        <line class="b" x1="111.34" y1="329.02" x2="113.76" y2="326.61" />
        <line class="a" x1="77.53" y1="398.57" x2="95.89" y2="398.57" />
        <line class="a" x1="128.72" y1="398.57" x2="128.72" y2="443.98" />
        <line class="a" x1="128.72" y1="398.57" x2="137.42" y2="398.57" />
        <line class="a" x1="173.16" y1="383.12" x2="211.8" y2="383.12" />
        <line class="a" x1="188.62" y1="338.68" x2="188.62" y2="383.12" />
        <polyline class="a" points="225.33 338.68 225.33 383.12 216.63 383.12" />
        <line class="a" x1="100.7" y1="398.57" x2="128.72" y2="398.57" />
        <line class="a" x1="77.53" y1="338.68" x2="244.65" y2="338.68" />
        <line class="a" x1="152.88" y1="338.68" x2="152.88" y2="383.12" />
        <line class="a" x1="116.17" y1="338.68" x2="116.17" y2="383.12" />
        <line class="a" x1="225.33" y1="362.34" x2="231.13" y2="362.34" />
        <line class="a" x1="235.96" y1="362.34" x2="244.65" y2="362.34" />
        <line class="a" x1="145.14" y1="383.12" x2="168.33" y2="383.12" />
        <polyline class="a" points="77.53 338.68 77.53 443.98 175.91 443.98" />
        <line class="a" x1="77.53" y1="383.12" x2="95.89" y2="383.12" />
        <line class="a" x1="100.72" y1="383.12" x2="140.32" y2="383.12" />
        <line class="a" x1="175.91" y1="398.57" x2="175.91" y2="443.98" />
        <line class="b" x1="188.92" y1="420.68" x2="197.83" y2="429.58" />
        <line class="b" x1="185.74" y1="423.64" x2="194.66" y2="432.56" />
        <line class="b" x1="184.69" y1="424.63" x2="193.61" y2="433.55" />
        <line class="b" x1="187.86" y1="421.66" x2="196.78" y2="430.57" />
        <line class="b" x1="186.8" y1="422.65" x2="195.71" y2="431.57" />
        <line class="b" x1="192.28" y1="434.8" x2="206.28" y2="421.63" />
        <line class="b" x1="195.28" y1="414.74" x2="204.17" y2="423.62" />
        <line class="b" x1="197.39" y1="412.75" x2="206.28" y2="421.63" />
        <line class="b" x1="196.34" y1="413.75" x2="205.22" y2="422.63" />
        <line class="b" x1="194.22" y1="415.72" x2="203.11" y2="424.61" />
        <line class="a" x1="242.69" y1="416.51" x2="242.69" y2="441.07" />
        <polyline class="a" points="227.2 424.6 217.22 433.91 215.02 431.73 194.93 450.74" />
        <polyline class="a" points="207.89 405.29 201.18 398.57 200.12 398.57 179.94 398.57 142.25 398.57" />
        <line class="a" x1="206.7" y1="404.09" x2="175.85" y2="432.87" />
        <line class="a" x1="242.69" y1="403.4" x2="242.69" y2="408.73" />
        <line class="b" x1="191.04" y1="418.69" x2="199.94" y2="427.59" />
        <line class="b" x1="189.99" y1="419.68" x2="198.89" y2="428.59" />
        <line class="b" x1="193.17" y1="416.72" x2="202.06" y2="425.61" />
        <line class="b" x1="192.1" y1="417.71" x2="200.99" y2="426.6" />
        <line class="a" x1="289.08" y1="449.34" x2="289.08" y2="383.12" />
        <line class="b" x1="221.46" y1="169.63" x2="223.88" y2="172.04" />
        <polyline class="b" points="231.61 179.77 223.88 179.77 223.88 172.04 231.61 172.04 231.61 179.77" />
        <line class="b" x1="234.02" y1="182.19" x2="231.61" y2="179.77" />
        <line class="b" x1="221.46" y1="182.19" x2="223.88" y2="179.77" />
        <line class="b" x1="270.73" y1="182.19" x2="268.31" y2="179.77" />
        <line class="b" x1="258.18" y1="182.19" x2="260.59" y2="179.77" />
        <rect class="b" x="221.46" y="169.63" width="12.56" height="12.56" />
        <line class="b" x1="268.31" y1="172.04" x2="270.73" y2="169.63" />
        <line class="b" x1="123.89" y1="218.89" x2="121.48" y2="216.48" />
        <line class="b" x1="111.34" y1="218.89" x2="113.76" y2="216.48" />
        <line class="b" x1="123.89" y1="329.02" x2="121.48" y2="326.61" />
        <line class="b" x1="121.48" y1="208.75" x2="123.89" y2="206.33" />
        <rect class="b" x="111.34" y="206.33" width="12.55" height="12.56" />
        <line class="b" x1="231.61" y1="172.04" x2="234.02" y2="169.63" />
        <line class="b" x1="111.34" y1="206.33" x2="113.76" y2="208.75" />
        <polyline class="b" points="121.48 216.48 113.76 216.48 113.76 208.75 121.48 208.75 121.48 216.48" />
        <line class="b" x1="123.89" y1="292.32" x2="121.48" y2="289.9" />
        <line class="b" x1="111.34" y1="292.32" x2="113.76" y2="289.9" />
        <rect class="b" x="184.75" y="169.63" width="12.56" height="12.56" />
        <line class="b" x1="121.48" y1="282.17" x2="123.89" y2="279.75" />
        <rect class="b" x="111.34" y="279.75" width="12.55" height="12.56" />
        <line class="b" x1="121.48" y1="318.87" x2="123.89" y2="316.46" />
        <line class="b" x1="111.34" y1="279.75" x2="113.76" y2="282.17" />
        <polyline class="b" points="121.48 289.9 113.76 289.9 113.76 282.17 121.48 282.17 121.48 289.9" />
        <rect class="b" x="258.18" y="169.63" width="12.55" height="12.56" />
        <line class="b" x1="194.9" y1="172.04" x2="197.31" y2="169.63" />
        <line class="b" x1="258.18" y1="169.63" x2="260.59" y2="172.04" />
        <polyline class="b" points="268.31 179.77 260.59 179.77 260.59 172.04 268.31 172.04 268.31 179.77" />
        <line class="b" x1="184.75" y1="169.63" x2="187.17" y2="172.04" />
        <polyline class="b" points="194.9 179.77 187.17 179.77 187.17 172.04 194.9 172.04 194.9 179.77" />
        <line class="b" x1="197.31" y1="182.19" x2="194.9" y2="179.77" />
        <line class="b" x1="184.75" y1="182.19" x2="187.17" y2="179.77" />
        <rect class="b" x="111.34" y="169.63" width="12.55" height="12.56" />
        <line class="a" x1="244.65" y1="362.34" x2="251.28" y2="370.27" />
        <polyline class="a" points="278.46 140.64 382.79 140.64 382.79 239.18" />
        <polyline class="a" points="319.12 321.21 321.93 324.19 321.93 365.94 304.33 383.12 262.03 383.12" />
        <polyline class="a" points="308.62 310.1 305.51 306.8 278.46 306.8 264.94 306.8 244.65 325.16 244.65 338.68 244.65 338.56 251.66 332.15 244.65 325.16 264.42 344.91" />
        <line class="b" x1="158.19" y1="172.04" x2="160.61" y2="169.63" />
        <line class="b" x1="160.61" y1="182.19" x2="158.19" y2="179.77" />
        <line class="a" x1="382.79" y1="239.18" x2="390.51" y2="246.91" />
        <line class="a" x1="360.82" y1="285.8" x2="358.08" y2="283.06" />
        <line class="a" x1="346.57" y1="271.55" x2="342.9" y2="267.88" />
        <rect class="b" x="148.05" y="206.33" width="12.56" height="12.56" />
        <line class="b" x1="121.48" y1="172.04" x2="123.89" y2="169.63" />
        <line class="b" x1="148.05" y1="206.33" x2="150.46" y2="208.75" />
        <polyline class="b" points="158.19 216.48 150.46 216.48 150.46 208.75 158.19 208.75 158.19 216.48" />
        <line class="b" x1="111.34" y1="169.63" x2="113.76" y2="172.04" />
        <polyline class="b" points="121.48 179.77 113.76 179.77 113.76 172.04 121.48 172.04 121.48 179.77" />
        <line class="b" x1="123.89" y1="182.19" x2="121.48" y2="179.77" />
        <line class="b" x1="111.34" y1="182.19" x2="113.76" y2="179.77" />
        <line class="b" x1="148.05" y1="218.89" x2="150.46" y2="216.48" />
        <polyline class="b" points="158.19 179.77 150.46 179.77 150.46 172.04 158.19 172.04 158.19 179.77" />
        <rect class="b" x="148.05" y="169.63" width="12.56" height="12.56" />
        <line class="b" x1="148.05" y1="182.19" x2="150.46" y2="179.77" />
        <line class="b" x1="148.05" y1="169.63" x2="150.46" y2="172.04" />
        <line class="b" x1="160.61" y1="218.89" x2="158.19" y2="216.48" />
        <line class="b" x1="158.19" y1="208.75" x2="160.61" y2="206.33" />
        <polyline class="a" points="229.37 464.9 229.37 448.52 229.19 434.32 229.19 426.59 224.44 421.83" />
        <line class="a" x1="242.83" y1="464.26" x2="242.83" y2="508.48" />
        <line class="a" x1="242.83" y1="444.66" x2="242.83" y2="459.49" />
        <line class="a" x1="229.37" y1="469.71" x2="229.37" y2="499.85" />
        <line class="a" x1="228.66" y1="570.9" x2="185.06" y2="570.9" />
        <line class="a" x1="253.47" y1="449.49" x2="289.09" y2="449.49" />
        <line class="b" x1="236.94" y1="593.32" x2="245.79" y2="593.32" />
        <line class="b" x1="236.94" y1="591.8" x2="245.79" y2="591.8" />
        <polyline class="a" points="228.66 544.28 228.66 557.77 228.66 559.94 228.66 570.9" />
        <line class="b" x1="236.94" y1="602.43" x2="245.79" y2="602.43" />
        <line class="b" x1="236.94" y1="600.91" x2="245.79" y2="600.91" />
        <line class="b" x1="236.94" y1="605.46" x2="245.79" y2="605.46" />
        <line class="b" x1="236.94" y1="603.94" x2="245.79" y2="603.94" />
        <line class="b" x1="236.94" y1="596.36" x2="245.79" y2="596.36" />
        <line class="b" x1="236.94" y1="594.84" x2="245.79" y2="594.84" />
        <line class="b" x1="236.94" y1="599.4" x2="245.79" y2="599.4" />
        <line class="b" x1="236.94" y1="597.88" x2="245.79" y2="597.88" />
        <polyline class="a" points="243.76 572.1 243.76 559.94 243.76 557.77 243.76 552.13" />
        <line class="a" x1="287.37" y1="570.9" x2="243.76" y2="570.9" />
        <line class="b" x1="236.94" y1="606.98" x2="245.79" y2="606.98" />
        <polyline class="a" points="289.09 449.72 289.09 531.35 242.83 531.35 242.83 513.26" />
        <polyline class="a" points="185.06 531.35 229.37 531.35 229.37 504.63" />
        <line class="a" x1="243.53" y1="582.79" x2="243.76" y2="582.79" />
        <line class="a" x1="287.37" y1="535.84" x2="287.37" y2="533.66" />
        <line class="b" x1="235.47" y1="591.8" x2="226.63" y2="591.8" />
        <line class="b" x1="226.63" y1="593.32" x2="235.47" y2="593.32" />
        <line class="b" x1="226.63" y1="606.98" x2="235.47" y2="606.98" />
        <line class="b" x1="235.47" y1="591.8" x2="236.94" y2="591.8" />
        <line class="b" x1="226.63" y1="602.43" x2="235.47" y2="602.43" />
        <line class="b" x1="226.63" y1="600.91" x2="235.47" y2="600.91" />
        <line class="b" x1="226.63" y1="605.46" x2="235.47" y2="605.46" />
        <line class="b" x1="226.63" y1="603.94" x2="235.47" y2="603.94" />
        <line class="a" x1="243.76" y1="531.35" x2="243.76" y2="547.02" />
        <line class="a" x1="228.66" y1="531.35" x2="228.66" y2="540.13" />
        <line class="a" x1="228.66" y1="570.9" x2="228.66" y2="572.1" />
        <line class="b" x1="236.94" y1="591.8" x2="236.94" y2="608.5" />
        <line class="b" x1="235.47" y1="591.8" x2="235.47" y2="608.5" />
        <line class="b" x1="226.63" y1="596.36" x2="235.47" y2="596.36" />
        <line class="b" x1="226.63" y1="594.84" x2="235.47" y2="594.84" />
        <line class="b" x1="226.63" y1="599.4" x2="235.47" y2="599.4" />
        <line class="b" x1="226.63" y1="597.88" x2="235.47" y2="597.88" />
        <polyline class="a" points="229.37 450.44 185.06 450.76 185.06 531.35 185.06 605.62 185.06 607.78 226.63 607.78 226.63 589.54 224.7 589.54 224.7 582.79 228.9 582.79 232.36 582.79 228.66 582.79 228.66 577.21" />
        <polyline class="a" points="243.76 577.21 243.76 582.79 240.07 582.79 243.53 582.79 245.79 582.79 243.76 582.79 245.79 582.79 245.79 607.78 287.37 607.78 287.37 605.61 287.37 605.49 287.37 607.78 287.37 601.3 287.37 531.35" />
        <line class="a" x1="242.83" y1="487.05" x2="289.09" y2="487.05" />
        <line class="a" x1="242.83" y1="449.49" x2="248.67" y2="449.49" />
        <line class="a" x1="185.06" y1="487.05" x2="229.37" y2="487.05" />
        <g>
          <path class="c" d="M359.51,337.45H359v-3.2l-1,.36v-.44l1.37-.51h.07Z" />
          <path class="c" d="M361.62,335.33H362a.86.86,0,0,0,.53-.18.6.6,0,0,0,.2-.47A.59.59,0,0,0,362,334a.71.71,0,0,0-.49.17.61.61,0,0,0-.19.47h-.48a1,1,0,0,1,.33-.74,1.19,1.19,0,0,1,.83-.3,1.21,1.21,0,0,1,.84.28,1,1,0,0,1,.3.79.9.9,0,0,1-.15.48,1,1,0,0,1-.44.34.94.94,0,0,1,.48.33.92.92,0,0,1,.17.55,1,1,0,0,1-.33.81,1.23,1.23,0,0,1-.86.3,1.29,1.29,0,0,1-.87-.29,1,1,0,0,1-.33-.76h.48a.63.63,0,0,0,.2.48.86.86,0,0,0,1.05,0,.71.71,0,0,0,.18-.52.66.66,0,0,0-.2-.51.86.86,0,0,0-.58-.18h-.36Z" />
          <path class="c" d="M366.37,337.45H363.9v-.35l1.31-1.45a4.28,4.28,0,0,0,.4-.53,1,1,0,0,0,.11-.43.65.65,0,0,0-.18-.48.62.62,0,0,0-.48-.19.74.74,0,0,0-.56.2.77.77,0,0,0-.19.57h-.48a1.15,1.15,0,0,1,.33-.85,1.29,1.29,0,0,1,.9-.32,1.16,1.16,0,0,1,.83.28.92.92,0,0,1,.31.73,2.18,2.18,0,0,1-.71,1.33l-1,1.1h1.89Z" />
        </g>
        <g>
          <path class="c" d="M400.8,337.45h-.48v-3.2l-1,.36v-.44l1.37-.51h.08Z" />
          <path class="c" d="M402.9,335.33h.36a.82.82,0,0,0,.53-.18.6.6,0,0,0,.2-.47.58.58,0,0,0-.66-.66.74.74,0,0,0-.5.17.64.64,0,0,0-.18.47h-.48a1,1,0,0,1,.33-.74,1.16,1.16,0,0,1,.83-.3,1.25,1.25,0,0,1,.84.28,1,1,0,0,1,.3.79.84.84,0,0,1-.16.48,1,1,0,0,1-.43.34,1,1,0,0,1,.48.33.92.92,0,0,1,.17.55,1,1,0,0,1-.34.81,1.23,1.23,0,0,1-.86.3,1.28,1.28,0,0,1-.86-.29.93.93,0,0,1-.34-.76h.49a.62.62,0,0,0,.19.48.86.86,0,0,0,1.05,0,.72.72,0,0,0,.19-.52.64.64,0,0,0-.21-.51.84.84,0,0,0-.58-.18h-.36Z" />
          <path class="c" d="M405.88,335.33h.36a.87.87,0,0,0,.54-.18.63.63,0,0,0,.19-.47.58.58,0,0,0-.66-.66.74.74,0,0,0-.5.17.64.64,0,0,0-.18.47h-.48a1,1,0,0,1,.33-.74,1.16,1.16,0,0,1,.83-.3,1.23,1.23,0,0,1,.84.28,1,1,0,0,1,.3.79.84.84,0,0,1-.16.48,1,1,0,0,1-.43.34,1,1,0,0,1,.48.33.92.92,0,0,1,.17.55,1,1,0,0,1-.34.81,1.22,1.22,0,0,1-.86.3,1.28,1.28,0,0,1-.86-.29.93.93,0,0,1-.34-.76h.49a.62.62,0,0,0,.19.48.86.86,0,0,0,1,0,.72.72,0,0,0,.19-.52.64.64,0,0,0-.21-.51.82.82,0,0,0-.58-.18h-.36Z" />
        </g>
        <g>
          <path class="c" d="M444.45,337.45H444v-3.2l-1,.36v-.44l1.37-.51h.08Z" />
          <path class="c" d="M446.55,335.33h.36a.84.84,0,0,0,.53-.18.6.6,0,0,0,.2-.47A.58.58,0,0,0,447,334a.72.72,0,0,0-.5.17.65.65,0,0,0-.19.47h-.47a.94.94,0,0,1,.32-.74,1.35,1.35,0,0,1,1.67,0,1,1,0,0,1,.31.79.92.92,0,0,1-.16.48.35.35,0,1,0,0,.67.86.86,0,0,1,.17.55,1,1,0,0,1-.33.81,1.23,1.23,0,0,1-.86.3,1.28,1.28,0,0,1-.86-.29.93.93,0,0,1-.34-.76h.48a.63.63,0,0,0,.2.48.86.86,0,0,0,1.05,0,.71.71,0,0,0,.18-.52.63.63,0,0,0-.2-.51.84.84,0,0,0-.58-.18h-.36Z" />
          <path class="c" d="M450.86,336.18h.52v.39h-.52v.88h-.49v-.88h-1.71v-.28l1.69-2.62h.51Zm-1.66,0h1.17v-1.85l-.05.1Z" />
        </g>
        <g>
          <path class="c" d="M429,270.72h-.49v-3.19l-1,.35v-.43l1.37-.52H429Z" />
          <path class="c" d="M431.11,268.6h.36a.74.74,0,0,0,.53-.18.59.59,0,0,0,.2-.47.58.58,0,0,0-.66-.66.68.68,0,0,0-.5.18.63.63,0,0,0-.19.47h-.47a1,1,0,0,1,.32-.75,1.24,1.24,0,0,1,.84-.29,1.16,1.16,0,0,1,.83.28,1,1,0,0,1,.31.78.86.86,0,0,1-.16.48,1,1,0,0,1-.44.35.87.87,0,0,1,.48.32.89.89,0,0,1,.17.56,1,1,0,0,1-.33.81,1.28,1.28,0,0,1-.86.29,1.3,1.3,0,0,1-.87-.28,1,1,0,0,1-.33-.76h.48a.6.6,0,0,0,.2.47.86.86,0,0,0,1.05,0,.7.7,0,0,0,.18-.52.6.6,0,0,0-.2-.5.89.89,0,0,0-.58-.19h-.36Z" />
          <path class="c" d="M433.61,268.83l.19-1.88h1.94v.44h-1.53l-.11,1a1.18,1.18,0,0,1,.63-.16,1.05,1.05,0,0,1,.82.34,1.34,1.34,0,0,1,.3.92,1.3,1.3,0,0,1-.32.92,1.15,1.15,0,0,1-.88.33,1.2,1.2,0,0,1-.81-.27,1.12,1.12,0,0,1-.36-.77h.45a.78.78,0,0,0,.23.49.72.72,0,0,0,.49.16.65.65,0,0,0,.53-.22,1,1,0,0,0,.19-.63.85.85,0,0,0-.21-.61.66.66,0,0,0-.54-.23.76.76,0,0,0-.5.14l-.12.1Z" />
        </g>
        <g>
          <path class="c" d="M356.81,232.32h-.48v-3.19l-1,.35v-.43l1.38-.52h.07Z" />
          <path class="c" d="M360.24,231.05h.53v.4h-.53v.87h-.48v-.87H358v-.29l1.69-2.61h.51Zm-1.65,0h1.17V229.2l-.06.11Z" />
          <path class="c" d="M363.67,232.32H361.2V232l1.3-1.45a3.18,3.18,0,0,0,.41-.54,1,1,0,0,0,.11-.43.68.68,0,0,0-.18-.48.62.62,0,0,0-.48-.19.78.78,0,0,0-.56.2.8.8,0,0,0-.19.57h-.48a1.11,1.11,0,0,1,.33-.84,1.23,1.23,0,0,1,.9-.32,1.2,1.2,0,0,1,.83.27.94.94,0,0,1,.31.74,2.16,2.16,0,0,1-.71,1.32l-1,1.1h1.89Z" />
        </g>
        <g>
          <path class="c" d="M357.81,175.6h-.48v-3.19l-1,.35v-.43l1.38-.52h.07Z" />
          <path class="c" d="M361.24,174.34h.52v.39h-.52v.87h-.48v-.87H359v-.28l1.69-2.62h.51Zm-1.66,0h1.18v-1.85l-.06.1Z" />
          <path class="c" d="M362.89,173.48h.36a.77.77,0,0,0,.54-.18.66.66,0,0,0-.47-1.13.67.67,0,0,0-.49.18.61.61,0,0,0-.19.47h-.48a1,1,0,0,1,.33-.75,1.23,1.23,0,0,1,.83-.29,1.17,1.17,0,0,1,.84.28,1,1,0,0,1,.3.79.78.78,0,0,1-.16.47.93.93,0,0,1-.43.35.87.87,0,0,1,.48.32,1,1,0,0,1,.17.56,1,1,0,0,1-.33.81,1.23,1.23,0,0,1-.86.3,1.29,1.29,0,0,1-.87-.29,1,1,0,0,1-.33-.76h.48a.58.58,0,0,0,.19.47.76.76,0,0,0,.53.18.74.74,0,0,0,.53-.18.7.7,0,0,0,.18-.52.63.63,0,0,0-.2-.5.87.87,0,0,0-.59-.18h-.36Z" />
        </g>
        <g>
          <path class="c" d="M297,160.2h-.48V157l-1,.36v-.44l1.38-.51H297Z" />
          <path class="c" d="M300.38,158.93h.53v.39h-.53v.88h-.48v-.88h-1.72V159l1.69-2.62h.51Zm-1.65,0h1.17v-1.85l-.06.1Z" />
          <path class="c" d="M303.36,158.93h.53v.39h-.53v.88h-.48v-.88h-1.72V159l1.69-2.62h.51Zm-1.65,0h1.17v-1.85l-.06.1Z" />
        </g>
        <g>
          <path class="c" d="M297,195.59h-.48v-3.2l-1,.36v-.44l1.38-.52H297Z" />
          <path class="c" d="M300.38,194.32h.53v.39h-.53v.88h-.48v-.88h-1.72v-.28l1.69-2.62h.51Zm-1.65,0h1.17v-1.85l-.06.1Z" />
          <path class="c" d="M301.56,193.7l.19-1.89h1.93v.45h-1.52l-.12,1a1.24,1.24,0,0,1,.63-.17,1.05,1.05,0,0,1,.82.34,1.31,1.31,0,0,1,.31.92,1.29,1.29,0,0,1-.32.92,1.12,1.12,0,0,1-.88.34,1.16,1.16,0,0,1-.81-.28,1.07,1.07,0,0,1-.37-.77h.46a.73.73,0,0,0,.23.49.71.71,0,0,0,.49.17.67.67,0,0,0,.53-.23,1,1,0,0,0,.19-.63.87.87,0,0,0-.21-.61.72.72,0,0,0-.55-.23.79.79,0,0,0-.49.14l-.13.1Z" />
        </g>
        <g>
          <path class="c" d="M297,232.15h-.48V229l-1,.35v-.43l1.38-.52H297Z" />
          <path class="c" d="M300.38,230.89h.53v.39h-.53v.87h-.48v-.87h-1.72V231l1.69-2.62h.51Zm-1.65,0h1.17V229l-.06.1Z" />
          <path class="c" d="M303.22,228.38v.4h-.09a1.26,1.26,0,0,0-.89.34,1.34,1.34,0,0,0-.38.9,1,1,0,0,1,.81-.34,1,1,0,0,1,.79.35,1.36,1.36,0,0,1,.29.89,1.33,1.33,0,0,1-.32.94,1.17,1.17,0,0,1-1.73-.07,1.69,1.69,0,0,1-.33-1.07v-.19a2.53,2.53,0,0,1,.44-1.59,1.63,1.63,0,0,1,1.32-.56Zm-.63,1.7a.82.82,0,0,0-.45.14.77.77,0,0,0-.29.38v.17a1.23,1.23,0,0,0,.21.75.63.63,0,0,0,.52.29.6.6,0,0,0,.51-.24,1,1,0,0,0,.19-.62,1,1,0,0,0-.19-.63A.61.61,0,0,0,302.59,230.08Z" />
        </g>
        <g>
          <path class="c" d="M297,265.77h-.48v-3.2l-1,.36v-.44l1.38-.51H297Z" />
          <path class="c" d="M300.38,264.5h.53v.39h-.53v.88h-.48v-.88h-1.72v-.28l1.69-2.61h.51Zm-1.65,0h1.17v-1.85l-.06.1Z" />
          <path class="c" d="M303.78,262.26l-1.57,3.51h-.5l1.56-3.38h-2V262h2.56Z" />
        </g>
        <g>
          <path class="c" d="M288.79,298.59h-.48v-3.2l-1,.36v-.44l1.38-.52h.07Z" />
          <path class="c" d="M292.22,297.32h.53v.39h-.53v.88h-.48v-.88H290v-.28l1.69-2.62h.51Zm-1.65,0h1.17v-1.85l-.06.1Z" />
          <path class="c" d="M295.47,295.8a.87.87,0,0,1-.15.5,1.08,1.08,0,0,1-.41.35,1,1,0,0,1,.47.37.88.88,0,0,1,.17.55,1,1,0,0,1-.33.78,1.45,1.45,0,0,1-1.74,0,1,1,0,0,1-.33-.78.94.94,0,0,1,.17-.55,1.07,1.07,0,0,1,.46-.38.92.92,0,0,1-.39-.34.89.89,0,0,1-.15-.5,1,1,0,0,1,.31-.76,1.3,1.3,0,0,1,1.61,0A1,1,0,0,1,295.47,295.8Zm-.39,1.76a.69.69,0,0,0-.21-.52.72.72,0,0,0-1.24.52.69.69,0,0,0,.19.5.72.72,0,0,0,.53.19.69.69,0,0,0,.53-.19A.65.65,0,0,0,295.08,297.56Zm-.73-2.4a.59.59,0,0,0-.45.17.72.72,0,0,0,0,.94.62.62,0,0,0,.46.18.59.59,0,0,0,.46-.18.62.62,0,0,0,.18-.46.63.63,0,0,0-.18-.47A.62.62,0,0,0,294.35,295.16Z" />
        </g>
        <g>
          <path class="c" d="M330.44,337.46H330v-3.19l-1,.35v-.43l1.37-.52h.07Z" />
          <path class="c" d="M332.55,335.34h.36a.8.8,0,0,0,.53-.17.61.61,0,0,0,.19-.47A.59.59,0,0,0,333,334a.67.67,0,0,0-.49.18.61.61,0,0,0-.19.47h-.48a1,1,0,0,1,.33-.75,1.23,1.23,0,0,1,.83-.29,1.17,1.17,0,0,1,.84.28,1,1,0,0,1,.3.79.84.84,0,0,1-.15.47,1,1,0,0,1-.44.35.87.87,0,0,1,.48.32,1,1,0,0,1,.17.56,1,1,0,0,1-.33.81,1.23,1.23,0,0,1-.86.3,1.29,1.29,0,0,1-.87-.29,1,1,0,0,1-.33-.76h.48a.63.63,0,0,0,.2.48.76.76,0,0,0,.52.17.74.74,0,0,0,.53-.18.7.7,0,0,0,.18-.52.63.63,0,0,0-.2-.5.86.86,0,0,0-.58-.18h-.36Z" />
          <path class="c" d="M336.41,337.46h-.49v-3.19l-1,.35v-.43l1.37-.52h.08Z" />
        </g>
        <g>
          <path class="c" d="M232.38,352.52h-.48v-3.2l-1,.36v-.44l1.37-.51h.08Z" />
          <path class="c" d="M236.15,350.91a2.2,2.2,0,0,1-.29,1.25,1,1,0,0,1-.9.41,1,1,0,0,1-.89-.4,2.16,2.16,0,0,1-.3-1.2v-.64a2.07,2.07,0,0,1,.29-1.23,1,1,0,0,1,.9-.41,1.06,1.06,0,0,1,.9.39,2.05,2.05,0,0,1,.29,1.21Zm-.48-.66a1.77,1.77,0,0,0-.17-.88.57.57,0,0,0-.54-.28.58.58,0,0,0-.54.27,1.74,1.74,0,0,0-.17.86V351a1.8,1.8,0,0,0,.18.91.57.57,0,0,0,.53.29.57.57,0,0,0,.53-.28,1.6,1.6,0,0,0,.18-.86Z" />
          <path class="c" d="M237.46,350.4h.36a.87.87,0,0,0,.54-.18.6.6,0,0,0,.19-.47.58.58,0,0,0-.66-.66.74.74,0,0,0-.5.17.64.64,0,0,0-.18.47h-.48a1,1,0,0,1,.33-.74,1.18,1.18,0,0,1,.83-.3,1.19,1.19,0,0,1,.84.29,1,1,0,0,1,.3.78.84.84,0,0,1-.16.48,1,1,0,0,1-.43.34,1,1,0,0,1,.48.33.93.93,0,0,1,.17.56,1,1,0,0,1-.34.8,1.22,1.22,0,0,1-.86.3,1.28,1.28,0,0,1-.86-.29,1,1,0,0,1-.34-.76h.49a.62.62,0,0,0,.19.48.86.86,0,0,0,1,0,.68.68,0,0,0,.19-.52.66.66,0,0,0-.2-.51.87.87,0,0,0-.59-.18h-.36Z" />
        </g>
        <g>
          <path class="c" d="M204.66,352.52h-.49v-3.2l-1,.36v-.44l1.37-.51h.08Z" />
          <path class="c" d="M208.43,350.91a2.2,2.2,0,0,1-.29,1.25,1,1,0,0,1-.9.41,1,1,0,0,1-.89-.4,2,2,0,0,1-.3-1.2v-.64a2.15,2.15,0,0,1,.28-1.23,1.06,1.06,0,0,1,.91-.41,1,1,0,0,1,.89.39,2.12,2.12,0,0,1,.3,1.21Zm-.48-.66a1.77,1.77,0,0,0-.17-.88.59.59,0,0,0-.54-.28.58.58,0,0,0-.54.27,1.74,1.74,0,0,0-.17.86V351a1.82,1.82,0,0,0,.17.91.6.6,0,0,0,.54.29.58.58,0,0,0,.53-.28A1.81,1.81,0,0,0,208,351Z" />
          <path class="c" d="M211.07,351.25h.52v.39h-.52v.88h-.49v-.88h-1.71v-.28l1.69-2.61h.51Zm-1.66,0h1.17V349.4l-.05.1Z" />
        </g>
        <g>
          <path class="c" d="M168.09,352.52h-.48v-3.2l-1,.36v-.44l1.37-.51h.08Z" />
          <path class="c" d="M171.86,350.91a2.2,2.2,0,0,1-.29,1.25,1,1,0,0,1-.9.41,1,1,0,0,1-.89-.4,2.16,2.16,0,0,1-.3-1.2v-.64a2.07,2.07,0,0,1,.29-1.23,1,1,0,0,1,.9-.41,1.06,1.06,0,0,1,.9.39,2.05,2.05,0,0,1,.29,1.21Zm-.48-.66a1.77,1.77,0,0,0-.17-.88.57.57,0,0,0-.54-.28.58.58,0,0,0-.54.27,1.74,1.74,0,0,0-.17.86V351a1.8,1.8,0,0,0,.18.91.57.57,0,0,0,.53.29.57.57,0,0,0,.53-.28,1.6,1.6,0,0,0,.18-.86Z" />
          <path class="c" d="M172.7,350.63l.19-1.88h1.93v.44h-1.53l-.11,1a1.24,1.24,0,0,1,.63-.17,1.07,1.07,0,0,1,.82.34,1.37,1.37,0,0,1,.3.93,1.26,1.26,0,0,1-.31.91,1.14,1.14,0,0,1-.88.34,1.17,1.17,0,0,1-.82-.28,1.1,1.1,0,0,1-.36-.76H173a.74.74,0,0,0,.24.48.69.69,0,0,0,.49.17.64.64,0,0,0,.52-.23,1.08,1.08,0,0,0,0-1.24.72.72,0,0,0-.55-.23.79.79,0,0,0-.49.14l-.13.1Z" />
        </g>
        <g>
          <path class="c" d="M131.52,352.52H131v-3.2l-1,.36v-.44l1.37-.51h.07Z" />
          <path class="c" d="M135.3,350.91a2.2,2.2,0,0,1-.29,1.25,1,1,0,0,1-.9.41,1,1,0,0,1-.9-.4,2.16,2.16,0,0,1-.3-1.2v-.64a2.15,2.15,0,0,1,.29-1.23,1,1,0,0,1,.9-.41,1,1,0,0,1,.9.39,2.12,2.12,0,0,1,.3,1.21Zm-.48-.66a1.65,1.65,0,0,0-.18-.88.57.57,0,0,0-.54-.28.58.58,0,0,0-.53.27,1.72,1.72,0,0,0-.18.86V351a1.8,1.8,0,0,0,.18.91.6.6,0,0,0,.54.29.59.59,0,0,0,.53-.28,1.81,1.81,0,0,0,.18-.86Z" />
          <path class="c" d="M137.79,348.74v.41h-.09a1.29,1.29,0,0,0-.89.33,1.39,1.39,0,0,0-.38.91,1,1,0,0,1,.81-.35,1,1,0,0,1,.79.35,1.37,1.37,0,0,1,.29.9,1.32,1.32,0,0,1-.31.93,1.13,1.13,0,0,1-.86.35,1.05,1.05,0,0,1-.87-.42,1.6,1.6,0,0,1-.34-1.07v-.18a2.49,2.49,0,0,1,.44-1.59,1.65,1.65,0,0,1,1.33-.57Zm-.63,1.7a.76.76,0,0,0-.45.15.74.74,0,0,0-.29.37v.18a1.23,1.23,0,0,0,.21.75.65.65,0,0,0,1,.05,1.14,1.14,0,0,0,0-1.26A.59.59,0,0,0,137.16,350.44Z" />
        </g>
        <g>
          <path class="c" d="M95,352.52h-.49v-3.2l-1,.36v-.44l1.37-.51H95Z" />
          <path class="c" d="M98.73,350.91a2.2,2.2,0,0,1-.29,1.25,1,1,0,0,1-.9.41,1,1,0,0,1-.89-.4,2,2,0,0,1-.3-1.2v-.64a2.15,2.15,0,0,1,.28-1.23,1,1,0,0,1,.91-.41,1,1,0,0,1,.89.39,2.12,2.12,0,0,1,.3,1.21Zm-.48-.66a1.77,1.77,0,0,0-.17-.88.59.59,0,0,0-.54-.28.58.58,0,0,0-.54.27,1.84,1.84,0,0,0-.18.86V351a1.8,1.8,0,0,0,.18.91.6.6,0,0,0,.54.29.58.58,0,0,0,.53-.28,1.81,1.81,0,0,0,.18-.86Z" />
          <path class="c" d="M101.78,349l-1.56,3.51h-.51l1.56-3.38h-2v-.39h2.55Z" />
        </g>
        <g>
          <path class="c" d="M100.38,425.14H99.9V422l-1,.35v-.43l1.37-.52h.08Z" />
          <path class="c" d="M104.15,423.53a2.26,2.26,0,0,1-.29,1.26,1.2,1.2,0,0,1-1.79,0,2.1,2.1,0,0,1-.3-1.19V423a2.08,2.08,0,0,1,.29-1.24,1,1,0,0,1,.9-.4,1.06,1.06,0,0,1,.9.39,2,2,0,0,1,.29,1.2Zm-.48-.65a1.81,1.81,0,0,0-.17-.89.66.66,0,0,0-1.08,0,1.69,1.69,0,0,0-.17.85v.77a1.73,1.73,0,0,0,.18.9.56.56,0,0,0,.53.29.58.58,0,0,0,.53-.27,1.64,1.64,0,0,0,.18-.87Z" />
          <path class="c" d="M107.05,422.35a.9.9,0,0,1-.15.51,1,1,0,0,1-.4.34,1.16,1.16,0,0,1,.47.37,1,1,0,0,1,.17.55,1,1,0,0,1-.33.78,1.45,1.45,0,0,1-1.74,0,1,1,0,0,1-.33-.78,1,1,0,0,1,.63-.92.89.89,0,0,1-.39-.35.84.84,0,0,1-.15-.5,1,1,0,0,1,.31-.75,1.12,1.12,0,0,1,.8-.28,1.16,1.16,0,0,1,.81.28A1,1,0,0,1,107.05,422.35Zm-.39,1.76a.66.66,0,0,0-.2-.51.68.68,0,0,0-.52-.2.66.66,0,0,0-.52.2.76.76,0,0,0,0,1,.76.76,0,0,0,.53.18.74.74,0,0,0,.53-.18A.67.67,0,0,0,106.66,424.11Zm-.72-2.4a.62.62,0,0,0-.46.18.64.64,0,0,0-.17.47.68.68,0,0,0,.17.47.61.61,0,0,0,.46.17.6.6,0,0,0,.46-.17.63.63,0,0,0,.17-.47.68.68,0,0,0-.17-.47A.62.62,0,0,0,105.94,421.71Z" />
        </g>
        <g>
          <path class="c" d="M138.12,425.14h-.48V422l-1,.35v-.43l1.38-.52h.07Z" />
          <path class="c" d="M141.89,423.53a2.17,2.17,0,0,1-.29,1.26,1.2,1.2,0,0,1-1.79,0,2.1,2.1,0,0,1-.3-1.19V423a2.16,2.16,0,0,1,.29-1.24,1,1,0,0,1,.9-.4,1,1,0,0,1,.9.39,2,2,0,0,1,.29,1.2Zm-.48-.65a1.71,1.71,0,0,0-.17-.89.57.57,0,0,0-.54-.28.58.58,0,0,0-.54.28,1.69,1.69,0,0,0-.17.85v.77a1.73,1.73,0,0,0,.18.9.58.58,0,0,0,.54.29.57.57,0,0,0,.52-.27,1.64,1.64,0,0,0,.18-.87Z" />
          <path class="c" d="M144.34,423.48a1.21,1.21,0,0,1-.35.29,1,1,0,0,1-.46.11,1,1,0,0,1-.57-.16,1.12,1.12,0,0,1-.38-.45,1.71,1.71,0,0,1-.13-.65,1.51,1.51,0,0,1,.15-.68,1,1,0,0,1,.4-.46,1.17,1.17,0,0,1,.62-.16,1,1,0,0,1,.88.42,1.78,1.78,0,0,1,.33,1.14V423a2.46,2.46,0,0,1-.44,1.61,1.7,1.7,0,0,1-1.31.52H143v-.41h.1a1.36,1.36,0,0,0,.92-.31A1.3,1.3,0,0,0,144.34,423.48Zm-.73,0a.79.79,0,0,0,.44-.14.83.83,0,0,0,.3-.37v-.19a1.3,1.3,0,0,0-.21-.77.62.62,0,0,0-1-.05,1,1,0,0,0-.2.64,1,1,0,0,0,.19.63A.58.58,0,0,0,143.61,423.48Z" />
        </g>
        <g>
          <path class="c" d="M203.89,469.58h-.49v-3.19l-1,.35v-.43l1.37-.52h.08Z" />
          <path class="c" d="M206.87,469.58h-.49v-3.19l-1,.35v-.43l1.37-.52h.08Z" />
          <path class="c" d="M210.11,467.92a1.12,1.12,0,0,1-.36.29,1,1,0,0,1-.46.11,1,1,0,0,1-.57-.16,1.1,1.1,0,0,1-.37-.45,1.54,1.54,0,0,1-.13-.65,1.51,1.51,0,0,1,.14-.68,1.08,1.08,0,0,1,.41-.46,1.12,1.12,0,0,1,.62-.16,1.06,1.06,0,0,1,.88.42,1.86,1.86,0,0,1,.32,1.14v.14a2.46,2.46,0,0,1-.43,1.61,1.71,1.71,0,0,1-1.32.52h-.09v-.41h.1a1.15,1.15,0,0,0,1.26-1.26Zm-.74,0a.7.7,0,0,0,.44-.14.83.83,0,0,0,.3-.37v-.19a1.37,1.37,0,0,0-.2-.77.6.6,0,0,0-.52-.29.63.63,0,0,0-.51.24,1,1,0,0,0-.19.64,1,1,0,0,0,.18.63A.59.59,0,0,0,209.37,467.92Z" />
        </g>
        <g>
          <path class="c" d="M203.89,504.38h-.49v-3.19l-1,.35v-.43l1.37-.52h.08Z" />
          <path class="c" d="M207.76,504.38h-2.47V504l1.31-1.45a3.62,3.62,0,0,0,.4-.54,1,1,0,0,0,.11-.43.68.68,0,0,0-.18-.48.62.62,0,0,0-.48-.19.74.74,0,0,0-.55.2.76.76,0,0,0-.2.57h-.48a1.11,1.11,0,0,1,.33-.84,1.24,1.24,0,0,1,.9-.32,1.2,1.2,0,0,1,.83.27.94.94,0,0,1,.31.74,2.16,2.16,0,0,1-.71,1.32l-1,1.1h1.89Z" />
          <path class="c" d="M210.64,502.77a2.2,2.2,0,0,1-.29,1.25,1,1,0,0,1-.9.41,1,1,0,0,1-.89-.4,2,2,0,0,1-.3-1.19v-.64a2.17,2.17,0,0,1,.28-1.24,1.22,1.22,0,0,1,1.8,0,2.11,2.11,0,0,1,.3,1.2Zm-.48-.65a1.81,1.81,0,0,0-.17-.89.59.59,0,0,0-.54-.28.57.57,0,0,0-.54.28,1.79,1.79,0,0,0-.18.85v.77a1.76,1.76,0,0,0,.18.9.58.58,0,0,0,.54.29.59.59,0,0,0,.53-.27,1.85,1.85,0,0,0,.18-.87Z" />
        </g>
        <g>
          <path class="c" d="M262.26,435.87h-.49v-3.19l-1,.35v-.43l1.37-.52h.08Z" />
          <path class="c" d="M266.13,435.87h-2.47v-.34l1.31-1.45a3.62,3.62,0,0,0,.4-.54.91.91,0,0,0,.11-.42.69.69,0,0,0-.18-.49.66.66,0,0,0-.48-.19.71.71,0,0,0-.55.21.73.73,0,0,0-.2.56h-.48a1.12,1.12,0,0,1,.33-.84,1.29,1.29,0,0,1,.9-.32,1.2,1.2,0,0,1,.83.27.94.94,0,0,1,.31.74,2.2,2.2,0,0,1-.71,1.33l-1,1.09h1.89Z" />
          <path class="c" d="M267.34,433.75h.36a.78.78,0,0,0,.53-.17.62.62,0,0,0,.2-.47.59.59,0,0,0-.66-.67.68.68,0,0,0-.5.18.65.65,0,0,0-.19.47h-.47a1,1,0,0,1,.32-.75,1.24,1.24,0,0,1,.84-.29,1.16,1.16,0,0,1,.83.28,1,1,0,0,1,.31.79.86.86,0,0,1-.16.47,1,1,0,0,1-.44.35.87.87,0,0,1,.48.32.89.89,0,0,1,.17.56,1,1,0,0,1-.33.81,1.23,1.23,0,0,1-.86.3,1.28,1.28,0,0,1-.86-.29.94.94,0,0,1-.34-.76h.48a.63.63,0,0,0,.2.48.77.77,0,0,0,.52.17.72.72,0,0,0,.53-.18.7.7,0,0,0,.18-.52.6.6,0,0,0-.2-.5.84.84,0,0,0-.58-.18h-.36Z" />
        </g>
        <g>
          <path class="c" d="M262.83,469h-.48v-3.2l-1,.36v-.44l1.37-.51h.08Z" />
          <path class="c" d="M266.71,469h-2.48v-.35l1.31-1.45a3.45,3.45,0,0,0,.4-.53,1,1,0,0,0,.11-.43.69.69,0,0,0-.18-.49.65.65,0,0,0-.48-.18.72.72,0,0,0-.55.2.77.77,0,0,0-.2.56h-.48a1.11,1.11,0,0,1,.34-.84,1.24,1.24,0,0,1,.89-.32,1.19,1.19,0,0,1,.84.28.94.94,0,0,1,.3.73,2.13,2.13,0,0,1-.71,1.33l-1,1.1h1.9Z" />
          <path class="c" d="M269.69,469h-2.48v-.35l1.31-1.45a3.45,3.45,0,0,0,.4-.53,1,1,0,0,0,.11-.43.69.69,0,0,0-.18-.49.64.64,0,0,0-.47-.18.73.73,0,0,0-.56.2.77.77,0,0,0-.2.56h-.48a1.11,1.11,0,0,1,.34-.84,1.25,1.25,0,0,1,.9-.32,1.18,1.18,0,0,1,.83.28.94.94,0,0,1,.3.73,2.13,2.13,0,0,1-.71,1.33l-1,1.1h1.9Z" />
        </g>
        <g>
          <path class="c" d="M262.65,504.38h-.44v-3.19l-.87.35v-.43l1.24-.52h.07Z" />
          <path class="c" d="M266.16,504.38h-2.24V504l1.18-1.45a3.08,3.08,0,0,0,.37-.54,1.08,1.08,0,0,0,.1-.43.72.72,0,0,0-.17-.48A.51.51,0,0,0,265,501a.65.65,0,0,0-.5.2.85.85,0,0,0-.18.57h-.43a1.17,1.17,0,0,1,.3-.84,1,1,0,0,1,.81-.32,1.05,1.05,0,0,1,.76.27,1,1,0,0,1,.27.74,2.21,2.21,0,0,1-.64,1.32l-.92,1.1h1.72Z" />
          <path class="c" d="M268.05,504.38h-.44v-3.19l-.88.35v-.43l1.25-.52h.07Z" />
        </g>
        <g>
          <path class="c" d="M202.58,548h-.48v-3.19l-1,.35v-.43l1.38-.52h.07Z" />
          <path class="c" d="M204.21,546.08l.19-1.88h1.93v.44h-1.52l-.12,1a1.23,1.23,0,0,1,.63-.16,1,1,0,0,1,.82.34,1.34,1.34,0,0,1,.3.92,1.28,1.28,0,0,1-.31.92,1.12,1.12,0,0,1-.88.34,1.23,1.23,0,0,1-.82-.28,1.12,1.12,0,0,1-.36-.77h.46a.73.73,0,0,0,.23.49.71.71,0,0,0,.49.16.63.63,0,0,0,.52-.22,1,1,0,0,0,.2-.63.85.85,0,0,0-.21-.61.72.72,0,0,0-.55-.23.79.79,0,0,0-.49.14l-.13.1Z" />
          <path class="c" d="M209,546.71h.53v.39H209V548h-.48v-.87h-1.72v-.28l1.69-2.62H209Zm-1.65,0h1.17v-1.85l-.06.1Z" />
        </g>
        <g>
          <path class="c" d="M262.74,548h-.48v-3.19l-1,.35v-.43l1.38-.52h.07Z" />
          <path class="c" d="M264.37,546.08l.19-1.88h1.93v.44H265l-.11,1a1.18,1.18,0,0,1,.63-.16,1,1,0,0,1,.82.34,1.34,1.34,0,0,1,.3.92,1.28,1.28,0,0,1-.31.92,1.14,1.14,0,0,1-.88.34,1.21,1.21,0,0,1-.82-.28,1.12,1.12,0,0,1-.36-.77h.45a.78.78,0,0,0,.23.49.73.73,0,0,0,.5.16.65.65,0,0,0,.52-.22,1,1,0,0,0,.19-.63.9.9,0,0,0-.2-.61.72.72,0,0,0-.55-.23.79.79,0,0,0-.49.14l-.13.1Z" />
          <path class="c" d="M268.7,548h-.48v-3.19l-1,.35v-.43l1.38-.52h.07Z" />
        </g>
        <g>
          <path class="c" d="M262.74,586.31h-.48v-3.2l-1,.36V583l1.38-.51h.07Z" />
          <path class="c" d="M264.37,584.42l.19-1.88h1.93V583H265l-.11,1a1.19,1.19,0,0,1,.63-.17,1.07,1.07,0,0,1,.82.34,1.37,1.37,0,0,1,.3.93,1.26,1.26,0,0,1-.31.91,1.14,1.14,0,0,1-.88.34,1.17,1.17,0,0,1-.82-.28,1.1,1.1,0,0,1-.36-.76h.45a.78.78,0,0,0,.23.48.74.74,0,0,0,.5.17.65.65,0,0,0,.52-.23,1.08,1.08,0,0,0,0-1.24.72.72,0,0,0-.55-.23.79.79,0,0,0-.49.14l-.13.1Z" />
          <path class="c" d="M269.6,586.31h-2.47V586l1.3-1.45a2.89,2.89,0,0,0,.4-.53.84.84,0,0,0,.11-.43.65.65,0,0,0-.18-.48.6.6,0,0,0-.47-.19.73.73,0,0,0-.56.2.81.81,0,0,0-.2.57h-.48a1.12,1.12,0,0,1,.34-.85,1.25,1.25,0,0,1,.9-.32,1.22,1.22,0,0,1,.83.28.94.94,0,0,1,.3.73,2.1,2.1,0,0,1-.71,1.33l-1,1.1h1.9Z" />
        </g>
        <g>
          <path class="c" d="M202.58,586.31h-.48v-3.2l-1,.36V583l1.38-.51h.07Z" />
          <path class="c" d="M204.21,584.42l.19-1.88h1.93V583h-1.52l-.12,1a1.24,1.24,0,0,1,.63-.17,1.05,1.05,0,0,1,.82.34,1.37,1.37,0,0,1,.3.93,1.26,1.26,0,0,1-.31.91,1.12,1.12,0,0,1-.88.34,1.18,1.18,0,0,1-.82-.28,1.1,1.1,0,0,1-.36-.76h.46a.73.73,0,0,0,.23.48.71.71,0,0,0,.49.17.64.64,0,0,0,.52-.23.93.93,0,0,0,.2-.63.89.89,0,0,0-.21-.61.72.72,0,0,0-.55-.23.79.79,0,0,0-.49.14l-.13.1Z" />
          <path class="c" d="M207.19,584.42l.19-1.88h1.93V583h-1.52l-.12,1a1.24,1.24,0,0,1,.63-.17,1.05,1.05,0,0,1,.82.34,1.37,1.37,0,0,1,.31.93,1.26,1.26,0,0,1-.32.91,1.12,1.12,0,0,1-.88.34,1.2,1.2,0,0,1-.82-.28,1.1,1.1,0,0,1-.36-.76h.46a.73.73,0,0,0,.23.48.71.71,0,0,0,.49.17.67.67,0,0,0,.53-.23,1,1,0,0,0,.19-.63.89.89,0,0,0-.21-.61.72.72,0,0,0-.55-.23.79.79,0,0,0-.49.14l-.13.1Z" />
        </g>
        <g>
          <path class="c" d="M318.47,385.88l-.45,1.34h-.56L318.9,383h.66l1.45,4.25h-.58l-.46-1.34Zm1.39-.43-.42-1.22c-.09-.27-.15-.53-.22-.77h0c-.06.25-.13.51-.21.77l-.42,1.22Z" />
          <path class="c" d="M324.1,386.39c0,.31,0,.59,0,.83h-.49l0-.5h0a1.15,1.15,0,0,1-1,.57c-.48,0-1.05-.27-1.05-1.34v-1.78h.55v1.69c0,.58.18,1,.68,1a.8.8,0,0,0,.73-.51.82.82,0,0,0,.05-.28v-1.87h.56Z" />
          <path class="c" d="M325,382.75h.55v4.47H325Z" />
          <path class="c" d="M328.2,387.22l-.05-.39h0a1.13,1.13,0,0,1-.93.46.87.87,0,0,1-.93-.88c0-.74.65-1.14,1.83-1.13v-.07a.62.62,0,0,0-.69-.7,1.49,1.49,0,0,0-.79.23l-.13-.37a1.93,1.93,0,0,1,1-.27c.93,0,1.16.64,1.16,1.25v1.14a4.12,4.12,0,0,0,.05.73Zm-.08-1.56c-.61,0-1.3.1-1.3.69a.49.49,0,0,0,.53.53.75.75,0,0,0,.73-.51.58.58,0,0,0,0-.18Z" />
        </g>
      </g>
      <!--./Layout Paths-->
      <!--Invisible Room Hitboxes-->
      <g class="room-box">
        <rect id="134" (click)="emitSection($event)" [ngClass]="selectedSection === '134' ? 'highlighted' : ''" x="424.15"
          y="308" width="48.36" height="43.06" />
        <rect id="133" (click)="emitSection($event)" [ngClass]="selectedSection === '133' ? 'highlighted' : ''" x="382.87"
          y="308" width="41.29" height="43.06" />
        <rect id="132" (click)="emitSection($event)" [ngClass]="selectedSection === '132' ? 'highlighted' : ''" x="342.17"
          y="308" width="40.7" height="43.06" />
        <rect id="135" (click)="emitSection($event)" [ngClass]="selectedSection === '135' ? 'highlighted' : ''" x="390.53"
          y="246.66" width="81.98" height="43.65" />
        <rect id="142" (click)="emitSection($event)" [ngClass]="selectedSection === '142' ? 'highlighted' : ''" x="337.45"
          y="221.89" width="45.41" height="17.1" />
        <rect id="143" (click)="emitSection($event)" [ngClass]="selectedSection === '143' ? 'highlighted' : ''" x="337.45"
          y="140.5" width="45.41" height="81.39" />
        <rect id="144" (click)="emitSection($event)" [ngClass]="selectedSection === '144' ? 'highlighted' : ''" x="278.47"
          y="140.5" width="43.65" height="38.93" />
        <rect id="145" (click)="emitSection($event)" [ngClass]="selectedSection === '145' ? 'highlighted' : ''" x="278.47"
          y="179.43" width="43.65" height="36.57" />
        <rect id="146" (click)="emitSection($event)" [ngClass]="selectedSection === '146' ? 'highlighted' : ''" x="278.47"
          y="215.99" width="43.65" height="33.62" />
        <rect id="147" (click)="emitSection($event)" [ngClass]="selectedSection === '147' ? 'highlighted' : ''" x="278.47"
          y="249.61" width="43.65" height="37.75" />
        <rect id="148" (click)="emitSection($event)" [ngClass]="selectedSection === '148' ? 'highlighted' : ''" x="278.47"
          y="287.36" width="27.13" height="19.46" />
        <rect id="131" (click)="emitSection($event)" [ngClass]="selectedSection === '131' ? 'highlighted' : ''" x="322.12"
          y="323.93" width="20.05" height="27.13" />
        <rect id="103" (click)="emitSection($event)" [ngClass]="selectedSection === '103' ? 'highlighted' : ''" x="225.39"
          y="338.67" width="19.46" height="23.59" />
        <rect id="104" (click)="emitSection($event)" [ngClass]="selectedSection === '104' ? 'highlighted' : ''" x="188.82"
          y="338.67" width="36.57" height="44.23" />
        <rect id="105" (click)="emitSection($event)" [ngClass]="selectedSection === '105' ? 'highlighted' : ''" x="152.84"
          y="338.67" width="35.98" height="44.23" />
        <rect id="106" (click)="emitSection($event)" [ngClass]="selectedSection === '106' ? 'highlighted' : ''" x="116.28"
          y="338.67" width="36.57" height="44.23" />
        <rect id="107" (click)="emitSection($event)" [ngClass]="selectedSection === '107' ? 'highlighted' : ''" x="77.35"
          y="338.67" width="38.93" height="44.23" />
        <rect id="108" (click)="emitSection($event)" [ngClass]="selectedSection === '108' ? 'highlighted' : ''" x="77.35"
          y="398.83" width="51.31" height="45.41" />
        <rect id="109" (click)="emitSection($event)" [ngClass]="selectedSection === '109' ? 'highlighted' : ''" x="128.66"
          y="398.83" width="47.18" height="45.41" />
        <rect id="119" (click)="emitSection($event)" [ngClass]="selectedSection === '119' ? 'highlighted' : ''" x="185.28"
          y="450.73" width="44.23" height="36.57" />
        <rect id="120" (click)="emitSection($event)" [ngClass]="selectedSection === '120' ? 'highlighted' : ''" x="185.28"
          y="487.3" width="44.23" height="44.23" />
        <rect id="154" (click)="emitSection($event)" [ngClass]="selectedSection === '154' ? 'highlighted' : ''" x="185.28"
          y="531.54" width="43.65" height="39.52" />
        <rect id="151" (click)="emitSection($event)" [ngClass]="selectedSection === '151' ? 'highlighted' : ''" x="243.67"
          y="531.54" width="43.65" height="39.52" />
        <rect id="121" (click)="emitSection($event)" [ngClass]="selectedSection === '121' ? 'highlighted' : ''" x="243.08"
          y="487.3" width="46" height="44.23" />
        <rect id="122" (click)="emitSection($event)" [ngClass]="selectedSection === '122' ? 'highlighted' : ''" x="243.08"
          y="449.55" width="46" height="37.75" />
        <rect id="123" (click)="emitSection($event)" [ngClass]="selectedSection === '123' ? 'highlighted' : ''" x="242.49"
          y="421.24" width="46.59" height="28.31" />
        <polygon id="155" (click)="emitSection($event)" [ngClass]="selectedSection === '155' ? 'highlighted' : ''"
          points="224.8 582.85 224.8 589.34 226.57 589.34 226.57 607.62 185.28 607.62 185.28 571.05 228.93 571.05 228.93 582.85 224.8 582.85" />
        <polygon id="152" (click)="emitSection($event)" [ngClass]="selectedSection === '152' ? 'highlighted' : ''"
          points="287.32 571.05 287.32 607.62 246.03 607.62 246.03 582.85 243.67 582.85 243.67 571.05 287.32 571.05" />
        <polygon id="aula" (click)="emitSection($event)" [ngClass]="selectedSection === 'aula' ? 'highlighted' : ''"
          points="342.27 351.43 342.3 354.71 342.3 387.02 336.61 392.58 329.8 399.23 325.2 403.6 295.06 403.6 289.14 403.6 289.12 383.31 304.39 383.31 321.99 366.13 321.99 351.36 342.27 351.43" />
      </g>
      <!--./Invisible Room Hitboxes-->
    </svg>