<svg xmlns="http://www.w3.org/2000/svg" viewBox="0 0 569 692">
  <defs>
    <style>
      .a, .b, .d {
        fill: none;
      }

      .a, .b {
        stroke: #000;
        stroke-miterlimit: 10;
        stroke-width: 0.5px;
      }

      .b {
        opacity: 0.3;
      }

      .c {
        fill: #fff;
      }
    </style>
  </defs>
  <title>Element 4</title>
  <g>
    <g>
      <rect class="a" x="80.85" y="340.6" width="90.93" height="97.63"/>
      <line class="a" x1="224.02" y1="420.61" x2="221.48" y2="418.06"/>
      <line class="a" x1="261.28" y1="389.42" x2="261.27" y2="382.24"/>
      <line class="a" x1="210.08" y1="406.66" x2="207.63" y2="404.21"/>
      <line class="b" x1="201.85" y1="442.59" x2="192.46" y2="433.23"/>
      <line class="b" x1="202.86" y1="441.58" x2="193.47" y2="432.22"/>
      <line class="b" x1="213.31" y1="431.72" x2="203.62" y2="422.07"/>
      <line class="b" x1="214.35" y1="430.74" x2="204.64" y2="421.05"/>
      <line class="a" x1="267.96" y1="402.34" x2="288.08" y2="402.34"/>
      <line class="a" x1="277.55" y1="237.71" x2="277.55" y2="141.99"/>
      <line class="b" x1="210.18" y1="434.69" x2="200.57" y2="425.11"/>
      <line class="b" x1="209.14" y1="435.67" x2="199.57" y2="426.12"/>
      <line class="a" x1="186.73" y1="421.41" x2="174.17" y2="433.13"/>
      <line class="b" x1="203.88" y1="440.56" x2="194.49" y2="431.2"/>
      <line class="b" x1="204.88" y1="439.55" x2="195.49" y2="430.19"/>
      <line class="b" x1="211.23" y1="433.7" x2="201.59" y2="424.09"/>
      <line class="b" x1="212.27" y1="432.71" x2="202.6" y2="423.07"/>
      <line class="b" x1="208.09" y1="436.66" x2="198.55" y2="427.14"/>
      <line class="b" x1="206" y1="438.63" x2="196.51" y2="429.17"/>
      <line class="b" x1="207.05" y1="437.65" x2="197.54" y2="428.15"/>
      <line class="a" x1="192.36" y1="387.46" x2="192.36" y2="382.24"/>
      <line class="a" x1="351.25" y1="306.63" x2="391.46" y2="306.63"/>
      <line class="a" x1="354.12" y1="243.46" x2="354.12" y2="237.71"/>
      <line class="a" x1="438.35" y1="306.63" x2="469.94" y2="306.63"/>
      <line class="a" x1="396.24" y1="306.63" x2="433.58" y2="306.63"/>
      <line class="a" x1="335.82" y1="253.02" x2="326.36" y2="253.02"/>
      <polyline class="a" points="335.82 253.03 335.82 262.48 341.4 268.06"/>
      <line class="a" x1="354.12" y1="248.24" x2="354.12" y2="253.02"/>
      <line class="a" x1="321.59" y1="253.02" x2="315.84" y2="253.02"/>
      <line class="a" x1="308.19" y1="291.31" x2="304.35" y2="291.31"/>
      <line class="a" x1="448.88" y1="291.31" x2="469.94" y2="291.31"/>
      <line class="a" x1="404.85" y1="291.31" x2="444.1" y2="291.31"/>
      <rect class="a" x="279.94" y="144.39" width="96.67" height="90.93"/>
      <line class="a" x1="359.15" y1="285.82" x2="389.53" y2="255.43"/>
      <line class="b" x1="262.4" y1="323.78" x2="272.61" y2="314.47"/>
      <line class="b" x1="266.52" y1="327.93" x2="276.74" y2="318.6"/>
      <line class="b" x1="272.77" y1="334.07" x2="282.94" y2="324.79"/>
      <line class="b" x1="272.7" y1="334.14" x2="272.77" y2="334.07"/>
      <line class="a" x1="244.04" y1="361.66" x2="244.04" y2="338.21"/>
      <line class="a" x1="469.94" y1="291.31" x2="469.94" y2="306.63"/>
      <line class="a" x1="427.82" y1="306.63" x2="427.82" y2="350.66"/>
      <polyline class="a" points="346.47 306.63 339.77 306.63 339.77 350.66"/>
      <line class="a" x1="389.53" y1="247.28" x2="379.01" y2="237.71"/>
      <line class="a" x1="335.82" y1="253.02" x2="356.43" y2="253.02"/>
      <line class="b" x1="378.14" y1="266.8" x2="360.36" y2="249.07"/>
      <line class="b" x1="377.13" y1="267.82" x2="359.34" y2="250.08"/>
      <line class="b" x1="380.16" y1="264.76" x2="371.28" y2="255.9"/>
      <line class="b" x1="379.15" y1="265.78" x2="361.38" y2="248.05"/>
      <line class="b" x1="376.11" y1="268.83" x2="358.34" y2="251.1"/>
      <line class="b" x1="375.09" y1="269.85" x2="357.32" y2="252.11"/>
      <line class="b" x1="260.33" y1="321.72" x2="270.54" y2="312.4"/>
      <line class="a" x1="250.21" y1="330.96" x2="260.33" y2="321.72"/>
      <line class="b" x1="263.41" y1="324.83" x2="273.64" y2="315.49"/>
      <line class="b" x1="261.37" y1="322.75" x2="271.58" y2="313.43"/>
      <line class="b" x1="381.18" y1="263.74" x2="372.38" y2="254.97"/>
      <line class="b" x1="259.34" y1="320.65" x2="269.51" y2="311.36"/>
      <line class="a" x1="379.01" y1="141.99" x2="379.01" y2="237.71"/>
      <line class="b" x1="359.11" y1="268.1" x2="350.22" y2="259.23"/>
      <polyline class="a" points="277.55 231.01 168.43 231.01 168.43 338.21"/>
      <line class="b" x1="371.28" y1="255.9" x2="362.39" y2="247.03"/>
      <polyline class="a" points="277.55 141.99 78.46 141.99 78.46 338.21"/>
      <polygon class="a" points="275.15 228.62 275.15 144.86 81.32 144.86 81.32 335.82 166.04 335.82 166.04 228.62 275.15 228.62"/>
      <line class="b" x1="372.06" y1="272.89" x2="354.28" y2="255.17"/>
      <line class="b" x1="371.04" y1="273.91" x2="353.27" y2="256.19"/>
      <line class="b" x1="374.08" y1="270.86" x2="356.31" y2="253.14"/>
      <line class="b" x1="373.07" y1="271.88" x2="355.29" y2="254.15"/>
      <line class="a" x1="341.4" y1="268.06" x2="371.74" y2="237.71"/>
      <line class="b" x1="370.02" y1="274.93" x2="352.25" y2="257.2"/>
      <line class="b" x1="369.01" y1="275.94" x2="351.24" y2="258.22"/>
      <line class="a" x1="174.17" y1="440.63" x2="174.17" y2="338.21"/>
      <line class="a" x1="277.55" y1="306.63" x2="277.55" y2="237.71"/>
      <line class="a" x1="379.01" y1="237.71" x2="277.55" y2="237.71"/>
      <polyline class="a" points="320.62 350.66 469.94 350.66 469.94 306.63"/>
      <line class="a" x1="320.62" y1="323.86" x2="326.36" y2="323.86"/>
      <line class="a" x1="230.65" y1="371.24" x2="230.65" y2="361.66"/>
      <line class="a" x1="220.12" y1="361.66" x2="233.04" y2="361.66"/>
      <polyline class="a" points="469.94 291.31 469.94 247.28 389.53 247.28"/>
      <line class="a" x1="389.53" y1="247.28" x2="389.53" y2="291.31"/>
      <line class="a" x1="427.82" y1="291.31" x2="427.82" y2="247.28"/>
      <polyline class="a" points="302.04 344.34 294.43 351.96 298.09 348.29 317.78 367.99"/>
      <polyline class="a" points="291.08 355.31 283.36 363.03 286.95 359.44 306.5 379"/>
      <line class="a" x1="331.15" y1="323.86" x2="339.77" y2="323.86"/>
      <polyline class="a" points="400.08 291.31 388.42 291.31 367.82 291.31 364.65 291.31 359.15 285.82"/>
      <line class="a" x1="382.84" y1="306.63" x2="382.84" y2="350.66"/>
      <line class="a" x1="192.36" y1="409.04" x2="192.36" y2="392.33"/>
      <line class="a" x1="201.46" y1="382.24" x2="174.17" y2="382.24"/>
      <polyline class="a" points="174.17 409.04 179.44 409.04 184.22 409.04 199.99 409.04"/>
      <line class="a" x1="237.83" y1="361.66" x2="244.04" y2="361.66"/>
      <line class="a" x1="192.36" y1="397.56" x2="194.27" y2="397.56"/>
      <polyline class="a" points="199.06 397.56 200.97 397.56 207.63 404.21"/>
      <polyline class="a" points="312.96 291.31 315.83 291.31 315.83 275.24"/>
      <line class="a" x1="304.35" y1="294.18" x2="304.35" y2="283.65"/>
      <line class="a" x1="315.84" y1="283.65" x2="277.55" y2="283.65"/>
      <line class="a" x1="174.17" y1="338.21" x2="244.04" y2="338.21"/>
      <line class="a" x1="220.12" y1="382.24" x2="220.12" y2="338.21"/>
      <line class="a" x1="315.84" y1="237.71" x2="315.84" y2="270.13"/>
      <polyline class="a" points="206.27 382.24 230.65 382.24 230.65 376.02"/>
      <line class="b" x1="264.45" y1="325.86" x2="274.67" y2="316.53"/>
      <line class="a" x1="345.04" y1="271.7" x2="341.4" y2="268.06"/>
      <polyline class="a" points="78.46 338.21 78.46 440.63 174.17 440.63"/>
      <line class="a" x1="359.15" y1="285.82" x2="356.44" y2="283.1"/>
      <polyline class="b" points="158.38 180.76 150.72 180.76 150.72 173.1 158.38 173.1 158.38 180.76"/>
      <rect class="b" x="148.33" y="170.71" width="12.45" height="12.45"/>
      <line class="b" x1="148.33" y1="183.15" x2="150.72" y2="180.76"/>
      <line class="b" x1="148.33" y1="170.71" x2="150.72" y2="173.1"/>
      <line class="b" x1="148.33" y1="219.52" x2="150.72" y2="217.13"/>
      <line class="b" x1="148.33" y1="207.08" x2="150.72" y2="209.47"/>
      <line class="b" x1="158.38" y1="209.47" x2="160.78" y2="207.08"/>
      <line class="b" x1="160.78" y1="219.52" x2="158.38" y2="217.13"/>
      <line class="a" x1="244.04" y1="361.66" x2="250.61" y2="369.51"/>
      <line class="b" x1="158.38" y1="173.1" x2="160.78" y2="170.71"/>
      <line class="b" x1="160.78" y1="183.15" x2="158.38" y2="180.76"/>
      <line class="a" x1="277.55" y1="141.99" x2="379.01" y2="141.99"/>
      <line class="b" x1="187.78" y1="420.44" x2="196.61" y2="429.26"/>
      <line class="b" x1="186.73" y1="421.41" x2="195.56" y2="430.25"/>
      <line class="b" x1="191.98" y1="416.51" x2="200.79" y2="425.32"/>
      <line class="b" x1="190.93" y1="417.49" x2="199.75" y2="426.31"/>
      <line class="b" x1="194.08" y1="414.55" x2="202.89" y2="423.36"/>
      <line class="b" x1="193.04" y1="415.54" x2="201.85" y2="424.35"/>
      <line class="b" x1="197.22" y1="411.61" x2="206.03" y2="420.41"/>
      <line class="b" x1="196.18" y1="412.59" x2="204.98" y2="421.39"/>
      <line class="b" x1="192.15" y1="433.45" x2="206.03" y2="420.41"/>
      <line class="b" x1="184.63" y1="423.38" x2="193.47" y2="432.22"/>
      <line class="b" x1="188.83" y1="419.46" x2="197.66" y2="428.28"/>
      <line class="b" x1="195.13" y1="413.57" x2="203.93" y2="422.37"/>
      <line class="b" x1="185.68" y1="422.39" x2="194.52" y2="431.23"/>
      <line class="b" x1="189.88" y1="418.47" x2="198.7" y2="427.3"/>
      <line class="a" x1="174.17" y1="338.21" x2="78.46" y2="338.21"/>
      <line class="a" x1="261.29" y1="402.34" x2="261.29" y2="394.19"/>
      <polyline class="a" points="320.62 350.35 308.33 338.06 305.31 341.09 312.15 334.23 320.61 323.86 316.52 318.97 320.62 323.86 320.62 365.22 303.18 382.24 261.27 382.24 257.17 377.35 261.27 382.24 272.76 373.63 280.05 366.34 275.54 370.84 286.95 382.24"/>
      <polyline class="a" points="195.37 448.7 195.89 448.2 214.69 430.41 216.86 432.57 226.76 423.34"/>
      <line class="a" x1="206.44" y1="403.02" x2="186.62" y2="421.52"/>
      <polyline class="a" points="242.11 439.67 242.11 402.34 263.18 402.34"/>
      <rect class="b" x="111.96" y="316.2" width="12.44" height="12.45"/>
      <line class="b" x1="122" y1="245.85" x2="124.4" y2="243.46"/>
      <line class="b" x1="111.96" y1="316.2" x2="114.35" y2="318.59"/>
      <polyline class="b" points="122 326.25 114.35 326.25 114.35 318.59 122 318.59 122 326.25"/>
      <line class="b" x1="111.96" y1="243.46" x2="114.35" y2="245.85"/>
      <polyline class="b" points="122 253.5 114.35 253.5 114.35 245.85 122 245.85 122 253.5"/>
      <line class="b" x1="124.4" y1="255.89" x2="122" y2="253.5"/>
      <line class="b" x1="111.96" y1="255.89" x2="114.35" y2="253.5"/>
      <line class="b" x1="111.96" y1="279.83" x2="114.35" y2="282.22"/>
      <polyline class="b" points="122 289.88 114.35 289.88 114.35 282.22 122 282.22 122 289.88"/>
      <line class="b" x1="124.4" y1="292.27" x2="122" y2="289.88"/>
      <line class="b" x1="111.96" y1="292.27" x2="114.35" y2="289.88"/>
      <line class="b" x1="124.4" y1="328.64" x2="122" y2="326.25"/>
      <line class="b" x1="111.96" y1="328.64" x2="114.35" y2="326.25"/>
      <rect class="b" x="111.96" y="279.83" width="12.44" height="12.45"/>
      <line class="b" x1="122" y1="318.59" x2="124.4" y2="316.2"/>
      <line class="b" x1="271.66" y1="333.1" x2="281.91" y2="323.75"/>
      <line class="b" x1="270.64" y1="332.06" x2="280.87" y2="322.73"/>
      <line class="b" x1="267.55" y1="328.96" x2="277.78" y2="319.62"/>
      <line class="b" x1="265.48" y1="326.9" x2="275.71" y2="317.56"/>
      <line class="b" x1="269.61" y1="331.03" x2="279.84" y2="321.69"/>
      <line class="b" x1="268.56" y1="330.01" x2="278.8" y2="320.66"/>
      <line class="a" x1="259.34" y1="320.65" x2="273.75" y2="335.14"/>
      <polyline class="a" points="250.99 331.75 244.04 324.81 250.99 331.75 244.04 338.09 244.04 338.21 244.04 324.81 264.15 306.63 277.55 306.63 304.35 306.63 304.35 298.96 304.35 306.63 309.35 311.92"/>
      <rect class="b" x="111.96" y="243.46" width="12.44" height="12.44"/>
      <line class="b" x1="359.11" y1="268.1" x2="372.7" y2="254.65"/>
      <polyline class="a" points="283.98 325.82 270.98 312.83 277.79 306.63 270.98 312.83 264.15 306.63"/>
      <line class="b" x1="122" y1="282.22" x2="124.4" y2="279.83"/>
      <line class="b" x1="111.96" y1="207.08" x2="114.35" y2="209.47"/>
      <polyline class="b" points="122 217.13 114.35 217.13 114.35 209.47 122 209.47 122 217.13"/>
      <line class="b" x1="124.4" y1="219.52" x2="122" y2="217.13"/>
      <line class="b" x1="111.96" y1="219.52" x2="114.35" y2="217.13"/>
      <line class="b" x1="233.52" y1="183.15" x2="231.12" y2="180.76"/>
      <line class="b" x1="221.07" y1="183.15" x2="223.47" y2="180.76"/>
      <rect class="b" x="111.96" y="207.08" width="12.44" height="12.45"/>
      <line class="b" x1="231.12" y1="173.1" x2="233.52" y2="170.71"/>
      <line class="b" x1="122" y1="209.47" x2="124.4" y2="207.08"/>
      <line class="b" x1="122" y1="173.1" x2="124.4" y2="170.71"/>
      <line class="b" x1="124.4" y1="183.15" x2="122" y2="180.76"/>
      <polyline class="b" points="158.38 217.13 150.72 217.13 150.72 209.47 158.38 209.47 158.38 217.13"/>
      <rect class="b" x="148.33" y="207.08" width="12.45" height="12.45"/>
      <polyline class="b" points="122 180.76 114.35 180.76 114.35 173.1 122 173.1 122 180.76"/>
      <rect class="b" x="111.96" y="170.71" width="12.44" height="12.45"/>
      <line class="b" x1="111.96" y1="183.15" x2="114.35" y2="180.76"/>
      <line class="b" x1="111.96" y1="170.71" x2="114.35" y2="173.1"/>
      <line class="b" x1="221.07" y1="170.71" x2="223.47" y2="173.1"/>
      <line class="b" x1="194.75" y1="173.1" x2="197.15" y2="170.71"/>
      <line class="b" x1="197.15" y1="183.15" x2="194.75" y2="180.76"/>
      <polyline class="b" points="267.49 180.76 259.84 180.76 259.84 173.1 267.49 173.1 267.49 180.76"/>
      <rect class="b" x="257.45" y="170.71" width="12.44" height="12.45"/>
      <polyline class="b" points="194.75 180.76 187.09 180.76 187.09 173.1 194.75 173.1 194.75 180.76"/>
      <rect class="b" x="184.7" y="170.71" width="12.45" height="12.45"/>
      <line class="b" x1="184.7" y1="183.15" x2="187.09" y2="180.76"/>
      <line class="b" x1="184.7" y1="170.71" x2="187.09" y2="173.1"/>
      <line class="b" x1="267.49" y1="173.1" x2="269.89" y2="170.71"/>
      <rect class="b" x="221.07" y="170.71" width="12.45" height="12.45"/>
      <polyline class="b" points="231.12 180.76 223.47 180.76 223.47 173.1 231.12 173.1 231.12 180.76"/>
      <line class="b" x1="269.89" y1="183.15" x2="267.49" y2="180.76"/>
      <line class="b" x1="257.45" y1="170.71" x2="259.84" y2="173.1"/>
      <line class="b" x1="257.45" y1="183.15" x2="259.84" y2="180.76"/>
      <line class="a" x1="229.6" y1="554.97" x2="227.46" y2="554.97"/>
      <line class="a" x1="187.48" y1="554.97" x2="185.33" y2="554.97"/>
      <line class="b" x1="235.25" y1="588.67" x2="226.5" y2="588.67"/>
      <line class="a" x1="245.47" y1="579.74" x2="245.56" y2="579.74"/>
      <line class="a" x1="228.74" y1="579.74" x2="232.17" y2="579.74"/>
      <line class="a" x1="187.48" y1="554.97" x2="227.46" y2="554.97"/>
      <line class="a" x1="242.53" y1="484.95" x2="288.34" y2="484.95"/>
      <line class="a" x1="185.33" y1="484.95" x2="229.21" y2="484.95"/>
      <polyline class="a" points="242.53 515.46 242.53 528.81 288.34 528.81 288.34 447.94 288.33 447.75"/>
      <line class="b" x1="236.71" y1="594.68" x2="245.47" y2="594.68"/>
      <line class="b" x1="236.71" y1="593.18" x2="245.47" y2="593.18"/>
      <line class="b" x1="236.71" y1="597.69" x2="245.47" y2="597.69"/>
      <line class="b" x1="236.71" y1="596.19" x2="245.47" y2="596.19"/>
      <line class="b" x1="236.71" y1="588.67" x2="245.47" y2="588.67"/>
      <line class="b" x1="236.71" y1="591.67" x2="245.47" y2="591.67"/>
      <line class="b" x1="236.71" y1="590.17" x2="245.47" y2="590.17"/>
      <line class="b" x1="236.71" y1="588.67" x2="236.71" y2="605.2"/>
      <line class="b" x1="235.25" y1="588.67" x2="235.25" y2="605.2"/>
      <line class="b" x1="236.71" y1="600.69" x2="245.47" y2="600.69"/>
      <line class="b" x1="236.71" y1="599.19" x2="245.47" y2="599.19"/>
      <line class="b" x1="236.71" y1="603.7" x2="245.47" y2="603.7"/>
      <line class="b" x1="236.71" y1="602.19" x2="245.47" y2="602.19"/>
      <line class="a" x1="286.64" y1="567.97" x2="243.46" y2="567.97"/>
      <line class="a" x1="211.82" y1="554.97" x2="211.82" y2="552.23"/>
      <line class="a" x1="228.51" y1="555" x2="228.51" y2="564.64"/>
      <polyline class="a" points="243.46 569.16 243.46 557.12 243.46 554.97 243.46 549.39"/>
      <polyline class="a" points="228.5 541.61 228.5 547.55 211.82 547.55"/>
      <polyline class="a" points="243.46 574.22 243.46 579.75 243.22 579.75 239.8 579.75 244.51 579.75 245.47 579.75 245.47 604.49 286.64 604.49 286.64 602.22 286.64 593.39 286.64 575 286.64 528.81"/>
      <line class="a" x1="228.51" y1="569.7" x2="228.51" y2="579.74"/>
      <line class="a" x1="243.46" y1="528.81" x2="243.46" y2="544.33"/>
      <line class="b" x1="235.25" y1="588.67" x2="236.71" y2="588.67"/>
      <line class="a" x1="211.82" y1="548.12" x2="211.82" y2="528.81"/>
      <line class="a" x1="228.51" y1="528.81" x2="228.51" y2="537.51"/>
      <line class="b" x1="226.5" y1="590.17" x2="235.25" y2="590.17"/>
      <line class="b" x1="226.5" y1="591.67" x2="235.25" y2="591.67"/>
      <line class="b" x1="226.5" y1="600.69" x2="235.25" y2="600.69"/>
      <line class="b" x1="226.5" y1="599.19" x2="235.25" y2="599.19"/>
      <line class="b" x1="226.5" y1="603.7" x2="235.25" y2="603.7"/>
      <line class="b" x1="226.5" y1="602.19" x2="235.25" y2="602.19"/>
      <line class="b" x1="226.5" y1="594.68" x2="235.25" y2="594.68"/>
      <line class="b" x1="226.5" y1="593.18" x2="235.25" y2="593.18"/>
      <line class="b" x1="226.5" y1="597.69" x2="235.25" y2="597.69"/>
      <line class="b" x1="226.5" y1="596.19" x2="235.25" y2="596.19"/>
      <polyline class="a" points="242.53 447.86 242.53 448.2 242.53 457.65"/>
      <polyline class="a" points="229.21 502.35 229.21 528.81 185.33 528.81"/>
      <line class="a" x1="229.21" y1="467.78" x2="229.21" y2="497.62"/>
      <line class="a" x1="242.53" y1="462.37" x2="242.53" y2="506.16"/>
      <polyline class="a" points="229.21 463.01 229.21 425.93 228.73 425.31 224.02 420.61"/>
      <polyline class="a" points="229.21 448.7 185.33 448.7 185.33 449.27 185.33 596.71 185.33 604.49 185.33 602.34 185.33 602.22 185.33 604.49 226.5 604.49 226.5 586.42 224.59 586.42 224.59 579.75 228.74 579.75"/>
      <polyline class="a" points="242.11 444.45 242.11 447.86 248.32 447.75 253.07 447.75 288.34 447.75 288.08 382.24"/>
      <polyline class="a" points="185.65 448.7 183.04 448.7 174.17 440.63"/>
      <g>
        <path class="c" d="M447.09,332.58h-2.92v-.41l1.54-1.71a3.33,3.33,0,0,0,.47-.63,1,1,0,0,0,.13-.5.81.81,0,0,0-.21-.58.73.73,0,0,0-.56-.22.89.89,0,0,0-.66.24.94.94,0,0,0-.23.67h-.57a1.32,1.32,0,0,1,.4-1,1.47,1.47,0,0,1,1.06-.37,1.4,1.4,0,0,1,1,.32,1.12,1.12,0,0,1,.36.87,2.52,2.52,0,0,1-.84,1.56l-1.19,1.3h2.24Z"/>
        <path class="c" d="M450.6,332.58h-2.91v-.41l1.54-1.71a3.84,3.84,0,0,0,.47-.63,1,1,0,0,0,.13-.5.81.81,0,0,0-.21-.58.73.73,0,0,0-.56-.22.89.89,0,0,0-.66.24.94.94,0,0,0-.23.67h-.57a1.32,1.32,0,0,1,.4-1,1.46,1.46,0,0,1,1.06-.37,1.4,1.4,0,0,1,1,.32,1.12,1.12,0,0,1,.36.87,2.52,2.52,0,0,1-.84,1.56l-1.19,1.3h2.23Z"/>
        <path class="c" d="M453.37,330.62a1.37,1.37,0,0,1-.42.34,1.11,1.11,0,0,1-.54.13,1.15,1.15,0,0,1-.67-.19,1.21,1.21,0,0,1-.44-.53,1.76,1.76,0,0,1-.16-.76,1.92,1.92,0,0,1,.17-.81,1.23,1.23,0,0,1,.48-.55,1.44,1.44,0,0,1,.73-.18,1.23,1.23,0,0,1,1,.49,2.19,2.19,0,0,1,.38,1.35v.16a2.9,2.9,0,0,1-.51,1.9,2,2,0,0,1-1.55.61h-.11v-.48h.12a1.34,1.34,0,0,0,1.48-1.48Zm-.87,0a.93.93,0,0,0,.53-.17,1.11,1.11,0,0,0,.35-.43v-.23a1.6,1.6,0,0,0-.25-.91.71.71,0,0,0-.61-.34.72.72,0,0,0-.6.28,1.18,1.18,0,0,0-.22.76,1.21,1.21,0,0,0,.22.75A.69.69,0,0,0,452.5,330.62Z"/>
      </g>
      <g>
        <path class="c" d="M403.24,332.58h-2.92v-.41l1.54-1.71a3.33,3.33,0,0,0,.47-.63,1,1,0,0,0,.13-.5.81.81,0,0,0-.21-.58.73.73,0,0,0-.56-.22.89.89,0,0,0-.66.24.94.94,0,0,0-.23.67h-.57a1.36,1.36,0,0,1,.4-1,1.47,1.47,0,0,1,1.06-.37,1.4,1.4,0,0,1,1,.32,1.12,1.12,0,0,1,.36.87,2.52,2.52,0,0,1-.84,1.56l-1.19,1.3h2.24Z"/>
        <path class="c" d="M406.75,332.58h-2.91v-.41l1.54-1.71a3.84,3.84,0,0,0,.47-.63,1,1,0,0,0,.13-.5.81.81,0,0,0-.21-.58.73.73,0,0,0-.56-.22.89.89,0,0,0-.66.24.94.94,0,0,0-.23.67h-.57a1.32,1.32,0,0,1,.4-1,1.46,1.46,0,0,1,1.06-.37,1.4,1.4,0,0,1,1,.32,1.12,1.12,0,0,1,.36.87,2.52,2.52,0,0,1-.84,1.56l-1.19,1.3h2.23Z"/>
        <path class="c" d="M410.06,329.29a1,1,0,0,1-.18.59,1.2,1.2,0,0,1-.48.41,1.3,1.3,0,0,1,.56.44,1.14,1.14,0,0,1,.2.65,1.17,1.17,0,0,1-.39.92,1.73,1.73,0,0,1-2.06,0,1.2,1.2,0,0,1-.38-.92,1.13,1.13,0,0,1,.19-.65.43.43,0,1,0,.08-.85,1.07,1.07,0,0,1-.17-.59,1.14,1.14,0,0,1,.36-.89,1.53,1.53,0,0,1,1.9,0A1.15,1.15,0,0,1,410.06,329.29Zm-.47,2.08a.81.81,0,0,0-.85-.85.79.79,0,0,0-.85.85.78.78,0,0,0,.23.59.84.84,0,0,0,.62.22.85.85,0,0,0,.63-.22A.78.78,0,0,0,409.59,331.37Zm-.85-2.84a.73.73,0,0,0-.54.21.77.77,0,0,0-.2.56.75.75,0,0,0,.2.55.73.73,0,0,0,.54.21.74.74,0,0,0,.55-.21.79.79,0,0,0,.2-.55.78.78,0,0,0-.21-.56A.73.73,0,0,0,408.74,328.53Z"/>
      </g>
      <g>
        <path class="c" d="M359.39,332.58h-2.92v-.41l1.54-1.71a3.33,3.33,0,0,0,.47-.63,1,1,0,0,0,.13-.5.81.81,0,0,0-.21-.58.73.73,0,0,0-.56-.22.89.89,0,0,0-.66.24.94.94,0,0,0-.23.67h-.57a1.36,1.36,0,0,1,.4-1,1.47,1.47,0,0,1,1.06-.37,1.4,1.4,0,0,1,1,.32,1.12,1.12,0,0,1,.36.87,2.52,2.52,0,0,1-.84,1.56l-1.19,1.3h2.24Z"/>
        <path class="c" d="M362.91,332.58H360v-.41l1.54-1.71a3.33,3.33,0,0,0,.47-.63,1,1,0,0,0,.13-.5.81.81,0,0,0-.21-.58.73.73,0,0,0-.56-.22.89.89,0,0,0-.66.24.94.94,0,0,0-.23.67h-.57a1.32,1.32,0,0,1,.4-1,1.47,1.47,0,0,1,1.06-.37,1.4,1.4,0,0,1,1,.32,1.12,1.12,0,0,1,.36.87,2.52,2.52,0,0,1-.84,1.56l-1.19,1.3h2.24Z"/>
        <path class="c" d="M366.38,328.44l-1.84,4.14h-.6l1.84-4h-2.41v-.46h3Z"/>
      </g>
      <g>
        <path class="c" d="M446.08,268.28h-2.91v-.4l1.54-1.72a3.84,3.84,0,0,0,.47-.63,1,1,0,0,0,.13-.5.77.77,0,0,0-.21-.57.74.74,0,0,0-.56-.23.89.89,0,0,0-.66.24,1,1,0,0,0-.23.67h-.57a1.28,1.28,0,0,1,.4-1,1.42,1.42,0,0,1,1.06-.38,1.44,1.44,0,0,1,1,.32,1.12,1.12,0,0,1,.36.87,2.56,2.56,0,0,1-.84,1.57l-1.19,1.29h2.23Z"/>
        <path class="c" d="M447.51,265.78h.42a.89.89,0,0,0,.63-.21.68.68,0,0,0,.23-.55.69.69,0,0,0-.78-.79.79.79,0,0,0-.58.21.73.73,0,0,0-.22.56h-.57a1.12,1.12,0,0,1,.39-.88,1.37,1.37,0,0,1,1-.35,1.41,1.41,0,0,1,1,.33,1.2,1.2,0,0,1,.36.93,1,1,0,0,1-.19.56,1.21,1.21,0,0,1-.51.41,1.08,1.08,0,0,1,.56.38,1,1,0,0,1,.2.66,1.21,1.21,0,0,1-.39.95,1.44,1.44,0,0,1-1,.35,1.47,1.47,0,0,1-1-.34,1.09,1.09,0,0,1-.4-.89h.57a.74.74,0,0,0,.23.56.87.87,0,0,0,.61.21.86.86,0,0,0,.63-.21.83.83,0,0,0,.22-.62.72.72,0,0,0-.24-.59,1.07,1.07,0,0,0-.69-.22h-.42Z"/>
        <path class="c" d="M453,266.38a2.63,2.63,0,0,1-.34,1.48,1.22,1.22,0,0,1-1.07.48,1.2,1.2,0,0,1-1-.47,2.45,2.45,0,0,1-.36-1.41v-.76a2.54,2.54,0,0,1,.34-1.45,1.44,1.44,0,0,1,2.13,0,2.53,2.53,0,0,1,.35,1.42Zm-.57-.77a2.14,2.14,0,0,0-.2-1.05.79.79,0,0,0-1.28,0,2,2,0,0,0-.2,1v.9a2.12,2.12,0,0,0,.21,1.07.69.69,0,0,0,.63.34.71.71,0,0,0,.63-.32,2.16,2.16,0,0,0,.21-1Z"/>
      </g>
      <g>
        <path class="c" d="M407.06,268.34h-2.92v-.41l1.55-1.71a4,4,0,0,0,.47-.64,1,1,0,0,0,.13-.5.8.8,0,0,0-.21-.57.74.74,0,0,0-.57-.22.85.85,0,0,0-.65.24.89.89,0,0,0-.23.66h-.57a1.3,1.3,0,0,1,.4-1,1.45,1.45,0,0,1,1.05-.38,1.41,1.41,0,0,1,1,.33,1.09,1.09,0,0,1,.36.86,2.56,2.56,0,0,1-.84,1.57l-1.19,1.29h2.23Z"/>
        <path class="c" d="M408.49,265.83h.42a.89.89,0,0,0,.63-.21.7.7,0,0,0,.23-.55.69.69,0,0,0-.78-.78.84.84,0,0,0-.59.21.74.74,0,0,0-.21.55h-.57a1.15,1.15,0,0,1,.39-.88,1.6,1.6,0,0,1,2,0,1.22,1.22,0,0,1,.35.93,1,1,0,0,1-.18.56,1.11,1.11,0,0,1-.52.41,1.08,1.08,0,0,1,.57.39,1,1,0,0,1,.2.65,1.21,1.21,0,0,1-.39,1,1.44,1.44,0,0,1-1,.36,1.53,1.53,0,0,1-1-.34,1.14,1.14,0,0,1-.39-.9h.57a.69.69,0,0,0,.23.56.83.83,0,0,0,.61.22.88.88,0,0,0,.63-.22.84.84,0,0,0,.22-.61.75.75,0,0,0-.24-.6,1,1,0,0,0-.69-.21h-.42Z"/>
        <path class="c" d="M413,268.34h-.57v-3.78l-1.14.42v-.51l1.62-.61H413Z"/>
      </g>
      <g>
        <path class="c" d="M294.17,260.59h-2.92v-.41l1.54-1.71a3.84,3.84,0,0,0,.47-.63,1,1,0,0,0,.13-.5.77.77,0,0,0-.21-.57.74.74,0,0,0-.56-.23.89.89,0,0,0-.66.24,1,1,0,0,0-.23.67h-.57a1.28,1.28,0,0,1,.4-1,1.42,1.42,0,0,1,1.06-.38,1.44,1.44,0,0,1,1,.32,1.12,1.12,0,0,1,.36.87,2.56,2.56,0,0,1-.84,1.57l-1.19,1.29h2.24Z"/>
        <path class="c" d="M295.59,258.09H296a.89.89,0,0,0,.63-.21.68.68,0,0,0,.23-.55.69.69,0,0,0-.78-.79.79.79,0,0,0-.58.21.73.73,0,0,0-.22.56h-.57a1.12,1.12,0,0,1,.39-.88,1.37,1.37,0,0,1,1-.35,1.41,1.41,0,0,1,1,.33,1.2,1.2,0,0,1,.36.93,1,1,0,0,1-.19.56,1.21,1.21,0,0,1-.51.41,1,1,0,0,1,.76,1,1.18,1.18,0,0,1-.39.95,1.44,1.44,0,0,1-1,.35,1.47,1.47,0,0,1-1-.34,1.09,1.09,0,0,1-.4-.89h.57a.74.74,0,0,0,.23.56.87.87,0,0,0,.61.21.86.86,0,0,0,.63-.21.83.83,0,0,0,.22-.62.72.72,0,0,0-.24-.59,1.07,1.07,0,0,0-.69-.22h-.42Z"/>
        <path class="c" d="M300.45,258.63a1.24,1.24,0,0,1-.42.34,1.13,1.13,0,0,1-.54.13,1.15,1.15,0,0,1-.67-.19,1.24,1.24,0,0,1-.45-.53,1.87,1.87,0,0,1-.15-.76,1.78,1.78,0,0,1,.17-.81,1.2,1.2,0,0,1,.48-.54,1.35,1.35,0,0,1,.73-.19,1.24,1.24,0,0,1,1,.49,2.19,2.19,0,0,1,.38,1.35v.16a2.9,2.9,0,0,1-.51,1.9,2,2,0,0,1-1.55.61h-.12v-.48H299a1.5,1.5,0,0,0,1.08-.36A1.58,1.58,0,0,0,300.45,258.63Zm-.87,0a.83.83,0,0,0,.52-.17,1,1,0,0,0,.35-.43v-.23a1.54,1.54,0,0,0-.24-.9.7.7,0,0,0-.61-.35.72.72,0,0,0-.6.28,1.23,1.23,0,0,0-.23.76,1.28,1.28,0,0,0,.22.75A.69.69,0,0,0,299.58,258.63Z"/>
      </g>
      <g>
        <path class="c" d="M194.46,361.17h-2.92v-.41l1.54-1.71a4,4,0,0,0,.48-.63,1.17,1.17,0,0,0,.13-.51.8.8,0,0,0-.21-.57.75.75,0,0,0-.57-.22.85.85,0,0,0-.65.24.9.9,0,0,0-.24.67h-.56a1.33,1.33,0,0,1,.39-1,1.5,1.5,0,0,1,1.06-.38,1.38,1.38,0,0,1,1,.33,1.11,1.11,0,0,1,.36.87,2.52,2.52,0,0,1-.83,1.56l-1.2,1.3h2.24Z"/>
        <path class="c" d="M197.85,359.27a2.59,2.59,0,0,1-.34,1.48,1.2,1.2,0,0,1-1.06.48,1.23,1.23,0,0,1-1-.47,2.49,2.49,0,0,1-.36-1.42v-.75a2.5,2.5,0,0,1,.34-1.46,1.43,1.43,0,0,1,2.12,0,2.37,2.37,0,0,1,.35,1.42Zm-.56-.78a2,2,0,0,0-.21-1,.68.68,0,0,0-.63-.33.71.71,0,0,0-.64.32,2,2,0,0,0-.2,1v.91a2.08,2.08,0,0,0,.21,1.06.69.69,0,0,0,.63.35.67.67,0,0,0,.62-.33,2,2,0,0,0,.22-1Z"/>
        <path class="c" d="M201,359.67h.61v.46H201v1h-.57v-1h-2v-.33l2-3.09H201Zm-2,0h1.39v-2.18l-.07.12Z"/>
      </g>
      <g>
        <path class="c" d="M264.11,505.92h-2.92v-.4l1.54-1.72a4,4,0,0,0,.48-.63,1.13,1.13,0,0,0,.13-.5.77.77,0,0,0-.22-.57.72.72,0,0,0-.56-.23.85.85,0,0,0-.65.24.92.92,0,0,0-.24.67h-.56a1.31,1.31,0,0,1,.39-1,1.5,1.5,0,0,1,1.06-.38,1.38,1.38,0,0,1,1,.33,1.09,1.09,0,0,1,.36.86,2.54,2.54,0,0,1-.83,1.57l-1.2,1.29h2.24Z"/>
        <path class="c" d="M266.57,505.92H266v-3.77l-1.14.42v-.51l1.62-.61h.09Z"/>
        <path class="c" d="M268.49,503.69l.22-2.22H271V502h-1.81l-.13,1.22a1.41,1.41,0,0,1,.74-.2,1.23,1.23,0,0,1,1,.41,1.57,1.57,0,0,1,.36,1.08,1.52,1.52,0,0,1-.38,1.09,1.35,1.35,0,0,1-1,.4,1.41,1.41,0,0,1-1-.33,1.28,1.28,0,0,1-.42-.91h.53a1,1,0,0,0,.27.58.87.87,0,0,0,.59.19.77.77,0,0,0,.62-.27,1.11,1.11,0,0,0,.22-.74,1,1,0,0,0-.24-.72.83.83,0,0,0-.65-.27,1,1,0,0,0-.58.16l-.15.13Z"/>
      </g>
      <g>
        <path class="c" d="M264.11,467.64h-2.92v-.4l1.54-1.72a4,4,0,0,0,.48-.63,1.13,1.13,0,0,0,.13-.5.75.75,0,0,0-.22-.57.72.72,0,0,0-.56-.23.85.85,0,0,0-.65.24.92.92,0,0,0-.24.67h-.56a1.31,1.31,0,0,1,.39-1,1.45,1.45,0,0,1,1.06-.38,1.43,1.43,0,0,1,1,.32,1.12,1.12,0,0,1,.36.87,2.54,2.54,0,0,1-.83,1.57l-1.2,1.29h2.24Z"/>
        <path class="c" d="M266.57,467.64H266v-3.77l-1.14.42v-.51l1.62-.61h.09Z"/>
        <path class="c" d="M270.45,463.19v.48h-.11a1.42,1.42,0,0,0-1,.39,1.63,1.63,0,0,0-.45,1.07,1.2,1.2,0,0,1,1-.41,1.16,1.16,0,0,1,.93.41,1.59,1.59,0,0,1,.34,1.06,1.56,1.56,0,0,1-.37,1.1,1.27,1.27,0,0,1-1,.41,1.25,1.25,0,0,1-1-.49,1.9,1.9,0,0,1-.4-1.26v-.22a2.88,2.88,0,0,1,.53-1.88,1.92,1.92,0,0,1,1.56-.66Zm-.75,2a.87.87,0,0,0-.53.18.89.89,0,0,0-.34.43V466a1.44,1.44,0,0,0,.25.89.75.75,0,0,0,.61.34.74.74,0,0,0,.61-.29,1.17,1.17,0,0,0,.21-.73,1.13,1.13,0,0,0-.22-.74A.71.71,0,0,0,269.7,465.19Z"/>
      </g>
      <g>
        <path class="c" d="M262.72,421.71H259.8v-.41l1.54-1.71a3.33,3.33,0,0,0,.47-.63,1.06,1.06,0,0,0,.14-.51.77.77,0,0,0-.22-.57.72.72,0,0,0-.56-.22.89.89,0,0,0-.66.24.93.93,0,0,0-.23.66h-.57a1.33,1.33,0,0,1,.4-1,1.5,1.5,0,0,1,1.06-.38,1.4,1.4,0,0,1,1,.33,1.09,1.09,0,0,1,.36.86,2.59,2.59,0,0,1-.83,1.57l-1.2,1.29h2.24Z"/>
        <path class="c" d="M265.18,421.71h-.57v-3.78l-1.14.42v-.51l1.62-.61h.09Z"/>
        <path class="c" d="M269.71,417.57l-1.84,4.14h-.6l1.84-4H266.7v-.47h3Z"/>
      </g>
      <g>
        <path class="c" d="M204.35,467.36h-2.92V467l1.54-1.71a3.33,3.33,0,0,0,.47-.63,1,1,0,0,0,.13-.51.8.8,0,0,0-.21-.57.73.73,0,0,0-.56-.22.89.89,0,0,0-.66.24.94.94,0,0,0-.23.67h-.57a1.36,1.36,0,0,1,.4-1,1.48,1.48,0,0,1,1.06-.38,1.4,1.4,0,0,1,1,.33,1.12,1.12,0,0,1,.36.87,2.52,2.52,0,0,1-.84,1.56l-1.19,1.3h2.24Z"/>
        <path class="c" d="M206.81,467.36h-.57v-3.77l-1.14.42v-.52l1.62-.61h.09Z"/>
        <path class="c" d="M209.29,464.86h.42a1,1,0,0,0,.63-.21.7.7,0,0,0,.23-.56.69.69,0,0,0-.78-.78.79.79,0,0,0-.58.21.71.71,0,0,0-.22.55h-.57a1.15,1.15,0,0,1,.39-.88,1.58,1.58,0,0,1,2,0,1.19,1.19,0,0,1,.36.92,1,1,0,0,1-.19.57,1.19,1.19,0,0,1-.51.4,1.1,1.1,0,0,1,.56.39,1,1,0,0,1,.21.66,1.23,1.23,0,0,1-.4.95,1.49,1.49,0,0,1-1,.35,1.51,1.51,0,0,1-1-.34,1.14,1.14,0,0,1-.39-.9H209a.75.75,0,0,0,.23.57.87.87,0,0,0,.61.21.82.82,0,0,0,.63-.22.79.79,0,0,0,.22-.61.75.75,0,0,0-.24-.6,1,1,0,0,0-.69-.21h-.42Z"/>
      </g>
      <g>
        <path class="c" d="M204.35,505.64h-2.92v-.41l1.54-1.71a3.33,3.33,0,0,0,.47-.63,1,1,0,0,0,.13-.51.8.8,0,0,0-.21-.57.73.73,0,0,0-.56-.22.89.89,0,0,0-.66.24.94.94,0,0,0-.23.67h-.57a1.36,1.36,0,0,1,.4-1,1.47,1.47,0,0,1,1.06-.37,1.4,1.4,0,0,1,1,.32,1.12,1.12,0,0,1,.36.87,2.52,2.52,0,0,1-.84,1.56l-1.19,1.3h2.24Z"/>
        <path class="c" d="M206.81,505.64h-.57v-3.77l-1.14.42v-.52l1.62-.6h.09Z"/>
        <path class="c" d="M210.85,504.14h.62v.47h-.62v1h-.57v-1h-2v-.34l2-3.08h.6Zm-1.95,0h1.38V502l-.06.12Z"/>
      </g>
      <g>
        <path class="c" d="M203.42,576.58H200.5v-.41l1.54-1.71a3.33,3.33,0,0,0,.47-.63,1,1,0,0,0,.13-.51.8.8,0,0,0-.21-.57.73.73,0,0,0-.56-.22.89.89,0,0,0-.66.24.94.94,0,0,0-.23.67h-.57a1.36,1.36,0,0,1,.4-1,1.48,1.48,0,0,1,1.06-.38,1.4,1.4,0,0,1,1,.33,1.12,1.12,0,0,1,.36.87,2.52,2.52,0,0,1-.84,1.56l-1.19,1.3h2.24Z"/>
        <path class="c" d="M204.28,574.35l.22-2.22h2.29v.52H205l-.13,1.21a1.41,1.41,0,0,1,.74-.19,1.22,1.22,0,0,1,1,.4,1.58,1.58,0,0,1,.36,1.09,1.5,1.5,0,0,1-.38,1.08,1.31,1.31,0,0,1-1,.4,1.41,1.41,0,0,1-1-.33,1.28,1.28,0,0,1-.42-.9h.53a1,1,0,0,0,.27.57.88.88,0,0,0,.59.2.77.77,0,0,0,.62-.27,1.13,1.13,0,0,0,.22-.74,1,1,0,0,0-.24-.72.83.83,0,0,0-.65-.27.91.91,0,0,0-.58.16l-.15.12Z"/>
        <path class="c" d="M208.36,574.08h.42a1,1,0,0,0,.63-.21.7.7,0,0,0,.23-.56.69.69,0,0,0-.78-.78.79.79,0,0,0-.58.21.71.71,0,0,0-.22.55h-.57a1.15,1.15,0,0,1,.39-.88,1.42,1.42,0,0,1,1-.35,1.37,1.37,0,0,1,1,.34,1.19,1.19,0,0,1,.36.92,1,1,0,0,1-.19.57,1.19,1.19,0,0,1-.51.4,1.1,1.1,0,0,1,.56.39,1,1,0,0,1,.21.66,1.23,1.23,0,0,1-.4.95,1.48,1.48,0,0,1-1,.35,1.52,1.52,0,0,1-1-.34,1.14,1.14,0,0,1-.39-.9H208a.75.75,0,0,0,.23.57.88.88,0,0,0,.62.21.81.81,0,0,0,.62-.22.79.79,0,0,0,.22-.61.75.75,0,0,0-.24-.6,1,1,0,0,0-.69-.21h-.42Z"/>
      </g>
      <g>
        <path class="c" d="M262.07,547.62h-2.92v-.41l1.54-1.71a4,4,0,0,0,.48-.63,1.14,1.14,0,0,0,.13-.51.77.77,0,0,0-.22-.57.72.72,0,0,0-.56-.22.85.85,0,0,0-.65.24.9.9,0,0,0-.24.67h-.56a1.35,1.35,0,0,1,.39-1,1.5,1.5,0,0,1,1.06-.38,1.38,1.38,0,0,1,1,.33,1.12,1.12,0,0,1,.36.87,2.54,2.54,0,0,1-.83,1.56l-1.2,1.3h2.24Z"/>
        <path class="c" d="M262.93,545.39l.23-2.22h2.28v.52h-1.8l-.14,1.21a1.43,1.43,0,0,1,.74-.19,1.22,1.22,0,0,1,1,.4,1.58,1.58,0,0,1,.36,1.09,1.54,1.54,0,0,1-.37,1.08,1.35,1.35,0,0,1-1,.4,1.37,1.37,0,0,1-1-.33,1.29,1.29,0,0,1-.43-.9h.53a.91.91,0,0,0,.28.57.83.83,0,0,0,.58.2.77.77,0,0,0,.62-.27,1.13,1.13,0,0,0,.22-.74,1,1,0,0,0-.24-.72.83.83,0,0,0-.65-.27.93.93,0,0,0-.58.16l-.15.12Z"/>
        <path class="c" d="M268.05,547.62h-.57v-3.77l-1.14.42v-.52l1.62-.61h.09Z"/>
      </g>
      <g>
        <path class="c" d="M263.46,583.12h-2.92v-.41l1.55-1.71a4.54,4.54,0,0,0,.47-.63,1.17,1.17,0,0,0,.13-.51.8.8,0,0,0-.21-.57.74.74,0,0,0-.57-.22.85.85,0,0,0-.65.24.89.89,0,0,0-.24.66h-.56a1.33,1.33,0,0,1,.39-1,1.5,1.5,0,0,1,1.06-.38,1.41,1.41,0,0,1,1,.33,1.09,1.09,0,0,1,.36.86,2.56,2.56,0,0,1-.84,1.57l-1.19,1.29h2.23Z"/>
        <path class="c" d="M264.32,580.88l.23-2.22h2.28v.53H265l-.14,1.21a1.44,1.44,0,0,1,.75-.19,1.22,1.22,0,0,1,1,.4,1.58,1.58,0,0,1,.36,1.09,1.49,1.49,0,0,1-.37,1.08,1.37,1.37,0,0,1-1,.4,1.4,1.4,0,0,1-1-.33,1.33,1.33,0,0,1-.43-.91h.54a.86.86,0,0,0,.27.58.85.85,0,0,0,.58.2.77.77,0,0,0,.62-.27,1.14,1.14,0,0,0,.23-.75,1,1,0,0,0-.25-.71.84.84,0,0,0-.65-.28.93.93,0,0,0-.58.17l-.15.12Z"/>
        <path class="c" d="M270.5,583.12h-2.92v-.41l1.54-1.71a3.33,3.33,0,0,0,.47-.63,1,1,0,0,0,.13-.51.8.8,0,0,0-.21-.57.73.73,0,0,0-.56-.22.89.89,0,0,0-.66.24.93.93,0,0,0-.23.66h-.57a1.33,1.33,0,0,1,.4-1,1.48,1.48,0,0,1,1.06-.38,1.4,1.4,0,0,1,1,.33,1.09,1.09,0,0,1,.36.86,2.56,2.56,0,0,1-.84,1.57l-1.19,1.29h2.24Z"/>
      </g>
      <rect class="d" x="427.54" y="306.91" width="42.46" height="43.85"/>
      <rect class="d" x="427.54" y="247.05" width="42.46" height="44.55"/>
      <rect class="d" x="389.26" y="247.05" width="38.28" height="44.55"/>
      <rect class="d" x="383" y="306.91" width="44.55" height="43.15"/>
      <rect class="d" x="339.84" y="306.91" width="43.15" height="43.15"/>
      <rect class="d" x="277.2" y="238" width="38.98" height="45.94"/>
      <rect class="d" x="242.4" y="402.26" width="45.94" height="45.24"/>
      <rect class="d" x="242.4" y="448.2" width="45.94" height="36.89"/>
      <rect class="d" x="242.4" y="485.09" width="45.94" height="43.85"/>
      <rect class="d" x="243.79" y="528.94" width="43.15" height="38.98"/>
      <rect class="d" x="185.33" y="485.09" width="43.85" height="43.85"/>
      <rect class="d" x="185.33" y="448.89" width="43.85" height="35.5"/>
      <polygon class="d" points="224.48 579.75 224.48 586.71 226.58 586.71 226.58 604.8 185.33 604.8 185.33 554.69 228.68 554.69 228.68 579.75 224.48 579.75"/>
      <polygon class="d" points="286.95 567.91 286.95 604.8 245.19 604.8 245.19 579.75 243.79 579.75 243.79 567.91 286.95 567.91"/>
      <rect class="d" x="174.19" y="338.23" width="45.94" height="43.85"/>
    </g>
    <rect class="d" width="569" height="692"/>
  </g>
</svg>
