<?xml version="1.0" encoding="UTF-8" standalone="no"?><svg xmlns="http://www.w3.org/2000/svg" xmlns:xlink="http://www.w3.org/1999/xlink" contentScriptType="application/ecmascript" contentStyleType="text/css" height="67px" preserveAspectRatio="none" style="width:168px;height:67px;" version="1.1" viewBox="0 0 168 67" width="168px" zoomAndPan="magnify"><defs><filter height="300%" id="f68u6504cgo5f" width="300%" x="-1" y="-1"><feGaussianBlur result="blurOut" stdDeviation="2.0"/><feColorMatrix in="blurOut" result="blurOut2" type="matrix" values="0 0 0 0 0 0 0 0 0 0 0 0 0 0 0 0 0 0 .4 0"/><feOffset dx="4.0" dy="4.0" in="blurOut2" result="blurOut3"/><feBlend in="SourceGraphic" in2="blurOut3" mode="normal"/></filter></defs><g><!--class City--><rect fill="#FEFECE" filter="url(#f68u6504cgo5f)" height="48" id="City" style="stroke: #A80036; stroke-width: 1.5;" width="52" x="105" y="8"/><ellipse cx="120" cy="24" fill="#ADD1B2" rx="11" ry="11" style="stroke: #A80036; stroke-width: 1.0;"/><path d="M122,20.5 Q122.2031,20 122.4375,19.75 Q122.6719,19.5 122.9375,19.5 Q123.4063,19.5 123.7031,19.7813 Q124,20.0625 124,20.7188 L124,22.2813 Q124,22.9375 123.7188,23.2188 Q123.4375,23.5 123,23.5 Q122.6094,23.5 122.3594,23.3281 Q122.1094,23.1563 122,22.7031 Q121.9531,22.3906 121.7813,22.2188 Q121.4688,21.8906 120.9063,21.7031 Q120.3438,21.5 119.7813,21.5 Q119.0781,21.5 118.4844,21.7813 Q117.9063,22.0625 117.4531,22.6875 Q117,23.3125 117,24.1719 L117,25.0938 Q117,26.125 117.8438,26.8125 Q118.6875,27.5 120.1875,27.5 Q121.0781,27.5 121.7031,27.2969 Q122.0625,27.1875 122.4688,26.8281 Q122.7344,26.625 122.875,26.5625 Q123.0156,26.5 123.1875,26.5 Q123.5156,26.5 123.75,26.7656 Q124,27.0156 124,27.375 Q124,27.7188 123.6563,28.125 Q123.1563,28.7188 122.3594,29.0469 Q121.3125,29.5 120.0313,29.5 Q118.5313,29.5 117.3281,28.9063 Q116.3594,28.4375 115.6719,27.4219 Q115,26.4063 115,25.2031 L115,24.1094 Q115,22.8594 115.5938,21.7656 Q116.2031,20.6719 117.25,20.0938 Q118.3125,19.5 119.5,19.5 Q120.2188,19.5 120.8438,19.75 Q121.4688,20 122,20.5 Z "/><text fill="#000000" font-family="sans-serif" font-size="12" lengthAdjust="spacingAndGlyphs" textLength="20" x="134" y="28.9102">City</text><line style="stroke: #A80036; stroke-width: 1.5;" x1="106" x2="156" y1="40" y2="40"/><line style="stroke: #A80036; stroke-width: 1.5;" x1="106" x2="156" y1="48" y2="48"/><!--class Street--><rect fill="#FEFECE" filter="url(#f68u6504cgo5f)" height="48" id="Street" style="stroke: #A80036; stroke-width: 1.5;" width="64" x="6" y="8"/><ellipse cx="21" cy="24" fill="#ADD1B2" rx="11" ry="11" style="stroke: #A80036; stroke-width: 1.0;"/><path d="M23,20.5 Q23.2031,20 23.4375,19.75 Q23.6719,19.5 23.9375,19.5 Q24.4063,19.5 24.7031,19.7813 Q25,20.0625 25,20.7188 L25,22.2813 Q25,22.9375 24.7188,23.2188 Q24.4375,23.5 24,23.5 Q23.6094,23.5 23.3594,23.3281 Q23.1094,23.1563 23,22.7031 Q22.9531,22.3906 22.7813,22.2188 Q22.4688,21.8906 21.9063,21.7031 Q21.3438,21.5 20.7813,21.5 Q20.0781,21.5 19.4844,21.7813 Q18.9063,22.0625 18.4531,22.6875 Q18,23.3125 18,24.1719 L18,25.0938 Q18,26.125 18.8438,26.8125 Q19.6875,27.5 21.1875,27.5 Q22.0781,27.5 22.7031,27.2969 Q23.0625,27.1875 23.4688,26.8281 Q23.7344,26.625 23.875,26.5625 Q24.0156,26.5 24.1875,26.5 Q24.5156,26.5 24.75,26.7656 Q25,27.0156 25,27.375 Q25,27.7188 24.6563,28.125 Q24.1563,28.7188 23.3594,29.0469 Q22.3125,29.5 21.0313,29.5 Q19.5313,29.5 18.3281,28.9063 Q17.3594,28.4375 16.6719,27.4219 Q16,26.4063 16,25.2031 L16,24.1094 Q16,22.8594 16.5938,21.7656 Q17.2031,20.6719 18.25,20.0938 Q19.3125,19.5 20.5,19.5 Q21.2188,19.5 21.8438,19.75 Q22.4688,20 23,20.5 Z "/><text fill="#000000" font-family="sans-serif" font-size="12" lengthAdjust="spacingAndGlyphs" textLength="32" x="35" y="28.9102">Street</text><line style="stroke: #A80036; stroke-width: 1.5;" x1="7" x2="69" y1="40" y2="40"/><line style="stroke: #A80036; stroke-width: 1.5;" x1="7" x2="69" y1="48" y2="48"/><!--link Street to City--><path d="M70.332,32 C80.1533,32 89.9746,32 99.7958,32 " fill="none" id="Street-City" style="stroke: #A80036; stroke-width: 1.0;"/><polygon fill="#A80036" points="104.9317,32,95.9317,28,99.9317,32,95.9317,36,104.9317,32" style="stroke: #A80036; stroke-width: 1.0;"/><text fill="#000000" font-family="sans-serif" font-size="13" lengthAdjust="spacingAndGlyphs" textLength="5" x="77.9515" y="27.7836">*</text><text fill="#000000" font-family="sans-serif" font-size="13" lengthAdjust="spacingAndGlyphs" textLength="7" x="89.9852" y="27.3924">1</text><!--
@startuml
class City
class Street
City "1" <- -right- "*" Street
@enduml

PlantUML version 1.2019.06(Fri May 24 19:10:25 CEST 2019)
(APACHE source distribution)
Java Runtime: OpenJDK Runtime Environment
JVM: OpenJDK 64-Bit Server VM
Java Version: 11.0.8+10-b944.31
Operating System: Windows 10
OS Version: 10.0
Default Encoding: Cp1252
Language: de
Country: AT
--></g></svg>