<?xml version="1.0" encoding="utf-8"?>
<!-- Generator: Adobe Illustrator 22.1.0, SVG Export Plug-In . SVG Version: 6.00 Build 0)  -->
<svg version="1.1" id="Ebene_1" xmlns="http://www.w3.org/2000/svg" xmlns:xlink="http://www.w3.org/1999/xlink" x="0px" y="0px"
	 viewBox="0 0 6500 3900" style="enable-background:new 0 0 6500 3900;" xml:space="preserve">
<style type="text/css">
	.st0{fill:#B22234;}
	.st1{stroke:#FFFFFF;stroke-width:300;}
	.st2{fill:#3C3B6E;}
	.st3{fill:#FFFFFF;}
</style>
<rect class="st0" width="6500" height="3900"/>
<path class="st1" d="M0,634.6h6498 M6498,1160.8H0 M0,1686.9h6498 M6498,2213.1H0 M0,2739.2h6498 M6498,3265.4H0"/>
<rect class="st2" width="2964" height="2100"/>
<g>
	<g>
		<g>
			<g id="s5">
				<g id="s4">
					<path id="s" class="st3" d="M247,90l70.5,217.1L132.9,172.9h228.3L176.5,307.1L247,90z"/>
					<g>
						<path id="s_1_" class="st3" d="M247,510l70.5,217.1L132.9,592.9h228.3L176.5,727.1L247,510z"/>
					</g>
					<g>
						<path id="s_2_" class="st3" d="M247,930l70.5,217.1l-184.7-134.2h228.3l-184.7,134.2L247,930z"/>
					</g>
					<g>
						<path id="s_3_" class="st3" d="M247,1350l70.5,217.1l-184.7-134.2h228.3l-184.7,134.2L247,1350z"/>
					</g>
				</g>
				<g>
					<path id="s_4_" class="st3" d="M247,1770l70.5,217.1l-184.7-134.2h228.3l-184.7,134.2L247,1770z"/>
				</g>
			</g>
			<g id="s9">
				<g id="s4_1_">
					<path id="s_5_" class="st3" d="M494,300l70.5,217.1L379.9,382.9h228.3L423.5,517.1L494,300z"/>
					<g>
						<path id="s_6_" class="st3" d="M494,720l70.5,217.1L379.9,802.9h228.3L423.5,937.1L494,720z"/>
					</g>
					<g>
						<path id="s_7_" class="st3" d="M494,1140l70.5,217.1l-184.7-134.2h228.3l-184.7,134.2L494,1140z"/>
					</g>
					<g>
						<path id="s_8_" class="st3" d="M494,1560l70.5,217.1l-184.7-134.2h228.3l-184.7,134.2L494,1560z"/>
					</g>
				</g>
			</g>
			<g>
				<g id="s18">
					<g id="s5_1_">
						<g id="s4_2_">
							<path id="s_9_" class="st3" d="M741,90l70.5,217.1L626.9,172.9h228.3L670.5,307.1L741,90z"/>
							<g>
								<path id="s_10_" class="st3" d="M741,510l70.5,217.1L626.9,592.9h228.3L670.5,727.1L741,510z"/>
							</g>
							<g>
								<path id="s_11_" class="st3" d="M741,930l70.5,217.1l-184.7-134.2h228.3l-184.7,134.2L741,930z"/>
							</g>
							<g>
								<path id="s_12_" class="st3" d="M741,1350l70.5,217.1l-184.7-134.2h228.3l-184.7,134.2L741,1350z"/>
							</g>
						</g>
						<g>
							<path id="s_13_" class="st3" d="M741,1770l70.5,217.1l-184.7-134.2h228.3l-184.7,134.2L741,1770z"/>
						</g>
					</g>
					<g id="s9_1_">
						<g id="s4_3_">
							<path id="s_14_" class="st3" d="M988,300l70.5,217.1L873.9,382.9h228.3L917.5,517.1L988,300z"/>
							<g>
								<path id="s_15_" class="st3" d="M988,720l70.5,217.1L873.9,802.9h228.3L917.5,937.1L988,720z"/>
							</g>
							<g>
								<path id="s_16_" class="st3" d="M988,1140l70.5,217.1l-184.7-134.2h228.3l-184.7,134.2L988,1140z"/>
							</g>
							<g>
								<path id="s_17_" class="st3" d="M988,1560l70.5,217.1l-184.7-134.2h228.3l-184.7,134.2L988,1560z"/>
							</g>
						</g>
					</g>
				</g>
				<g>
					<g>
						<g>
							<g id="s5_2_">
								<g id="s4_4_">
									<path id="s_18_" class="st3" d="M1235,90l70.5,217.1l-184.7-134.2h228.3l-184.7,134.2L1235,90z"/>
									<g>
										<path id="s_19_" class="st3" d="M1235,510l70.5,217.1l-184.7-134.2h228.3l-184.7,134.2L1235,510z"/>
									</g>
									<g>
										<path id="s_20_" class="st3" d="M1235,930l70.5,217.1l-184.7-134.2h228.3l-184.7,134.2L1235,930z"/>
									</g>
									<g>
										<path id="s_21_" class="st3" d="M1235,1350l70.5,217.1l-184.7-134.2h228.3l-184.7,134.2L1235,1350z"/>
									</g>
								</g>
								<g>
									<path id="s_22_" class="st3" d="M1235,1770l70.5,217.1l-184.7-134.2h228.3l-184.7,134.2L1235,1770z"/>
								</g>
							</g>
							<g id="s9_2_">
								<g id="s4_5_">
									<path id="s_23_" class="st3" d="M1482,300l70.5,217.1l-184.7-134.2h228.3l-184.7,134.2L1482,300z"/>
									<g>
										<path id="s_24_" class="st3" d="M1482,720l70.5,217.1l-184.7-134.2h228.3l-184.7,134.2L1482,720z"/>
									</g>
									<g>
										<path id="s_25_" class="st3" d="M1482,1140l70.5,217.1l-184.7-134.2h228.3l-184.7,134.2L1482,1140z"/>
									</g>
									<g>
										<path id="s_26_" class="st3" d="M1482,1560l70.5,217.1l-184.7-134.2h228.3l-184.7,134.2L1482,1560z"/>
									</g>
								</g>
							</g>
							<g>
								<g id="s18_1_">
									<g id="s5_3_">
										<g id="s4_6_">
											<path id="s_27_" class="st3" d="M1729,90l70.5,217.1l-184.7-134.2h228.3l-184.7,134.2L1729,90z"/>
											<g>
												<path id="s_28_" class="st3" d="M1729,510l70.5,217.1l-184.7-134.2h228.3l-184.7,134.2L1729,510z"/>
											</g>
											<g>
												<path id="s_29_" class="st3" d="M1729,930l70.5,217.1l-184.7-134.2h228.3l-184.7,134.2L1729,930z"/>
											</g>
											<g>
												<path id="s_30_" class="st3" d="M1729,1350l70.5,217.1l-184.7-134.2h228.3l-184.7,134.2L1729,1350z"/>
											</g>
										</g>
										<g>
											<path id="s_31_" class="st3" d="M1729,1770l70.5,217.1l-184.7-134.2h228.3l-184.7,134.2L1729,1770z"/>
										</g>
									</g>
									<g id="s9_3_">
										<g id="s4_7_">
											<path id="s_32_" class="st3" d="M1976,300l70.5,217.1l-184.7-134.2h228.3l-184.7,134.2L1976,300z"/>
											<g>
												<path id="s_33_" class="st3" d="M1976,720l70.5,217.1l-184.7-134.2h228.3l-184.7,134.2L1976,720z"/>
											</g>
											<g>
												<path id="s_34_" class="st3" d="M1976,1140l70.5,217.1l-184.7-134.2h228.3l-184.7,134.2L1976,1140z"/>
											</g>
											<g>
												<path id="s_35_" class="st3" d="M1976,1560l70.5,217.1l-184.7-134.2h228.3l-184.7,134.2L1976,1560z"/>
											</g>
										</g>
									</g>
								</g>
								<g>
									<g>
										<g id="s5_4_">
											<g id="s4_8_">
												<path id="s_36_" class="st3" d="M2223,90l70.5,217.1l-184.7-134.2h228.3l-184.7,134.2L2223,90z"/>
												<g>
													<path id="s_37_" class="st3" d="M2223,510l70.5,217.1l-184.7-134.2h228.3l-184.7,134.2L2223,510z"/>
												</g>
												<g>
													<path id="s_38_" class="st3" d="M2223,930l70.5,217.1l-184.7-134.2h228.3l-184.7,134.2L2223,930z"/>
												</g>
												<g>
													<path id="s_39_" class="st3" d="M2223,1350l70.5,217.1l-184.7-134.2h228.3l-184.7,134.2L2223,1350z"/>
												</g>
											</g>
											<g>
												<path id="s_40_" class="st3" d="M2223,1770l70.5,217.1l-184.7-134.2h228.3l-184.7,134.2L2223,1770z"/>
											</g>
										</g>
										<g id="s9_4_">
											<g id="s4_9_">
												<path id="s_41_" class="st3" d="M2470,300l70.5,217.1l-184.7-134.2h228.3l-184.7,134.2L2470,300z"/>
												<g>
													<path id="s_42_" class="st3" d="M2470,720l70.5,217.1l-184.7-134.2h228.3l-184.7,134.2L2470,720z"/>
												</g>
												<g>
													<path id="s_43_" class="st3" d="M2470,1140l70.5,217.1l-184.7-134.2h228.3l-184.7,134.2L2470,1140z"/>
												</g>
												<g>
													<path id="s_44_" class="st3" d="M2470,1560l70.5,217.1l-184.7-134.2h228.3l-184.7,134.2L2470,1560z"/>
												</g>
											</g>
										</g>
										<g>
											<g id="s5_5_">
												<g id="s4_10_">
													<path id="s_45_" class="st3" d="M2717,90l70.5,217.1l-184.7-134.2h228.3l-184.7,134.2L2717,90z"/>
													<g>
														<path id="s_46_" class="st3" d="M2717,510l70.5,217.1l-184.7-134.2h228.3l-184.7,134.2L2717,510z"/>
													</g>
													<g>
														<path id="s_47_" class="st3" d="M2717,930l70.5,217.1l-184.7-134.2h228.3l-184.7,134.2L2717,930z"/>
													</g>
													<g>
														<path id="s_48_" class="st3" d="M2717,1350l70.5,217.1l-184.7-134.2h228.3l-184.7,134.2L2717,1350z"/>
													</g>
												</g>
												<g>
													<path id="s_49_" class="st3" d="M2717,1770l70.5,217.1l-184.7-134.2h228.3l-184.7,134.2L2717,1770z"/>
												</g>
											</g>
										</g>
									</g>
								</g>
							</g>
						</g>
					</g>
				</g>
			</g>
		</g>
	</g>
</g>
</svg>
